/* XPM */
static char *_9f1ff6ff551442cbd27ee1c58db9f780T6pNRBkFk4ot5Rn[] = {
/* columns rows colors chars-per-pixel */
"64 64 56 1 ",
"  c #2D4A65",
". c #2E4B6C",
"X c #314A65",
"o c #324E6D",
"O c #2F506F",
"+ c #33516E",
"@ c #39536F",
"# c #324F70",
"$ c #355373",
"% c #395675",
"& c #375877",
"* c #3A5877",
"= c #365579",
"- c #395679",
"; c #375879",
": c #3C5A7B",
"> c #3F607F",
", c #405D7D",
"< c #405F7E",
"1 c #435E7F",
"2 c #41607F",
"3 c #42607F",
"4 c #3F5B80",
"5 c #3C5D80",
"6 c #3E5C80",
"7 c #3F6082",
"8 c #405C80",
"9 c #405E80",
"0 c #445F80",
"q c #435F84",
"w c #426081",
"e c #456081",
"r c #446382",
"t c #456483",
"y c #436185",
"u c #456385",
"i c #476384",
"p c #436487",
"a c #476685",
"s c #486484",
"d c #486585",
"f c #496887",
"g c #476388",
"h c #476589",
"j c #486688",
"k c #4B678C",
"l c #4B6A89",
"z c #4C6888",
"x c #4A688C",
"c c #4C6A8C",
"v c #4E6C8E",
"b c #506D8F",
"n c #4F6B90",
"m c #4E6C90",
"M c #506E90",
"N c #547294",
/* pixels */
"::::=-:::6y6-=:-9cu=$:$#$:::-:w:$=:-=:ju::-wl9::wjluuw-=:-$$$$-:",
":<rw:==:9uy9y99:wla::9-##-:::wlw=$=--:w:==-ujwwjjxvluw::9::-#$:a",
":ala::-:uhyyxu9:wja9::-$$-9::9la-$-:::9=$=$:aywu::jc::=:la:==:al",
":afawuuww99yu9::9w9::-:-$-::$=66:-:w:::--:-:j9:-##wc:==9cu=$:wau",
":w2<ucvj::yh6:==:::99wu:==:-$$=-::wu9::-:u::9:::$#:j:::9w:=-:99:",
"::&=:ajw-=9h6:-$-:::ujxy=$-=#$=:yjju:9:$$9w--:::-$-u=:u:--$:wjw-",
":*&$$:ua:-ux9-::9u9:ww9:---==:-:wuw:::-#$:w:-::::$=w::u:=-$-9a:-",
"2wtw:=wa::yy9w9w9:::w9::9uw:9w:-:69::-==-:::-::::==9w:9:--=::9:=",
"::wu9:u9:y9:xMaw:$=9ulw:ullaua9:-:ww:::ww:$$$==-:--99:w9-$:9:9::",
"+.$=-::$=ay6mcwua99uwca99jcu:ua:-:9:::9uu9:=$---:=-9wwyu:#=:::w9",
"$.+$-&-$$yjy9:-:auy9:ww::wa:$:9:=:::::96:9::::::-=-9u::w9=$$$-9:",
"$$$=:::::hmh:$==:::::::::::=$$===::::::::9:-:::=---:::=wj9:$$=:-",
"&:::::$$:yu6-=::::-=::-=$$$$--#$--$$==-:uu::-:$.$--:9y:jjw9-$$::",
"$=&=:&:*:>:$=-::::-:a9::-$$:::-$-=#$=$-uauaw6$.$:::66x6:7py==$9a",
"::&$==:&=:=O==$$=-:wu::::::::=$$::=$$-:w::wly:=:6::::p:6hxh:-:gc",
"::=oo$=*::$+=:-$$=-::=--:::=$=$-:::-:uclw::wahhuy6::yh6yccu69qjj",
"::=$+.$:w:=$*w:-===$$$=$$::=#$:y6==:9jcaaw-=6y9:::-=uhyuu6:--:4:",
":$&:&+$<t:$=:----====$$=-9u:=$:j9$#$-::=:::999:-:::-:9y::$$:9u4$",
"*+=w:==:2*$*:$=--=====-:9ww::::-$#$$$$:::::aj9-=:w9::9a9-$#9nMu$",
"&=*2:*$=::::=$-:=$=--=-:::::wj:$#$$--:uca::aa:#$=-=-9wjw9:$:gku9",
":<<r<&.+:ttw$$=-=&:::$$=:::aawu:::==99wlw:9lc9=-:--:::w9y9$:gckc",
"&<w<:$$$&::::--:::$=::$=--ua99w:-:$$-:::::uau-$&--::::::::::uugj",
"$&&&$$$$$$$:<:-:<:=$-w::-$9jw:9:-$#$=-:-:ujw-$$$#$:<-:9:&&:wggq9",
"oo$$$$$&$$$:<u:-::$#=::9:-9jjw:==$#---:=:aj:=$$$o=<:$:<<::<9ugu9",
"$$=:<::*$$&:9u::9:$$-::ww99ww:$$::=-:::-:wu::$ooo:r:&&&:<:*&9jjj",
"&&&:<<:&o$:rd:::u9:--=::wuw::$$-::--:::::::ur:&&=:da:$.$&$$&qkju",
"&&%&&$$oo$:<:$::9:-$.#$&9ju9w::w:$=:::::-=:alrtr::rz:$..oo&<jjq9",
"***:*oooo$*:$=::$$-$.#=-wlu<wwwu:#$$=--=$$:wr:<dr:0d<&oo$$&<u9--",
":*:0<<:%#$&:&::$.$::$$::dz:&:&&::=$.o&&$$=:::+$:::<td:$$$+$%:&#=",
"$+=<9ur:$$---:6=$:w:==&:dz*+$$o$&=+++$=$::=::*$+$=wfl:=$+%%@%+o=",
"$$$$<zz9:---==::6ww:::&*rd&o$=$$=$$$$$**::=:2*$+$&wll:*$$%$++$$&",
"$&$$<zzu9<:=$=$-::-::&$$:<&$&::&==&*==::2:$::&$O$:wjj<:&$$$$**&=",
"$&&:<rw9ww:-$&#&w:&&*$$$$::::::*$=&**=:::$$==++$-:6qy9w:=*::*:&$",
"$$*<<:&=:::--&.=r<&:&$-:=-ww<w:&$$$$=$=*$+$$$$$:9::::yjw::2:$$$$",
"+$&::&oo$&&-<:.o&+%<:::6::yhw:*===$$==$=$$:$+$:29:-=:yjy:::=+o$$",
"+$&::&o#&---:& o$X+<:-$:::6aw:$$::::::::$:w*+$*<9:-=4qy:=:::$+$$",
"%&::<%+$--:&$oX$&+%<::::66:66&$=::::ww2:=*:&$&<<<::::::-:ajw-$$$",
"*&&*:&$=&&&$$oo++o$<rw::7y6::==:<*$=:::*$$&&%*<<0994===6hu6:-=&:",
"&$$+o$$$$$#$-:&$+.$rlr=$:why:*::r*$$=&&$$=&%%%*<099q:==yx6=66::r",
"%$ooo$$$$$$&:<:&=o=:r:$$$$9a::::<&$&:*$+$=*%%@*<*#-u:-:gp::pa:::",
"*&o.=&&:$$-<wu::::-:&$o&$.$&=::**$$:::$$$&&%+o@*$X#:-*cN7;:;::::",
"&&oo:rrw$#:auj::w::*$..$$o$$$:*&*$=:*$$$*&$+oXX@*$o##:NN:;;O::::",
"$$o$<ddw$#:ua:==:=$$$$o+$$&:<2::::::*$$$=$$$oXXo%<*$$<d9;==;yw:$",
"$+$&:r2:$$-:w=$:w:$=-o$%**+&2r:&::<w:&$oo+$&@@oXo$<r<d:$:$.=::$o",
":&$o$:&$$$:rw::6w:$$*o$$%$$$<r::<::<u<-$+$+*%%%@+=<d:&::$.$++++o",
":&$o$&$+$$:rw:::&$#ooo#oo$&:r2<:::::::9u<:++***:*&:rr&&=$-:$  o%",
"&=%$&:=$=$:w22>:+o&$oooXX+=::&&$$:u:-:ud<:++<<:<:&-<dwrrujr&o o*",
"o$:::<:&$=:adw>:=&:<*$%#o$$$oo+o#<ju:4ur&$+*2<%$$$-<wvNcadr*+@%%",
"o$&-&::&$*<az:::::&<<<<*%&$.o++o$:99::au*$$:<&ooo$*<rNb:$-::+<<%",
"&$ooo&::*::&:$$=*$.$<rr*o$$oo+$$&&-::4u9=$$:&+oo+$&:avr#.$&::2*+",
"&$oo$&<<::&.o$==$..o%<<$.o$$$+&:-=-4qqu:$$%<$+++$oo$:dw-=$$:<:$$",
"$$&::=::&:&o$=::+.o$%*<$o$&&&$<w:$-:quj9-:&*%$++o..o$ru:=$-:$$*:",
"&$:<&$$:<:$o.&::$$&*<<$#oo::=%<r:$-:49:-&&%o$*&o.$$..=da-$=$&::r",
"oo&:oo&<<:$$$:w:=&<<0%#oo&::$&<2::uju:-=$$$$o$%$&:=.o$99---$$$:f",
"$$=&&&:rr:&$=:r2:::*%%@oo:<&oo&:-9jkj9-&&$$*++++:<<=$&:9<:-$=::u",
"&*:::&:<2:==&2wwrr&oo%%oo:&$o.%:::9:9:=$&::*$%%*2dr:$$:rja:&:9:=",
"$::<<&:<:=$$$:::zz:o#o@#$&$oo+&<:=$$$=$#=<<&$%<tzd:$$$=<jjr:::$$",
":&$:2rad<&$o.+$*ru&o$o$*<<*$$+$&-$$::49::<2&%%&:<:$o&&$:r9::6:=:",
"r=o&:rzf<&&$..=*::&$**%:00<:&oo$$$-::yju:::&&+o$:&$o$&%:r:$-6:::",
"<&$$+*<<:&&&+$<2::2rr<&:<:<<:&==$$:-$:w<&$$*$+o%<:=$o$:<d:=====$",
"::$+o++++$&&&:tzawtld::<<&&:<::-$$:-#$&$+++*$*$&r:=$$&:<<:&==$$$",
"<***++++oo$*::rfzr2rd<:::*&&&:==#$:=#o..o+$*%*&2z<&$$&&:&$$&-::=",
":&*&$$==$$$$&&&:0<&:r<::::<:====$==$$o o&*%%&*$rz:&&:&&:&o$&:99:",
"==&$$$&:::::=&&&&$o$&&$&::<<::==:--::$o:<<&%&&$<<=:::&&:&oo=-9y:"
};
