/* XPM */
static char *ef9d685ad9d94c70f1d49850fb1505b3PTT8T1H216XwEpeN[] = {
/* columns rows colors chars-per-pixel */
"64 64 13 1 ",
"  c #456385",
". c #476586",
"X c #486587",
"o c #496688",
"O c #4B688A",
"+ c #4C698B",
"@ c #4D6A8C",
"# c #4F6D8E",
"$ c #506D8F",
"% c #516F90",
"& c #537091",
"* c #547193",
"= c #557294",
/* pixels */
"..XooO+@@@###@@++++@@@@@+OOO+@##$$##@+++@@@@+OOoo..............o",
".XXooO+@@@####@@@@@++@@+OOO+@#######@@+@@@@@++OoooXXXX....XoXXoO",
"...XooooooO+++++@@@@@@@@++@@##$$$###@@++@@+++++O+OOOooo..ooOOoOO",
"......XooO+@@@@@@@##$$$#@@@@@#$%%$$##@++++++@@@@@#@OOOoXXoOOOOO+",
"..  ..XoO@#$$#######$$$##@+++@#%%%$$#@++++++@####$#@++OoooooooOO",
"X....ooO@##$$$####@@####@+OOOO@#$$$$#@@@@@@@#######@+OoXXooooooo",
"X..XoOOOO@@@@@@@@@@@@##@+OooOO+@####@@++@@@@######@+OOooooOOOOOO",
"ooooOOOOO++@@@@@@+@@@#@@@OOoO++@@@@@@++O++++@#@@##@+++OO+@@@@@@+",
"OOOOOOOooOO+++@@+O+@####@@OooO++@@@@@@+@@@@+@@@@#$#@@@@+@##@@@@O",
"O+OoooooooOOOO++OO+@#$$$#@+ooO+@@@@###@@########%%%####@@#@++@+O",
"OOOoooooooooooOOOO+@@####@OOoO@####$$#@+@@@@#$$$%&%$$$#@@@@+++Oo",
"oOOO+++OOOooXooooOOO++@@+OOoO+@$%%%%$@+O+++@@##$%&%###@++@@++OoX",
"o+@####+OOooooooooOOOOOO++OO+@$%%%%%$#@++@+++@@#$%$#@@+OO+@+++Oo",
"@#$$##@OooooXoooooooooOO+++@@#$%%%%%%$#@@@@+@@@##$#@++OOO++++++O",
"#$#@+OOoooXX..XXooooOO+++@@@@#$%%%%%$######@@@###$#@@@+OOOO++++O",
"#@+OoXXXX.....XooOOOOOOOO+++@@#$$%%$$#@@@@@@@#$%%&%$##@+O+OOOOOO",
"+OOooooooX...XooOOOoooooooO+@@##$%%%$#@@@++O@#$%&*&&%$@OOOOoooOO",
"oOO+++++OoooooOOOOOOOooO+++@$$%%%&%$$#@@@+OO+@#$&&&%$#+o..XXoooO",
"O+@###@@+OOOOO+@@@@#@@++@@@#%%&&&&%$$###@@@++@@#$%%$#+O. ..XooO+",
"+@@##@@@+OOooO+@@#$$##@OOO@##$%%%%$###@@@++OO+++@#$#+OoX...oooOO",
"@@@@@++++OoooO+@#####@OooO+@###$$$$#@@@@@+OOO+++@##@+OoXXXoooOO+",
"@@@@@@@@@+OOO+@#####@+OooO+@#$$%%&%$##@@+OO++@@@####@+OooooOOOOO",
"OOO+@@@###@@@@@#####@++++@#$%&&&&&%#@@++++++@@@@###@@OooXXXXoooo",
"@+@####$$##@@@@##$$$##@@#$$%&**&%$#@++O+@@+@@@@@###@+Oo.. ....oo",
"##$%%$$$$#@@+++@#$$$$#@@@#$$%%%$##@###@@@@@@@@@@@#@@+OoX...ooooO",
"%$$$$####@@+OO+@#$$$#@@++@@######$$%%%$#@+OOO++@@@@++OooXooOOOOO",
"%$$#@@@@@@@@+@@#$%$$#@@@+@@@@#$$%&***&$#+OOO++@@#@+OOOoooOO++OOO",
"$##@@++@@@#####$%%$$##@@@@@@##$$$%&&%$##@OO+@@@@#@+OOOOooOO+++Oo",
"###@+++O++@@@@#######@@@@@#$$$$#@@@@@@@@@@@@@@@@@+OOOooooXXooooo",
"#$$$@@+OOOO@@@@##@@@@@@@@#$$$$#@OOO++++@@@@+@@@+++++OOooooooOOOO",
"##$#@+OooooO+@##$##$$$$###$$##@@++@@#@@@@@+OO+++++@@@+OOoooOOOO+",
"#@@+OoX..XoO+@#$$$$$%$$#@@##@@+@@###$$#@@+OOO+++@@####@@+OOOOOOO",
"OOooo....XoOO+@#####$###@@@@@++@@@###@@@@++@@@@+@@@@@@@@@+++OOOO",
"oooooXXXXoooOOO+@@###@@@@@@@@@@@@++OOOoO+@@###@+++OO++@++O++++++",
"oooooOOoooooOOO+@@@############$#+OOoX..oO@####@@@+++++++O+@@@@@",
"OoooOOOooooOO+@######$$%%%%##@#$#+OOoX .XoO+@@@@@######@@++@@@@@",
"OOooooX..XoO+@##$###$$%%$$#@+O+##@+++o..XoO+@@@@#$$%%$$##@@@@@@+",
"@OoX.....XoO++@##@@@####@@++OoO@##@@@+oooO++@@@@##$####@@@@@@++O",
"@+OoooooooOOOO+@@@+@@##@@++OOoO+@####@OO+@@@##@@@@@@@@@+O+++++++",
"##@+@@+O++++O++@##@@@@##@@@+OOO+@@@@#@O+@@#######@@++++OOOO++@@+",
"#######@@@@++@@###@+@@##$$#@+OOOO++@@+O+@@@####$$$$##@@+OO+@##@@",
"$$$$$$##@@++@@##$#@++@##$$#@OooOOOO+@++@##$$$$#$%%%%$#@@@+@@##@+",
"%%%$%$#@@@+@@@####@@@@###@@+OoO++@@@@@@##%%%%%$#######@@@@@@@#@O",
"%%%%%%$$$###@@@@#@@@@##@@@++OO+@@########$$$$$#@@@@+OOooOOOO+@@+",
"$$$%&&%%%%$#@@@@##@@@###@@@@+O+@@@#########$$#@@+OOOooXXoXXoO+@@",
"@@#%*=**&&%#@@###$#@########@+++OO+@@@@#$$$$$#@@++OooX..X.XoOO++",
"O+@$&***&%$#######@@##$$$$##@+OOOOO+@@#$%%%%%$##@@OOooXoooooOOOO",
"OO+#%&*&&%$##@@@@@@##$$%$#@@+++@@@@@@@@#$$$%&%$#@+OooXooOOOOOOoo",
"OOO@#$%&&&%##@+++@@##$%%$#@@@@#######@++@@#$%%%$@OoXX.oOOoooOOoo",
"OooO+#$&&&%$#@@@#@###$$$$$$##@###@@@@+OoOO+@#$$#@+oX...oooXooooo",
"o..oO@$%%%$#####$$###$$$%%&&%$$#@@@@@@OOOOO+@@@@+Oo....oooX.....",
"...oO@$%$$###@@#$#######%&***&%$#@+OOOOOOOOO+++OOoX.. .oooX...  ",
"...XoO@####@@@@@@@@@@@##$$%%&&%$#@+OOOOOO+OO++++OOo....ooooXX...",
".....o++@##@@@+@+++++@@@@##$%&&&%#@+OoooOOOO@@#@@OoX...ooooooooX",
"oooXoo+@#$$$$##@@++OO+++@#%%***&%$@+OoooooO+@#$##+OoX..XooooooX.",
"OOOooO@#$%%%%$###@+OOOO+@$&*===*%#@Oooo..XoO@####+OooXXoOOOooo..",
"@@++++@#$%%%%%$$#@@+OOOO@#%*===*%#@Oooo...Xo+@##@+OOoooO+@@++OOO",
"@@@@+@###$$$$###@@@@OooO+@#%&&&%$#+oX.....ooO+@@@@+OOooO+@++++++",
"O@@@@#$$$$$$####@+@@OoooOOO@$$$$$#@oX....XooO++@@+OOOOOO++OOOO++",
"O@@###$$$$$$$%%$#@@+oooOOO+#$%%%%#@OooXXXooO+++@@+OooooooooooOOO",
"@@@@@@@##$%&**&%#@+OoXooO+@#%%%%$#+OoooooooO+@@##@OooooooooooOOO",
"@@@@@@@##$%&**&%#@+OoXXoOO+@###@@+ooooooooO@@@#$$#+OOOO+@@@@@@++",
"@#####$%$$%&&%%##@+OooooOOO@@@+++OoooooooooO+@@#@@+O++@@#$###@+O",
"@####$%%$####@++++OOooooooo+@@+++OooXX....XooOOO+OOO++++@@@OOooX"
};
