/* XPM */
static char *_001e4cb1a274695e2a5f0cd7a467571KVwnuss8hZ1mJftW[] = {
/* columns rows colors chars-per-pixel */
"64 64 172 2 ",
"   c #010101",
".  c #0B0401",
"X  c #040903",
"o  c #0E0A05",
"O  c #020509",
"+  c #0A0409",
"@  c #0A0A0A",
"#  c #100600",
"$  c #110903",
"%  c #1A0D04",
"&  c #140E0C",
"*  c #1B1205",
"=  c #16100C",
"-  c #19120B",
";  c #1C190D",
":  c #090B12",
">  c #190F10",
",  c #0E1215",
"<  c #131314",
"1  c #1C1312",
"2  c #1E1813",
"3  c #14141B",
"4  c #191219",
"5  c #24160D",
"6  c #25190C",
"7  c #281A0F",
"8  c #231C15",
"9  c #2C1F16",
"0  c #251E18",
"q  c #26221C",
"w  c #2A231C",
"e  c #37321F",
"r  c #0E1621",
"t  c #141622",
"y  c #111924",
"u  c #252224",
"i  c #2C2621",
"p  c #2B2825",
"a  c #262629",
"s  c #2B272B",
"d  c #27282A",
"f  c #28292B",
"g  c #302D25",
"h  c #3B2D25",
"j  c #322D2A",
"k  c #3E3222",
"l  c #3D3825",
"z  c #3C322C",
"x  c #232637",
"c  c #2D2C31",
"v  c #312D34",
"b  c #3E2C38",
"n  c #2F3336",
"m  c #28313A",
"M  c #353036",
"N  c #3C3932",
"B  c #323639",
"V  c #36393D",
"C  c #412F23",
"Z  c #473527",
"A  c #44372D",
"S  c #49372B",
"D  c #413B2F",
"F  c #4B3A2C",
"G  c #443D36",
"H  c #4C3C32",
"J  c #443F3B",
"K  c #4A3E3E",
"L  c #4D402F",
"P  c #464035",
"I  c #4C4335",
"U  c #46413B",
"Y  c #4C433A",
"T  c #514131",
"R  c #52453C",
"E  c #544A3D",
"W  c #5B4A3D",
"Q  c #63573F",
"!  c #343642",
"~  c #373A44",
"^  c #393B46",
"/  c #3A3C4A",
"(  c #473C40",
")  c #4C3F43",
"_  c #4E4441",
"`  c #4E4944",
"'  c #504642",
"]  c #534A43",
"[  c #5B4D43",
"{  c #544E4A",
"}  c #5A4E4A",
"|  c #5E5145",
" . c #55514D",
".. c #5C544C",
"X. c #5E5949",
"o. c #474751",
"O. c #524F56",
"+. c #5E4D57",
"@. c #575350",
"#. c #5D5652",
"$. c #5C5758",
"%. c #5D5A5D",
"&. c #645546",
"*. c #615946",
"=. c #63564B",
"-. c #695749",
";. c #65594E",
":. c #6B5B4D",
">. c #655551",
",. c #655B52",
"<. c #6B5D52",
"1. c #635A5C",
"2. c #6A5D59",
"3. c #705E50",
"4. c #71624D",
"5. c #646057",
"6. c #6D6154",
"7. c #65615C",
"8. c #6D635B",
"9. c #6E685C",
"0. c #736455",
"q. c #786757",
"w. c #716857",
"e. c #796856",
"r. c #73665A",
"t. c #72665D",
"y. c #74665D",
"u. c #796759",
"i. c #78675F",
"p. c #716859",
"a. c #726958",
"s. c #72685D",
"d. c #75685F",
"f. c #7A6A5B",
"g. c #7A6A5D",
"h. c #796B5F",
"j. c #7B6E5D",
"k. c #75705D",
"l. c #5E5B62",
"z. c #5A5A64",
"x. c #5F5E64",
"c. c #615C62",
"v. c #635E62",
"b. c #5E626B",
"n. c #626266",
"m. c #6B6360",
"M. c #6E6662",
"N. c #6F6765",
"B. c #6E6864",
"V. c #63626B",
"C. c #68606F",
"Z. c #6A6869",
"A. c #6C6A6D",
"S. c #736161",
"D. c #716765",
"F. c #746665",
"G. c #736960",
"H. c #766C60",
"J. c #726964",
"K. c #796860",
"L. c #786A61",
"P. c #7C6A60",
"I. c #7B6C61",
"U. c #7A6B66",
"Y. c #796C66",
"T. c #766D68",
"R. c #746C6A",
"E. c #786F68",
"W. c #7B7165",
"Q. c #7B716A",
"!. c #806F65",
"~. c #817161",
/* pixels */
"j.w.w.0.6.p.w.w.6.,.,.=.t.t.d.p.D.2.d.t.t.6.Y.t.t.4.J.t.t.P.y.t.t.2.4.k.y.t.e.8.p.p.d.S.p.p.;.i.0.0.0.8.9.&.<.w.w.<.<.:.8.r.t.!.",
"7.    O p         1.,.9.        1.      @   X     Y O     1.      ! ;       ,.O     %.      :         p ..:.          0       6.",
"G.      f         2.,.<.        c.      @ . .     H       J.      ~ 5       ,.      1.      t .       j ,.<.          9       <.",
"G.      f         2.,.<.        c.      @ .       H       J.      ~ 5       ,.      1.      t .       j ,.<.          9       <.",
"G.      f         2.,.<.        c.      @ .       H       J.      ~ 5       ,.      1.      t .       j ,.:.          9       <.",
"G.      f         2.,.<.        c.      @ .       H       J.      ~ 5       <.      1.      t .       j ,.:.          9       <.",
"G.      f         2.,.6.        c.      @ #       H       J.      V 5       ,.      1.      t .       j ,.:.          9       <.",
"G.      f         2.6.,.        c.      @ .       H       J.      V 5       ,.      1.      t .       j ,.<.          9       <.",
"G.      f         2.6.,.        c.      @ .       H       J.      V 5       ,.      1.      t .       j ,.<.          9       <.",
"t.      f         2.,.<.        %.      @ #       H       m.      ! 5       ,.      1.      t .       j ,.<.          9       <.",
"t.      f         2.,.<.        %.      @ # .     H       m.      ! 5       ,.      1.      t .       j ,.<.          9       <.",
"0.p.p.0.0.f.r.r.0.=.6.=.F.F.F.F.9.G.y.d.d.U.U.d.d.y.h.d.d.w.h.r.r.r.0.r.r.r.0.r.p.p.w.p.r.r.u.f.0.0.0.,.6.6.8.y.y.8.G.F.F.t.d.2.",
"0.w.w.0.:.0.0.0.0.7.6.=.p.p.p.p.p.p.d.y.t.6.w.d.d.H.s.d.d.p.r.r.r.r.0.<.r.r.r.r.w.w.0.r.0.0.0.0.0.0.0.>.8.;.W.t.t.8.G.w.s.K.G.t.",
"8.    . a         2.8.,.M.T.G.G.y.y.i.i.i.K.K.r.r.r.r.r.r.f.f.0.0.f.f.f.0.0.q.q.0.0.0.0.0.0.0.0.0.0.4.q ;.:.          9       <.",
"G.      f         <.r.,.M.9.    o.      @ .       h       $.      x %       W       O.O     : .   + s.i 2.<.          9       <.",
"G.      f         <.r.,.M.s.    z.      @ .       A       Z.      ! 5       =.      l.      3 .   + s.i 2.<.          9       <.",
"G.      f         <.8.,.R.G.    b.      @ .       H       T.      / 5       ,.      A.      t .   + p.i 0.<.          9       <.",
"G.      f         <.8.,.T.G.    b.      @ .       H       T.      / 5       ,.      A.      t .   + p.i 0.<.          9       <.",
"G.      f         <.r.;.E.t.    V.      @ .       H       T.      ~ 5       ,.      A.      t .   + d.i 0.<.          9       <.",
"G.      f         <.r.;.E.t.    V.      @ .       H       J.      ~ 5       :.      A.      t .   + d.i 0.<.          9       <.",
"G.      f         <.6.;.T.K.    V.      @ .       H       8.      V 5       :.      N.      t .   + d.0 <.<.          9       <.",
"B.      d         8.&...Q.!.    C.      @ .       P O     7.      v ;       6.O     Z..     3       p.0 <.6.          0       s.",
"*.R R G Y E R R H #.;.,.J.d.Y _ +.Y Y ' Y I D R R | ( R R <.G R R ) I Y R R Q G R R ..E R R P L T H s.0 <.=.] Y Y ] ' W ` Y ] 2.",
"G.      d         <.;...6.t.    n.      @ .       S       >.      v 5       &.      n.      r     + d.q <.<.          9       <.",
"G.      d         <.p.] <.8.    n.      @ .       C       }       a *       W       n.      r     + d.q <.<.          9       <.",
"G.      d         <.<.#.<.t.    n.      @ y.T.T.T.T.Q.I.I.u.f.h.h.q.0.f.f.f.0.f.0.0.9.      y     o p.0 <.<.          9       <.",
"G.      d         <.:...p.s.    n.      @ % .                                 .     #.      y     . p.0 :.<.          9       <.",
"G.      f         ,.-.t.Q.y.    n.      @ #                                         1.      y     . p.0 :.:.          9       <.",
"G.      d         ,.6.,.T.p.    x.      @ %                                         A.      t     . d.w <.:.          9       <.",
"G.      d         ,.6.,.T.s.    x.      @ %                                         ,.      t     . h.w <.:.          9       <.",
"G.      d         ,.6.;.Q.p.    x.      @ #       z       c.      m -       [       $.      t     . d.w <.:.          9       <.",
"G.      d         <.6.;.Q.t.    x.      @ #       A       A.      ~ ;       =.      2.      t     . d.w <.:.          9       <.",
"2.      s $     . 2.6.=.G.r.    ,.$       * .     G +     c.+     / 8       #.+     1..     4 . . 2 j.w :.-.$       + 9       [ ",
"E       w #       ..6.=.G.8.    Y o     . # .     l + . . ] . . . M 5       G .     U . . . @ .   & j.w <.:..       . -     . E ",
"s.      d         ,.6.,.T.p.    %.      @ #       H       N.      ~ 6       ..7.2.2.<.<.6.6.,.,.:.| h.0 :.:.          9       <.",
"s.      d         ,.6.,.T.p.    %.      @ #       H       R.      / 6       ..7.2.2.<.<.6.6.,.,.:.| h.0 :.:.          9       <.",
"G.      d         ,.6.,.T.p.    %.      @ #       Y O     T.      / 5       ..5.<.<.<.<.2.2.<.<.:.| h.w :.:.          9       <.",
"G.      d         <.6.,.J.w.    %.      @ .       Y O     T.      ^ 6       >.,.<.<.<.<.<.<.<.<.6.| d.[ <.:.          9       <.",
"G.      d         ,.6.,.J.w.    %.      @ #       Y O     T.      ^ 6       >.,.<.<.<.<.<.<.6.6.y.| K.[ <.:.          9       <.",
"G.      d         ,.6.,.J.p.    $.      @ #       H       T.      ^ 5       >.,.<.<.<.<.<.<.<.<.:.| h.E <.:.          9       <.",
"G.      d         ,.6.,.J.w.    $.      @ #       H       T.      ^ 5       >.,.<.<.<.<.<.<.<.<.:.| h.H <.:.          9       <.",
"G.      f         ,.3.,.s.d.    $.      @ #       H       M.      ~ 5       =.,.<.,.,.,.,.,.,.,.=.[ h.0 :.:.          9       <.",
"G.      f         ,.3.,.s.d.    $.      @ #       H       M.      ~ 5       =.,.<.<.<.,.:.:.,.,.=.[ h.0 :.:.          9       <.",
"X.w w i z 7 w w q | :.;.G.6.q q E w q w i w g w u I u w w ..w w w ) k q w w E - 2 8 ` 2 8 8 w 8 6 8 0.w :.:.u w w q w h q i i =.",
"8.      a         ,.-.<.J.w.     .      @ #       H       M.      B 5       -.      #.      ,     $ h.0 :.-.          9       <.",
"8.      a         ,.-.<.J.w.     .      @ #       H       G..     V 6       :.      #.      , .   $ h.0 :.-.          9       <.",
"s.      f         ,.:.,.H.w.    @.      @ #       H       M.      B 5       :.      ..      ,     $ h.w :.-.          9       <.",
"G.      f         ,.:.;.H.w.    @.      @ #       H       M.      B 5       :.      ..      ,     $ h.w :.-.          9       <.",
"G.      f         ,.:.;.G.0.     .      @ .       H       9.      B 6       :.      |       ,     o f.w :.:.          9       <.",
"G.      f         ,.:.;.G.0.     .      @ .       F       M.      B 6       :.      |       ,     o f.w :.:.          9       <.",
"s.      d         ,.;.] :.w.    {       @ #       H       8.      n 5       =.      |       , .   o f.8 -.-.          9       <.",
"s.      f         ,.=.W =.w.    `       @ .       S       2.      c 5       &.      {       ,     o f.8 -.-.          9       <.",
"s.      f         ,.=...:.6.    `       @ .       S       2.      c 5       &.      {       , .   o f.8 -.-.          9       <.",
",.      s .     O =.:.} =.p.    [       @ $       I       ,.      b 8       X.       .      @ . X . 0.8 -.:.          7       -.",
"| - - * j > - - ; ,.-.=.<.6.& < z = - - ; - = - - e 4 - - G & - - s 6 - - - F = - - A 1 - - * % 2 w w.8 -.&.i - - - & 8 & 1 & E ",
"9.      a         =.:.;.2.6.    '       @ .       S       =.      c 5       W       ]       ,     # f.8 -.-.          w       <.",
"8.    . u         ,.:.;.8.p.    _       @ #       F O     >.      f 7       W       `       ,     . q.8 -.&.          9   O   :.",
"t.      f         ;.:.=.t.6.    _       @ .       S O     }       f 5       W       _ O     ,     o 0.0 &.-.          9       <.",
"s.      f         ;.:.=.8.p.    _       @ #       S O     }       c 5       W       Y       <     o 0.w &.&.          9       <.",
"s.      f         ;.:.=.8.p.    K       @ .       Z O     ]       s 5       E       U       ,     o 0.w &.&.          9       <.",
"G.      f         =.-.=.8.;.    z         .       g       J       8 =       N .     j       o     # :.8 =.&.          9       <.",
"G.      f         =.-.=.G.t.y.G.G.d.y.y.y.G.d.d.d.y.d.p.p.I.I.0.0.d.r.p.0.0.0.0.r.r.0.0.0.0.0.0.p.~.j.8 -.&.          9       <.",
"M.#.#._ ] } #.#.{ ;.,.<.Y Y Y Y Y Y Y Y Y Y Y Y Y Y Y Y Y Y Y Y Y Y Y Y Y Y Y Y Y Y Y Y I I I I I I I E ,.&.Y ....] ] | ] ] ' :.",
"h.t.t.r.h.0.y.y.p.j.h.y.h.h.h.h.K.K.h.h.h.h.h.d.d.h.h.h.h.h.h.h.h.h.h.h.h.h.h.h.h.h.h.h.h.h.f.f.h.h.h.f.0.w.0.0.0.f.0.r.0.0.0.w."
};
