/* XPM */
static char *_1e262eaf4ea42e78356743d41663d64ttORhId9roBh7cb6[] = {
/* columns rows colors chars-per-pixel */
"64 64 206 2 ",
"   c #010305",
".  c #010B05",
"X  c #04060A",
"o  c #08070C",
"O  c #050B0D",
"+  c #080D0E",
"@  c #021405",
"#  c #091905",
"$  c #06110D",
"%  c #0A130E",
"&  c #0A1A0D",
"*  c #060E11",
"=  c #090E11",
"-  c #061311",
";  c #0B1313",
":  c #071810",
">  c #0E1A15",
",  c #0D1619",
"<  c #0E1A19",
"1  c #111516",
"2  c #121D16",
"3  c #121619",
"4  c #131B1B",
"5  c #181C1F",
"6  c #0D2116",
"7  c #0F2018",
"8  c #122414",
"9  c #142A16",
"0  c #15221C",
"q  c #19241C",
"w  c #16291D",
"e  c #1A2A1E",
"r  c #1F3216",
"t  c #1E361E",
"y  c #233818",
"u  c #161E21",
"i  c #191E21",
"p  c #162221",
"a  c #1B2423",
"s  c #172B22",
"d  c #1C2B24",
"f  c #1E2628",
"g  c #1D2A2A",
"h  c #202624",
"j  c #222C25",
"k  c #222629",
"l  c #222C2B",
"z  c #292F2F",
"x  c #243425",
"c  c #2B3B26",
"v  c #24332B",
"b  c #2A352C",
"n  c #263829",
"m  c #2A3B2C",
"M  c #333A28",
"N  c #262D31",
"B  c #2B2F33",
"V  c #263231",
"C  c #2A3433",
"Z  c #273A34",
"A  c #2C3C33",
"S  c #2F393A",
"D  c #313D34",
"F  c #323C3B",
"G  c #2D442D",
"H  c #344926",
"J  c #33452D",
"K  c #31492C",
"L  c #2F4234",
"P  c #2F4038",
"I  c #324335",
"U  c #3A4631",
"Y  c #354B33",
"T  c #3C4B32",
"R  c #34433B",
"E  c #3B463D",
"W  c #354A3B",
"Q  c #3C4B3C",
"!  c #3B5236",
"~  c #3E523B",
"^  c #3E583B",
"/  c #414C3D",
"(  c #425633",
")  c #455C36",
"_  c #44523D",
"`  c #49533D",
"'  c #495A3B",
"]  c #4A5A3E",
"[  c #45603F",
"{  c #4D633C",
"}  c #354441",
"|  c #3B4243",
" . c #3B4945",
".. c #3C4C44",
"X. c #3E5346",
"o. c #444E41",
"O. c #434D4B",
"+. c #4A4E4F",
"@. c #445342",
"#. c #4B5543",
"$. c #435842",
"%. c #4C5A44",
"&. c #45544A",
"*. c #4A544C",
"=. c #45594D",
"-. c #4D5C4B",
";. c #535D45",
":. c #535C49",
">. c #4E5A52",
",. c #535D55",
"<. c #545A58",
"1. c #4D6243",
"2. c #4C614C",
"3. c #556245",
"4. c #596447",
"5. c #556945",
"6. c #55634A",
"7. c #5B654B",
"8. c #55694C",
"9. c #5E6A4C",
"0. c #5D724B",
"q. c #4D6352",
"w. c #536353",
"e. c #5B6553",
"r. c #576A54",
"t. c #5B6B54",
"y. c #58685A",
"u. c #5C6D5C",
"i. c #5D7352",
"p. c #5D705D",
"a. c #626D4D",
"s. c #65724F",
"d. c #636D52",
"f. c #646D5A",
"g. c #657252",
"h. c #6B7553",
"j. c #607854",
"k. c #6D7955",
"l. c #64745D",
"z. c #6B735D",
"x. c #6E7D5A",
"c. c #717B56",
"v. c #737D5A",
"b. c #5B6C62",
"n. c #656F66",
"m. c #667565",
"M. c #6B7A63",
"N. c #697964",
"B. c #647469",
"V. c #707860",
"C. c #767B7E",
"Z. c #6C815E",
"A. c #76815E",
"S. c #7A845E",
"D. c #7A895B",
"F. c #758565",
"G. c #7B8561",
"H. c #758A64",
"J. c #7D8A62",
"K. c #73826C",
"L. c #7C856B",
"P. c #778C6B",
"I. c #7B8C6A",
"U. c #79926B",
"Y. c #7B8A72",
"T. c #7F9270",
"R. c #7F917B",
"E. c #808766",
"W. c #818C64",
"Q. c #848D6A",
"!. c #849066",
"~. c #889167",
"^. c #85926B",
"/. c #8B956C",
"(. c #8B996E",
"). c #91996F",
"_. c #888F70",
"`. c #849376",
"'. c #8C9671",
"]. c #839B76",
"[. c #8B9D71",
"{. c #84937A",
"}. c #939B72",
"|. c #8EA16B",
" X c #92A279",
".X c #98A478",
"XX c #9FB17F",
"oX c #899B81",
"OX c #8F9C8A",
"+X c #969F8E",
"@X c #93A482",
"#X c #9DAF91",
"$X c #A5AE84",
"%X c #A6B58C",
"&X c #B2BC87",
"*X c #A4B497",
"=X c #ADBC94",
"-X c #B0BB91",
";X c #A4AFA1",
":X c #AFC093",
">X c #B8C497",
",X c #BCCB9C",
"<X c #B7C9B3",
"1X c #C9D7AA",
"2X c #D2DCB7",
"3X c #D5E4B9",
/* pixels */
"X O X X o X X X o o o o X X X X o X O o X X O X O o X X X X X X X O X O 1 ; X O O O X o X o X X X o X o X X B X X X X X O X X X ",
"X X X X X o o o o X X o X O X X X = O O X X X X = X X X X X X X O O X X X X X X X X o o X X X X X O X   o O o o X X X O 4 X X X ",
"X X X X X o o o o o o a 3 X X O X X X X X X X X O X O = X X X X X = 1 X X X X X X X X X X   X O X X X X O o o X X X X X X X O X ",
"X X X O X X o O X X = X X X X X X X X X O O X o | X X   o o X X i   o o o + X X X X X X O X X X X X   X X o o o o X O X X X O O ",
"X X X X o o X X o X X X O X O X X k X X X X o   = o X X O ; X X O o ; i X X X X = X X X + X X O O X X o o X X o X O X X O X X X ",
"X X X o o o X X O X X O X X X O O O   X O X   O X X X + F X O X O X o o o X   X o o = 1 O X X X X = O X X X X X o o X O X X X X ",
"o O o O X X X   X X o o O X = o o +.  = = O O = i O O ; = = X = ; + = O O O O   ; X X X = O O o O   O X X = O X X X O o o X X X ",
"o o X X O ;   X = o O X X O o O X O = O O = X ;   4 f u 5 p l a p 4 4 ; f o = = 1 = O X = = X =   X   X ; O X X X 1 X o o X X X ",
"o X X X o X O X o o o X O = | X X X X = 1 B 3 3 p f < A d b A A E A R V f 5 4 > = + O O ; X   4 + X O X O O o + O X o O o o X X ",
"o o X X O X X o o X O 1 1 X X = > C 1 , 1 p a F l . b ..  @.2.T W R c 2 4 S l V , ; ; 1 = z O X o O O O o + = O X X X O o o o X ",
"X X X X O O O O | O = O.X O X ; 3 X ; > > f F &.I d K.8.@.Q l.t.9.8.1.& A A A =.&.3 i = =   = O O   + = ; o O ;   o X X X o o O ",
"X O o X X   O O X O ; X ; a = = k = , C O...r.J 6.9.8.j.H.x.x.I.i.] 1.1.] d &.w.0 a a . q >.% ; i O = O O X X X ; i + X O X o o ",
"X ; X X o O a = X + O + O O O O f < 3 f d w.. t.r i.( # 5. XJ.k.k.[.@X#X! c d 8.e v p C a 4 , X O   F k X = O O o o X X X o o o ",
"X O X o X X O O O + O O 1 =     z ; 4 d a @.&.8.{ T Z.c ] H.4.H ^.6.] / -.l.x C D < 5 ; 1 = = 1 = o O + 3 = o = 4 o O X O X O o ",
"o X O X O =   O ; + = O = O 4 X ; $ . 3 K.$ oXy >X/.=X`.,X&X$X>X$X-Xe.(.,X*X' U I S j S 4 > X = 1 X   X X 5 = X X X o + X O X X ",
"X X X o O X X X O ; =   i _ R A $.%._ 3.~ 5.s.i.i.0.0.T  X[.I.@XH.9.q k.0.{ { ].r %.g.( $.m W @.x O 1 i a = O + O ; X + O O X X ",
"X O O o 1 X = 1 k +   = f I.X X X X X X X X o X X X   o     o   X X     o X X X X   X X X X X X M.l O > ; + O O O o O X O O O O ",
"O X X O ; 1 O O     ; O a F.i :.6.E.v.~.v.+ > s.k.v./.).'.S.C X A.v.W./.}.~._.j   G.a.4.#.:.G.u j.0 i > . a =   = X O o = o   X ",
"X o = X   X a + $ . X 1 V l.C ;.d.k.v.G.k.  e.s.G.Q.W.Q.).~.& k W.~./.).(.W.L.. = J.a.h.a.a.h.l `., = f C u ; 1 i   O O o O o = ",
"O o O O u O ; ; 5 f > i p S.E 7.d.v.k.W.D.X I h.A.v.k.~..X}.> 4 A.W.J.J.S.J.L.. . S.A.S.G.h.c.D F.S X 4 p % + ; = = = O O O O O ",
"X o = = 1 = ;   f a ; = s k.v ;.;.9.7.h.c.% @.W.k.h.a.W.}.~.I ; G.G.a.s.S.~./.u.  /.W.W.G.k.A.R 0.l i q x x b > 1 B O o 4 O O = ",
"X O = X ; = + ; 4 A O O v s.0 @.;.7.;.;.;.+ :.W.k.A.h.h.h.W.b , A.k.7.4.S.W.W.%.+ W.~.J.J.J.A.v H.a 1 l > &.E > 1 + X = X l o o ",
"O 5 X O = O + ; O.4 > X * F.R %.7.%.7.4.:.+ ( W.G.J.d.a.v./.2 < ~.9.a.9.h.c.Q._ = W.S.S.A.h.a.C ) X ; % C l , | 1 4 O 4 1 O = = ",
"= X X 5 = + + > C   C 1 R ^.V / 7.6./ %.%.X `.v.W.W.h.h.k./.% A W.h.;.7.h.a.d.y + h.h.h.7.k.#.V F.E 5 e < O k ; > ; 3 O 5 O o o ",
"O ; = z , 4 < + . w.C = e J.f 7.9.%.#.6.@.> P.h.J.S.v.S.S.v.-.b W.k.h.h.k.%.e.`.+ 3.7.a.;.;.7.S !.> + o.m.4 ; < 4 ; 1 O = 4 o o ",
"+ O = 0 ; % ; 3 ..} v 1 L  X5 d.9.4./ 6.d.; T.a.c.S.v.~.h.a.0 d S.4.a.h.c.a.d.# < ;.#.;.%./ 9.f I.r.l d @ V ; 1 4 f 3 ; i O X = ",
"X O = O 5 ; , | - R ..; p 1Xk / #.t.#.:.h.+ Z.c.9.4.h.A.h.;.A d A.3.7.k.A.v.Q.K.X a.6.g.;.#.7.a {.J a R Y.v p f 4 X ; * ; X O X ",
"X + = X + O.; 4 4 A : N 6 D., / Q d.g.7.9.; U.a.;.;.h.c.;.#.b d G.4.h.a.J.A.L.c X k.k.9.4.;.7.; |.{ a m a l $ 0 C a = 3 ; O O o ",
"O X = ,.a   , + C @.b 1 u. X; #./ 7.g.h.:.O A.s.a.7.h.h.9.;.x 0 v.v.W.c.A.S.z.8.O d.g.g.k.h.7.; |.I.f <X4 d % a k < ,.; X O =   ",
"X O 1 0 a O.3 * b ..s u ..(.u 7.3.;.d.7.d.$ T.h.c.c.A.W.c.7.A e c.h.W.A.S.S.z.F.. a.k.h.d.%.#.= 2X&.4 N v ; v ; X a . = ; = X z ",
"O O , < + A 0 > : d R + z  X1 ` 7.4.Q / 7.+ J 9.v.G.A.W.k.7.e @ 3.4.v.v.h.c.z.~ = g.v.h.%.#.#.a  XF a L v > I . > O _ O + X ; X ",
"; = O ;   O 3 < ..=.d f n XX= 6.%.#.E / d.% @X7.9.g.v.v.g.4.@.b./ ;.a.9.9.4.z.{.< g.h.d.#.Q Q ; [.0 a $ s s w &.O X ; X + a O O ",
"> = ; S = F - > < 0 l = P k.= / / _ ;.7.d.> 8.%.4.7.a.a.h.g.A $ a.4.7.9.h.9.V.I.$ A.d.7.#.Q / + :X,.d R 0 0 l a d O ; ,.= = X + ",
"X X O X V d . $ b =.q.+ d :X; Q / @.4.a.d.; @ %.#._ 7.7.;.7.x . s.a.7.3.4.7.z.%.+ 7.d.;.#.%.;.= =XB.m.v D : ; - < 5 O > = O X X ",
"X > ; > = s ; , 4 l ~ + X..XX @.o.#.%.d.g.% 6.7.%./ #.#.4.@...$ ;.7.;.;.4.4.z.t.+ 3.;._ @./ @.; =Xj . ; A $ p w.; a = > = h O O ",
"= O O ; + 4 p v ; d s = =.1XO / Q 9.4.4.6.+ v %.:.;.7.#.%.#., * 4.;.g.9.;.#.:.Z = ;.#._ / #.@.o  X%.3 V < C < F   + ; + = ; O O ",
"1 ; 3 * + F a < $ O < i q.%Xd.U K.M V.f.d.;.d.-.7.I.%X` d.K.M.Y._ {.9.s.' T L.@X#.:.3.'.6.U ;.:.3X0 , v > < U + 0 ; a ; a O = X ",
"+ X + + O . a 4 C A ; ; - R 9 u.W q.2.n @ [ i.H ^ 8.]./ G ! j.Z.K ) C Q 9 t.r.1.$.. b $.~ K w 2.#X. 4 a $ *X  * + , * ; 4 O O O ",
"O 4 O < = + > 3 p . R.a O O o o     X X X X   X   O O     X o       X o o O X X   = X o o     X   X X A , 0 . > O ; . = = X O O ",
"+ = X = * ; < < + $ 4 8 p 3 o.n   $ > v } g A b Q . w.*.v  .@.e < 0 4 l.p n Y.> v . S d 3 < ..; , > ; ..l p ; + 4 X + O = O O O ",
"O O = = < ; a ; O > z f  .q O l.>.8 A ..w : N.G A W 8.Y v x Q 5.8 ~ F.@  Xr.> # 0 b A v G =.& A . q : . 5 - < > ; 1 k = O O ; + ",
"O + = + ; O $ + + l $ d Q v . ; Y Q q.> 0 6 g W d R v {.- Z e @ N.I ' 8 ^.e r.L @.9 %.e., 9 I p.d - *.+ - $ ; O > > O = X + O O ",
"O ; O O ; = % > a - - 3 . p q.p - C $ v R n @ b.A . 8 $ X.7 p s t W C ..< B.W @ I 0 < < x - Y v $ 4 ; + X $ > + 1 5 ; * X O O O ",
"+ O = = O >   z X - $ ; p 3 : . I C ..X.n < & < c 0 @ 6 R 0 v & @ A s 7 < m s v d W s F A & > . 4 C 5 k 5 5 > + + + ; + + O O O ",
"X X O 4 ; +   + $ + - ; a a 4 0 b . l E + s O . - w 0 ..0 > % I E @ I - x d q 6 v . A e O Q 2.O . > 3 $ n.< 3 ; = O > + O ; O O ",
"X = O O ; $ + ; 4   $ p < a . . d $ 0 v - 0 b 3   ; s < d ; d f ; O 2 - 8 $ 4 } R ; E < R Q $ % X % + u.; + + O O + O = + + O O ",
"O O O O O + > + ; > > > 3 + 3 . + ; < ; < . . s $ - > p - a d d . @ p 0 . < E d $ p ; F 0 _ % 5 > ; ; b + > + ; O O = = = O O O ",
"O O = = X = = + + ; ; + > ; + ; l > ; 0 4 2 } ; d ; ; < ; $ < 0 ; . p d < 0 > < > OXy.d < $ Z . 3 + > > $ + ; ; O + + = X + O = ",
"+ = = = O O = ; + ; $ > + > < + < ; 5 < 4 . X < + > O - + 4 $ X w . z O A Q O v % . 4 * a $ ; $ + < ; ; ; ; X + + + O + + 1 O O ",
"O O X ; ; = O X + ; ; ; ; ; ; + ; + + ; X ; % &.  < . ; > 4 4 + 5 X ; . l . 4 5 3 + $ 0 0 < - z + + ; ; + . . = = i + = + = O O ",
"O O O O ; O = , O + + d , = ; ; + ; ; ; $ + > + - $ + < ,.OX@.+ 3 l > ; 3 0 p X O X . ; 4 $ < ; + + + 1 = X O + + = O O O = O O ",
"O + O O = = + O ; X ; = + $   *.; . - + ; > % a X ; O X X + 4 X 3 + ; . ; X ; + + * ; , $ + ; a .   + 1 O < ; ; ; + O + + O O O ",
"O O + O + O = = + O O + + + + ; + ; + ; 5 $ + + $ ; ; ; > + + ; ;X+X. ; + + + $ > X $ 1 ; > $ ; ; = = X % > <.    O = = O O O O ",
"O O O O + + O O O f O + + + + + + $ . + + - < + X + + ; + $ + > > X + + ; + + + $ ; f ;   $ ; 3 *.= = O X + O O O . O = + O O O ",
"+ + O O + O = + O 3 + + ; + + = + + = = + + 1 + + ; ; ; + 3 + + + $ $ $ + 0 . ; + + + + ; > + + + X = + + O = + = O = = = O O X ",
"O O O X = O + = O = = + + + = O + + + ; + + ; O ; + ; ; + + ; + + + + X $ + ; + l + + + + X + % + = O = O + + + O O O + + O O O ",
"+ = = O + O = = + + + + F = = O + + + + X O ; C ; + + + + + + + + + . + + + + ; + + + X X O = + O = = O = = + = + O O O O O + O ",
"O O + + O + O O = + + + + + = O = ; O > + + + ; * ; + + + X + + + + + + + + + + + + O + + = + O + + = = + O = + = + O + + + O O ",
"O O = O O O O O O + O = + = X O > O + = + + O = O + + + = O = + + *.+ ,.O = = > O = O > + = = + = + = = = O + = = O O O O O O O ",
"O O O O + + O O + = O + = + O X O O * = O O O + + = + + + = + + + * + + = + + = + + + + O = O X = O + O + + + = + O C.+ O O X O ",
"O O O O + O O + + O O + + + = O = + = + + X = = = O 1 + + * + = O + + + + + + + O + + 4 . O + = + + + + + + ; + + O = O O O O X ",
"O O O O O = O + + + = + = O = O = = + = + + + O O + = = + O O + = O + + + O O + + O = = = = = + O = + = + = = + + = O + O O O O ",
"O + O O + + + = = + + = = O O O O O O O + + = = O O O = + = O = = = + + = + ; O + O O O = = O = + O O + = = O O O 1 O + O O + O ",
"O O O O O O O O O O = + + + + O = + + = + + + + = + + + = O = i + + + + + = O + O O O = = = ; ; = ; = = ; = ; = + = = = = = = = "
};
