/* XPM */
static char *_7bacad2654144b4d24c1a5000803653W6Mztmjaz3AQ3H7k[] = {
/* columns rows colors chars-per-pixel */
"64 64 86 1 ",
"  c black",
". c #2F2F2F",
"X c #323232",
"o c #383837",
"O c #3B3B3A",
"+ c #434343",
"@ c #484747",
"# c #4C4B4B",
"$ c #4F504F",
"% c #51504F",
"& c #525252",
"* c #575857",
"= c #575858",
"- c #5B5C5B",
"; c #615F5E",
": c #5F605F",
"> c #636463",
", c #686766",
"< c #676867",
"1 c #686867",
"2 c #676968",
"3 c #6C6D6C",
"4 c #716F6F",
"5 c #6F706F",
"6 c #70706F",
"7 c #6F7070",
"8 c #737373",
"9 c #787777",
"0 c #777877",
"q c #777878",
"w c #7C7C7B",
"e c #837F7F",
"r c #7F807F",
"t c #81807F",
"y c #7F8080",
"u c #848484",
"i c #8A8686",
"p c #8A8887",
"a c #8C8B8B",
"s c #928E8E",
"d c #959393",
"f c #989797",
"g c #9C9C9C",
"h c #A99292",
"j c #A19E9E",
"k c #A0A09F",
"l c #A1A1A1",
"z c #A7A4A4",
"x c gray65",
"c c #ACA5A4",
"v c #AAAAAA",
"b c #ACA9A9",
"n c #ACACAC",
"m c #B0A7A7",
"M c #B0A8A8",
"N c #B3ACAC",
"B c #B0AFAF",
"V c #B6AFAE",
"C c #B8AEAE",
"Z c gray70",
"A c #B4B3B3",
"S c #B7B7B7",
"D c #B9B0B0",
"F c #B9B2B2",
"G c #BABABA",
"H c #BEBBBB",
"J c #BCBCBC",
"K c #C4BABA",
"L c #C4BCBC",
"P c #C8BEBE",
"I c #C3C2C2",
"U c #C4C2C1",
"Y c #C5C4C4",
"T c #CEC5C5",
"R c #CBCBCB",
"E c #CCCBCB",
"W c gray80",
"Q c #D3CACB",
"! c #D8CECE",
"~ c #D0D1D1",
"^ c #D3D4D4",
"/ c #D4D4D4",
"( c #D4D5D5",
") c #DBD3D3",
"_ c #DFDBDB",
"` c #F1F0F0",
/* pixels */
"o.ooX.+O==->==3w8qprdfd99ZSRxnY(~(W(vZlpffggfup8q238<<2=&@#&&&@@",
"XXXX.XXoX++@@>>iirwwuwdZvUHnUSYEGYRYYbHHUabbccaxjxx>xxjj$add&eap",
"  +    8    d    g    s    p    3    M   u    x    v    #   w   ",
"  +    @    g    g    d    l    8    V   s    l    S    &   8   ",
"  +    @    a    d    s    p    >    P   a    J    x    #   3   ",
"  +    3    x    g    p    u    >    L   l    J    v    #   3   ",
"  +    9    g    k    d    a    2    K   p    v    g    -   3   ",
"  @    w    n    l    s    d    4    C   u    x    g    <   6   ",
"  @    p    (    x    i    n    4    M   9    x    a    >   6   ",
"  #    8    Y    p    i    Z    u    D   q    g    b    *   3   ",
"  #    w    S    u    s    g    8    V   9    a    g    <   3   ",
"  &    2    x    p    w    d    u    C   u    u    v    >   w   ",
"  =    y    n    a    w    p    u    C   3    d    G    >   w   ",
"  &    q    Z    B    9    w    p    V   p    w    S    >   9   ",
"  &    2    A    n    8    u    i    V   8    q    Z    =   3   ",
"  &    2    Z    d    9    p    i    V   3    a    x    <   3   ",
"  #    >    l    g    8    5    4    C   >    a    k    =   3   ",
"  #    -    g    g    8    9    3    D   3    u    k    *   3   ",
"  &    *    l    a    8    >    -    D   a    u    d    *   3   ",
"  @    8    g    l    8    <    3    V   5    w    d    &   6   ",
"  @    #    d    l    8    <    4    m   9    w    p    *   <   ",
"oXoo..OO*=--==3w9wprdgf99SSRvnW^W^W^vSxpdgggdpp8q338222-&@#&&&@@",
"oo.XXo+oo&%&@;;iirpiipdPQ!Tx)Q))n(`Q_xQQ)phhhhpLVPT<LLDD@cMD*fDx",
"  +    8    d    k    d    p    <    m   p    x    x    #   w   ",
"  +    @    g    g    d    l    8    m   s    x    S    &   8   ",
"  +    @    a    d    s    p    >    M   a    J    x    #   3   ",
"  +    5    x    g    p    r    >    D   l    I    n    &   3   ",
"  +    q    g    g    l    d    >    M   p    v    g    :   6   ",
"  @    w    n    l    l    d    4    m   u    v    g    <   6   ",
"  @    p    (    x    t    G    u    M   u    x    d    >   3   ",
"  #    8    U    a    i    v    w    D   9    d    x    =   3   ",
"  #    r    S    u    l    g    3    c   9    a    g    2   8   ",
"  &    2    v    p    a    l    a    m   d    p    v    >   w   ",
"  *    r    n    d    d    p    u    D   5    d    S    :   w   ",
"  &    9    Z    n    8    u    p    V   p    w    S    -   3   ",
"  &    2    n    v    8    u    p    c   0    q    Z    -   6   ",
"  &    2    Z    d    q    p    u    c   5    a    x    >   3   ",
"  #    >    l    g    8    3    3    B   >    a    k    =   3   ",
"  #    -    g    g    8    8    3    D   3    u    k    *   3   ",
"  &    =    l    a    8    >    ;    m   d    p    d    *   3   ",
"  @    8    g    x    8    2    3    c   <    w    d    &   5   ",
"  @    #    d    l    9    <    3    V   9    w    p    &   1   ",
"X.o...oO**=--=8wqupudggq9vGSZGIWWRW(xGnpdgxgdpw39888223=&##&&&+@",
"SUo    @    *    s    p    p    3    c   q    p    w    @   ,   ",
"  +    8    f    l    p    p    =    m   p    x    l    #   w   ",
"  +    @    g    g    a    l    >    D   a    v    Z    &   3   ",
"  +    #    p    a    u    p    =    b   s    J    x    +   3   ",
"  +    5    k    g    p    u    *    m   l    I    B    =   3   ",
"  +    q    f    x    p    d    *    x   u    v    x    :   8   ",
"  @    w    n    x    p    d    -    B   u    v    d    <   3   ",
"  @    p    ^    x    u    v    <    D   9    l    d    >   3   ",
"  &    8    Y    p    u    Z    8    M   q    g    Z    =   3   ",
"  #    r    S    u    p    f    >    c   w    d    d    2   8   ",
"  &    3    n    p    8    s    8    D   9    p    Z    >   w   ",
"  *    w    n    d    w    p    9    D   3    d    S    -   w   ",
"  %    w    Z    B    9    w    9    V   p    w    S    >   3   ",
"  &    2    S    v    8    w    q    c   5    q    Z    =   8   ",
"  &    2    Z    d    q    p    8    c   9    p    x    <   3   ",
"  #    >    l    g    3    7    >    D   -    a    k    *   3   ",
"  #    -    l    d    8    8    -    D   3    r    g    *   3   ",
"  &    *    l    a    7    <    &    m   p    u    d    *   3   ",
"  @    5    g    g    8    <    -    m   5    u    d    &   3   ",
"  @    #    a    g    8    3    3    C   q    9    r    *   <   ",
"XXXXXooXo#*><>>rrqrpda2=<3agk5rplaaqdgapapq929w9<>q>-3&@&@@++oXo"
};
