/* XPM */
static char *_689104b35cf4e9ade8286df001ebc0cZ99LxzqgOcYyy9GD[] = {
/* columns rows colors chars-per-pixel */
"64 64 235 2 ",
"   c #020303",
".  c #0A0603",
"X  c #020806",
"o  c #0D0906",
"O  c #010609",
"+  c #090708",
"@  c #040A0D",
"#  c #0C0B0B",
"$  c #130B06",
"%  c #190D05",
"&  c #140D0A",
"*  c #190F0B",
"=  c #0D100F",
"-  c #15110D",
";  c #1C120C",
":  c #060E11",
">  c #090E12",
",  c #120F10",
"<  c #0B1215",
"1  c #0A1416",
"2  c #0E1619",
"3  c #151312",
"4  c #1A1513",
"5  c #191817",
"6  c #1B1816",
"7  c #11161A",
"8  c #13191D",
"9  c #1D1A1A",
"0  c #23140D",
"q  c #26160C",
"w  c #29160E",
"e  c #2B190E",
"r  c #321A0E",
"t  c #38190C",
"y  c #231611",
"u  c #2A1710",
"i  c #231813",
"p  c #2C1A12",
"a  c #221D1B",
"s  c #2B1E1A",
"d  c #331D13",
"f  c #3A1E13",
"g  c #331F19",
"h  c #1F211F",
"j  c #25211F",
"k  c #2A221D",
"l  c #352116",
"z  c #3B2216",
"x  c #34221B",
"c  c #3C241A",
"v  c #151D21",
"b  c #181E23",
"n  c #0F2523",
"m  c #172024",
"M  c #1A2225",
"N  c #1C2429",
"B  c #1F292D",
"V  c #252322",
"C  c #2A2523",
"Z  c #2D2926",
"A  c #24272B",
"S  c #222A2E",
"D  c #2D2C2B",
"F  c #362724",
"G  c #332A24",
"H  c #3B2B23",
"J  c #322D2B",
"K  c #35312E",
"L  c #3A312D",
"P  c #242E32",
"I  c #292E32",
"U  c #263134",
"Y  c #293236",
"T  c #263539",
"R  c #2C353A",
"E  c #2E393D",
"W  c #333232",
"Q  c #3B3533",
"!  c #3D3A36",
"~  c #30373D",
"^  c #313A3E",
"/  c #3D3A3C",
"(  c #441F16",
")  c #442415",
"_  c #42251A",
"`  c #44291D",
"'  c #492818",
"]  c #4C2C1C",
"[  c #572C19",
"{  c #522E1D",
"}  c #55311E",
"|  c #5B321E",
" . c #62331E",
".. c #442D24",
"X. c #4B2E22",
"o. c #402E2A",
"O. c #4E3124",
"+. c #44332B",
"@. c #4C352C",
"#. c #543221",
"$. c #5B3422",
"%. c #53342B",
"&. c #5B392A",
"*. c #473934",
"=. c #423C3B",
"-. c #533D34",
";. c #5B3E34",
":. c #643623",
">. c #6A3623",
",. c #653926",
"<. c #6A3A25",
"1. c #643C2A",
"2. c #6A3B29",
"3. c #743D27",
"4. c #743E26",
"5. c #48433D",
"6. c #594338",
"7. c #5D443B",
"8. c #6E422E",
"9. c #78432B",
"0. c #7B432C",
"q. c #694638",
"w. c #64493D",
"e. c #794834",
"r. c #2F3A40",
"t. c #343D42",
"y. c #383F45",
"u. c #364145",
"i. c #394245",
"p. c #3B454A",
"a. c #3E494C",
"s. c #444445",
"d. c #4A4847",
"f. c #424B4C",
"g. c #594B44",
"h. c #524C4B",
"j. c #58524A",
"k. c #454D51",
"l. c #495152",
"z. c #5A5655",
"x. c #674E43",
"c. c #754D41",
"v. c #675348",
"b. c #745649",
"n. c #635A55",
"m. c #685D59",
"M. c #745D52",
"N. c #68625D",
"B. c #7B6458",
"V. c #6B6462",
"C. c #696765",
"Z. c #766B65",
"A. c #746D6A",
"S. c #6C716D",
"D. c #77736C",
"F. c #7A7674",
"G. c #803E24",
"H. c #86462C",
"J. c #894B32",
"K. c #924D30",
"L. c #964E34",
"P. c #995337",
"I. c #A04D2D",
"U. c #A85839",
"Y. c #B65A3A",
"T. c #B4623E",
"R. c #CA673E",
"E. c #8D5443",
"W. c #9E6144",
"Q. c #82685C",
"!. c #B76747",
"~. c #A76853",
"^. c #846D62",
"/. c #8A766A",
"(. c #93786B",
"). c #8B7A72",
"_. c #857D7B",
"`. c #947D73",
"'. c #9B7F73",
"]. c #C66847",
"[. c #D06F4A",
"{. c #CC7454",
"}. c #D77854",
"|. c #E0754B",
" X c #E17B58",
".X c #CC7D62",
"XX c #88817D",
"oX c #99867C",
"OX c #EB8159",
"+X c #D1866A",
"@X c #DA9578",
"#X c #E78A68",
"$X c #E9926E",
"%X c #EA9877",
"&X c #F39875",
"*X c #8B8482",
"=X c #8B8987",
"-X c #988B84",
";X c #938C8A",
":X c #99918D",
">X c #979691",
",X c #9D9593",
"<X c #A6938B",
"1X c #A4938C",
"2X c #AA978F",
"3X c #A29A96",
"4X c #AB9B94",
"5X c #AFA19B",
"6X c #B3A49D",
"7X c #ADA5A3",
"8X c #AEA9A4",
"9X c #B1A9A6",
"0X c #B5ADAB",
"qX c #B8ABA8",
"wX c #B8B1AC",
"eX c #BCB7B4",
"rX c #DB9D8D",
"tX c #E7A287",
"yX c #F6A687",
"uX c #EDAF99",
"iX c #F2AC91",
"pX c #CDABA2",
"aX c #C3BBB8",
"sX c #F0BAA3",
"dX c #C7C1BD",
"fX c #FCC9B1",
"gX c #CBC5C3",
"hX c #CDC8C7",
"jX c #D2CDCB",
"kX c #D5D2CF",
"lX c #DAD5D3",
"zX c #EDCDC2",
"xX c #E1DEDD",
"cX c #E6E1DE",
"vX c #F1EDEA",
/* pixels */
"eXC I t.u.p.a.a.eXQ i.p.a.k.u.a.vX! u.p.k.a.a.gX=./ t.u.u.t.t.t.E gXK t.$XyX(.B.'...H jXQ c p y 4 q b m F.V.3 b v m m v v v 5.D ",
"dXC I t.i.p.p.a.eX! ^ k.u.^ i.k.vX=.u.u.a.u.p.xXQ / T t.u.r.t.t.T dXK @XfX{.aX6X..@.o.xX! y ; 4 ; * _ M S.h.4 v v m v v v 8 K C ",
"wXC I t.t.t.p.p.hXQ u.u.t.t.t.f.lXQ i.t.i.u.u.jXL D t.t.t.t.u.=.sXaXQ 1.sX .aX5Xv.F +.kXJ & ; *   * $ 0 6Xh.3 m m v v 8 2 8 ! j ",
"N.j S ^ t.i.t.p.>XD i.p.t.u.t.l.A.L t.T u.u.r.hXQ A E u.t.pX&XyX[.9XQ @XyXG.4XoXH 4 4 jXC * * . + $ y ; 3Xs.4 v b v v v v v Q C ",
"8XC I ~ t.t.t.i.*XJ t.t.u.^ t.f.jXK t.u.u.t.t.lXG A ^ t.iXOX|.iX_ 0XL .XyX!.. oX@...F lX! ; & . o ; & * 3Xs.4 G v v v v v 8 Q j ",
";Xa S ^ t.t.t.^ >XJ t.E E ^ t.f.hXG t.t.p.t.i.dXG Y n.sX$XU.#XH.d 3XQ +X%X}.. a H x x xX=.& $   & ; * * ,X/ - p d v v v 8 8 Q 9 ",
"8Xj I t.t.u.t.t.,XZ u.^ R ^ ^ k.jX=.u.^ t.t.t.aXL D fXiXtX1.iXc c aX! iX&X$X; 4 x p 6 cXQ $ . . & - * * -X=.- u r 0 v v v 2 K a ",
"j.a I t.^ t.t.t.;XZ i.^ t.E t.f.kX=.u.t.t.E E 9XJ L yX&XU.#.&Xy { aXK %X}.yX{ $ H c x cX=.$ $ - % * ; ; XX=.3 q g d z 2 8 8 J 6 ",
"F.- I t.t.^ t.t.F.C t.t.t.i.t.l.kXQ u.u.E E t.hXQ J #X}.H.$.!.; 2.7X! $X].$X) * H @.H wXJ ; o y ; ; 0 0 Z.=.& u e e d l 8 8 D a ",
"5.9 A ^ ^ R t.t._.C t.t.t.t.y.l.eXC u.t.E u.t.hXL x |.Y.e.U.c g 4.aXJ #X#X}.} q g 6.v.lXL g ; p ; 0 0 0 n./ & e p w p p l 8 ! 9 ",
"D.6 S I E t.^ E F.j t.t.^ u.t.l.3Xi E t.E T t.9XQ p 4.].8.T.p ` J.gXZ {.%XK.9.3 p w.B.aXG @.>.c q 0 q ; n./ & p p u u w g ; D 6 ",
"Z.& R R R t.t.t.D.j ^ E t.t.t.k.0XC E E E R t.hXJ 4 K.U.8.U.q X.U.aXK $XyX. . ; _ w.^.gXK c W.,.p p q 0 m.Q & d e w e w p w D 9 ",
"D.& S R Y ^ ^ ^ C.a E E t.t.t.f.7XV E R ^ P E aXZ ; K.P.,.W.y $.U.,XK %X_ 0 0 c %.` B.aXQ {.* . y w 0 % n.=.& f w w e d ; d D 9 ",
"5.o Y R Y R ^ ^ C.C R E t.^ R f.;Xk R T R R T wXJ & H.0.2.J.p $.T.G 3 1.d $.' X.) ) M.3XJ U.f ; ; ; 0 * g.=.# f w w p f * ; W 3 ",
"h.& I Y Y R ^ ~ d.a Y Y t.t.E k.;X6 Y I E T T aXZ 3 0.4.0.L.u ,.U.3Xa 2.O.>.9.` X.) b.;XZ !.H.; ; ; 0 q *.j.& f e w p r 0 ; Z 6 ",
"C.& I Y U Y R ~ z.a ~ Y T Y T k.=Xk Y Y U U P hXD 3 e.$.K.P.p 2.P.kXZ 0.| e.4._ c _ 7.A.Q K.  ; p w q w L z.# w e q p u w ; D 4 ",
",X# I R U U Y R h.a ^ U U T I s.V.a U P U P B eXC - 8.$.0.!.p ,.L.aXk 0.,.0.0.$.` _ +.*XJ P.o p w f c f G j.& q w w e   u e C 3 ",
"=X3 A U Y U I Y C.9 U Y Y U U f.m.a T T U B rXeXJ & #.] 2.T.p 1.J.m.a 9.<.&.>.9.f z L V.G   y p p c f z H h.# q w w l o q e C - ",
">X& S Y I U Y Y z.a I P T U I s.N.j S U P P ].0XC # p ] ] {.d ,.H.d.K 2.2.,.#.J.g z E.,XJ ; p g c d c _ H j.& w e w d $ p 0 V 3 ",
"C.3 A I I I U Y s.a I I Y U I i.h.a P P T T $XeXJ & & ] ` [.l ,.0.;XV | $.$.{ 9.z e b.;XG 0 f z z c f z H h.& p w q w ; e 0 Z 3 ",
"C.& N S S S I U s.9 U P Y Y I / d.a U Y U T #XgXC & . ' z [.z ,.4.0XD <.$.,.' >.] K.q.A.W g z ` z z ..` H =.& e w e q e p o C 3 ",
"C.3 M M M S I Y d.9 I Y Y U I / m.& I U T =.%XgXa 4 . _ z R._ $.:.:XJ } } :.) 4.$.P.. h.Z f f ` f f r _ +.s.& p 0 0 * p 0 o V 3 ",
"z.3 b M m S I U d.9 I Y P Y Y i.j.6 P I Y #X#X;Xa 0 . z c [.' } <.9Xj } 0.$.$.$.$. .$ ;Xj f c f c ` _ ` x h.o e p p . d * % j - ",
"S.3 8 8 v S I I s.6 P U P E P ^ A.6 I U P #X#X;XV p * o l ].} } >.aXZ 4.e.] } 2.].* ; d.o e z z z z e r k z.o u w w * e & 0 h - ",
"=X# b v N N S S / 6 S I P I I R =.3 U P I #X$X*X9 u 0   l 4. .' :.;XC 0.} ' $.} t * p 3XJ l z r z r d g G z.& ; d p p 0 . p 9 3 ",
"z.3 8 v v M N N D 6 B I P B P D z.6 P P P tX%X;Xj f g   l z e.{ $.wXC  .} ] { <.o ; l wXj d f q g f x d y j.3 q e 0 d * . e 9 - ",
"j.# 8 8 M v b N W 6 M I P S P D _.3 N B sXuX XXXZ ) c & y g H.$.' _.K } | ) ' H.; w c hXa d e ' #.#.d g s =.- f g & 0 . 0 d 6 - ",
"z.# 8 7 v v N m W 6 8 N B S S D V.3 N P tXuX}.V.J z z ;   p L.1.' XXC <.} c ] J.p u c V.V d f ` c O.` e p =.# p r   & . e r 6 - ",
"! # 8 v v N b M D 4 M B B S S A n.6 P I tX@XY.F.C w ` q . q P.$.] *XC <.] z ] 9.y q x ,XZ d X.f w ) _ d p ! - f d * . 0 r r 9 - ",
"N.& 8 m M 8 v N Z 6 m S N N S V 9X6 N B zX X}.F.C 0 p p & ; U.[ ) 9XC >.{ d { 4.q p p gXa f d f _ ) _ q p Q o g ; o o p f e 9 - ",
"5.- 8 M v 8 v M V 4 m B N N N h 0X6 N 3XL.J.Y.n.9 +   ; * * I.4.' :Xj 4.X.e ] 9.p p p 0XC g p z f f c q y / & q ;   0 f z ; 9 3 ",
"Q & b v v v 8 M V 4 M b m N N M _.6 n - $ p e V.j o     0 * P.4.] =.a ,.e e ] 9.l p g *XV w p z X._ g p 6 ! & ;   o w f e * 3 3 ",
"k # 8 M v v M M V 6 B b N M v 9 h.3 ( q y 0 ; z.j # * o . p 0.0.#.XXj $.p c ] >.p p x aXC p g p ` X.l p 4 ! - p   * e d q ; 3 3 ",
"Q . 8 v v 8 v M 9 - N M N v v 9 W a ' g d p p h.V & o +   . w 9.$.;Xa #.p ' z 2.; u x hXj 0 p p f c p ; - / & p   ; $   q 0 9 - ",
"h.& 8 8 8 8 v v 9 - M m M 8 M 9 V.6 ].I.H.| ] =.9 y q . . & p H.$.7Xa z 0 _ ) <.0 u x 7Xj ; p e z z w ; * 6 3 0     ; w 0 o 3 3 ",
"5.+ 2 7 8 8 8 8 9 & v v M v M 9 z.6 {.H.4.,.>.h.a p z ;     p L.| _.J g ; ] l 2.p $ p 7Xj - p p f r 0 - & =.- *   . .     . & - ",
"G + 8 7 8 8 8 v 8 & v v m v v 8 z.6 .X].[ 2.>.d.a c $.c ;   0 K.} s.K g d ` c $.0 % p 7Xa * 0 e l e p - 4 J - o   ; * o . o , - ",
"Q o 8 7 2 8 v 8 3 & 8 8 v v v 8 m.9 rXY. .,.>.=.9 X.).x.i     H.8.*XQ ; f g f | $ ; p ,Xj * 0 p f f q & 4 Q 3   o 0 o % o ; , - ",
"! # 7 7 2 2 8 8 3 & 8 8 8 8 8 8 J 9 @XH.| ] #.5.9 G -XoX+.&   H.1.A.J 0 f g z { * p p =Xa $ ; w d d p & ; Q +   . # x x # $ # - ",
"Z # 7 7 7 2 8 8 3 & 8 8 v 8 8 7 =.9 +X4.$._ _ Q 6 N.1X-XoXa + ;. .F.3 ; _ p c ] 0 0 p V.j * ; w w e ; $ ; J +   o ; .._ 4 0 , & ",
"Z # 7 < 7 7 8 8 3 & 7 2 8 2 2 7 V.9 +X2.]     K 9 F.1X4X4Xw.&   >.Q V 0 f p d ' p * p 0Xa * * q u q ; o * C &   4 p c g ; - , & ",
"s # < 7 < 7 7 8 , & 7 2 2 8 2 3 5.9 [.l .     J 6 _.5X4X<X2XH   ) ! D 0 z p d z 0 ; y G 4 * * 0 0 c ; o ; V -   4 x x p p * & & ",
"k + < < 2 < < 2 > & 7 2 2 2 2 7 C 3 1 3 . .   C 9 _.6X9X9X5X4X4 u C Z ; e 0 e f ; * ; A.9 & * q y p * 4X6.Z o o H x c u p y 3 & ",
"Q # < < < < < 2 # & < < 2 2 < 3 =.V < 1 < < 2 D 6 _.4X4X5XwX9XwXQ.W J 6X(.* 0 e 0 * ; A.j & $ % * q * `.x 6 # k g ` u 0 y ; # & ",
"6 + < < < < < < + & < < < 2 < < / 9 > > 1 2 2 Z 6 g.oX<X<X<XwX6X5Xa a `.^.O.; 0 * & ; *Xa & o * 0 0 oXM.g a # %.g 0 * 0 * 4 3 & ",
"4 + @ > > < < < + & < < < < < < J 6 < 2 < 2 2 C 6 C B.).<X1XeX5XB.Q & H (.` % * & o & ,Xa * + & * q wXM.c 9 o 7.;.% * * * O # # ",
"4 + > > > > < > + & < < < : > < =.9 2 < 2 < < C 9 > x.oX-X1XoX^.g.K D v.B.X.. . . & o F.C - . o * % eX6.g 3 + oX(.&.* * & O # # ",
"4 + @ > > > > < # & > < < < < < C 9 < < < < < a 9 : : x.-XwX`.`.M.Q 9 M.oX%.. . o . . =.J - o o * & qXw.%.^.Q.`.c.$.* * O O 3 # ",
"6 # # @ > > > > # # < < < : : @ Q a > 2 < < < V & @ : < 1X`./.Q./.oX9 3XQ.... . .   + _.D % o + . * w.^.B.oXc.&.%.g * @ O O # & ",
"3 + # > > @ > > + # > < : < < = a 6 < < : < : j 3 : : : : x.;.B.`.oXQ.:X@.p . . . o . F.V % & . o * ; @.(.x.%...x %.p O O O o & ",
"3 + + @ @ @ @ @ + # > : > : : 7 V - : > : @ : 6 # > < : < B.+.7.B.).^.u ..0 . . .   . A.3 * $ . o * * ;.B.&.g * 6.b.1.    O + o ",
"3 + + @ @ @ @ @ + o : @ > : : 3 j 9 < : : : > j & : : : 7X/.B.s 7.^.Z.0 =X%.o . . . + G 9 * & . . o * `.;.p F w.w.(.]       + o ",
"3 + + @ @ @ @ @ + o @ @ : @ @ 3 a 9 : : : : > 6 # : : : oXx.v.x.6.w.x.& _.%.* . . . + Q V * & $ + . * Q.x.@.v.;.;.g y       + o ",
"3 + + + @ @ @ @ + o @ @ @ @ @ # 6 + @ @ : : : a & @ @ : : c 7.v.^.v.X.. +.0 ; o . . + C V ; * $   o & w.w.-...x y ..4       # o ",
"3 + + + @ @ @ @ + # @ @ @ @ @ > 3 + O @ : < @ 4 3 @ @ @ @ x.F *.*.6.v.y $ ; p * . . . C 9 % $ * . & o /.@.H * 6.@.b.y       # # ",
"# + + + + + @ @ + o @ : @ @ @ # - . @ O @ @ @ ! - @ @ : : ^.g.*.s +.+.* * q f 0 . . + 6 6 * $ * + $ o /.@.7.w.&.7.6.        # o ",
"3 + O O O O O @ + + @ @ @ @ @ 3 9 + @ @ @ @ @ V & O @ @ @ x -.v.n.m.x & * w f u . . o J + * & * o o $ b...-...p x x         # o ",
"> + + O O O O O + + @ @ @ @ @ = 9 + @ @ @ @ O 9 o O @ @ @ -.F L 7.v.j.p ; w f p . . o D C * & $ $ o * ^.p s s @.*.;.        # o ",
"# + O O O X O O + + O @ O O O @ 9 3 O O O O O 6 # @ O @ : E.-.x.*.x G & w q d d o . & J 3 * & * $ . * * B.@.6.H x y         # o ",
"# + O O O O O O   + O O O O O # 3 6 O O O O O 3 o O O O + E.8.x.^.v.y 4 q q g d o . - D D * $ * * . % ; H p # $ .           # . ",
"# + O O O O O O + + O O O O O # 9 3 O O O O O 6 # O O O ~.e.8.O.6.Z.* % 0 u p e &   - W D * * * - . % * * V # $ .           & # ",
"# +       O     + + O O O O O # 3 3 O O O O O 3 3 O O O ~.e.q.` ; s # * 0 0 d d ; + - J Z ; * % * $ o * & 9 o o .           # # ",
"+ +           O + + O O O     # 3 3 O O O     6 # + O O ~.e.&.c ; 6 # * ; 0 d f $ . 4 C D * * $ * * . % & 9 + o .           + o ",
"+ +           O . + O O       + 3 3 O   O   O 3 &       E.1.&.g * 6 3 * ; 0 r z *   * C D * % o * * . * * 6 + . .           + # "
};
