/* XPM */
static char *_249c2c8b644453ae32f8bae9c9b872fSTtid5M50YbPad48[] = {
/* columns rows colors chars-per-pixel */
"64 64 182 2 ",
"   c #311E1A",
".  c #2A571F",
"X  c #315A22",
"o  c #2E6523",
"O  c #347929",
"+  c #446437",
"@  c #51744A",
"#  c #F9770F",
"$  c #F5752E",
"%  c #F26935",
"&  c #F27133",
"*  c #DE685B",
"=  c #ED6842",
"-  c #EC7748",
";  c #E67757",
":  c #E36E57",
">  c #DC6D63",
",  c #DA7469",
"<  c #CA737A",
"1  c #CD7D7A",
"2  c #C97571",
"3  c #D27573",
"4  c #D16D70",
"5  c #E27E60",
"6  c #3E8A2F",
"7  c #419C34",
"8  c #419633",
"9  c #44A537",
"0  c #45A53A",
"q  c #49A43E",
"w  c #508649",
"e  c #639F5F",
"r  c #46A543",
"t  c #4AA444",
"y  c #47A548",
"u  c #49A44B",
"i  c #53A24D",
"p  c #4BA454",
"a  c #4DA35B",
"s  c #5BA156",
"d  c #639F60",
"f  c #689E65",
"g  c #7B997A",
"h  c #4EA361",
"j  c #50A265",
"k  c #52A26C",
"l  c #55A173",
"z  c #57A17A",
"x  c #59A07E",
"c  c #FB9A00",
"v  c #FB9706",
"b  c #FA9B12",
"n  c #FB8601",
"m  c #FBB700",
"M  c #F78A27",
"N  c #F09334",
"B  c #F2A938",
"V  c #F4B734",
"C  c #F8AB26",
"Z  c #FCCB00",
"A  c #FCC200",
"S  c #FDD100",
"D  c #FDDC03",
"F  c #FCD716",
"G  c #FEE105",
"H  c #FEE60D",
"J  c #FEEA1B",
"K  c #FDE914",
"L  c #F5C033",
"P  c #D9F225",
"I  c #D7EE3F",
"U  c #FDE826",
"Y  c #FDEE32",
"T  c #FDF039",
"R  c #EE8646",
"E  c #E78D54",
"W  c #ECAB5A",
"Q  c #DC8466",
"!  c #D08279",
"~  c #FAB57B",
"^  c #FED54D",
"/  c #FDF148",
"(  c #FCF257",
")  c #FEE442",
"_  c #FDF465",
"`  c #FDF578",
"'  c #FEE76C",
"]  c #BC7C8A",
"[  c #B97B8C",
"{  c #B67E90",
"}  c #9D50A0",
"|  c #B47FBA",
" . c #935895",
".. c #C27A85",
"X. c #C47682",
"o. c #C375C9",
"O. c #D169D9",
"+. c #D17DD2",
"@. c #5B9F83",
"#. c #5E9F8B",
"$. c #5F9E90",
"%. c #619D94",
"&. c #649C9C",
"*. c #5AA082",
"=. c #679BA1",
"-. c #699BA5",
";. c #6C99AC",
":. c #7C94AF",
">. c #6F97B3",
",. c #6F98B4",
"<. c #7496B2",
"1. c #7A95B0",
"2. c #729AB5",
"3. c #789DB7",
"4. c #7B9FB8",
"5. c #7EA1BA",
"6. c #819782",
"7. c #958F98",
"8. c #9F889F",
"9. c #8F9292",
"0. c #BF888C",
"q. c #B5828D",
"w. c #AC8396",
"e. c #A5869C",
"r. c #AA8499",
"t. c #B28292",
"y. c #8D8FA9",
"u. c #8F8EA7",
"i. c #938DA6",
"p. c #9B8AA1",
"a. c #908EA8",
"s. c #8492AD",
"d. c #8A90AA",
"f. c #8C9BB3",
"g. c #AD84B2",
"h. c #AE97A9",
"j. c #83A4BC",
"k. c #8AA8BE",
"l. c #88A7BD",
"z. c #A8AABC",
"x. c #E6A38F",
"c. c #D39EBE",
"v. c #DBB7B8",
"b. c #DEA09E",
"n. c #D5C994",
"m. c #D4D483",
"M. c #FEF683",
"N. c #FFF794",
"B. c #FFF89A",
"V. c #FEEC92",
"C. c #FFF9A2",
"Z. c #FEE5AA",
"A. c #F7CE94",
"S. c #8EABC1",
"D. c #91ADC2",
"F. c #96B0C4",
"G. c #9DB4C7",
"H. c #A5BACB",
"J. c #D396C4",
"K. c #D283CE",
"L. c #CBBAC3",
"P. c #AFC1D0",
"I. c #B5C5D2",
"U. c #BAC9D6",
"Y. c #B3C0CE",
"T. c #CAD5DF",
"R. c #FBE9D2",
"E. c #CFD9E2",
"W. c #D5DDE5",
"Q. c #D9E1E7",
"!. c #DDE4EA",
"~. c #E1E6EB",
"^. c #E5EAEE",
"/. c #FBEFE9",
"(. c #FFF5E6",
"). c #EBEEF1",
"_. c #E7ECF0",
"`. c #EDF1F4",
"'. c #F2F3F5",
"]. c #FFFFFF",
"[. c #F5F7F9",
"{. c #EFCCCB",
/* pixels */
",.,.,.,.,.,.,.,.,.,.,.,.,.,.,.,.,.,.,.,.,.,.,.,.,.,.,.,.,.,.,.,.,.,.,.,.,.,.,.,.,.,.,.,.,.,.,.,.,.,.,.,.,.,.,.,.,.,.,.,.,.,.,.,.",
",.,.,.,.,.,.,.,.,.,.,.,.,.,.,.,.,.,.,.,.,.,.,.,.,.,.,.,.,.,.,.,.,.,.,.,.,.,.,.,.,.,.,.,.,.,.,.,.,.,.,.,.,.,.,.,.,.,.,.,.,.,.,.,.",
",.,.,.,.,.,.,.,.,.,.,.,.,.,.,.,.,.,.,.,.,.,.,.,.,.,.,.,.,.,.,.,.,.,.,.,.,.,.,.,.,.,.,.,.,.,.,.,.,.,.,.,.,.,.,.,.,.,.,.,.,.,.,.,.",
",.,.,.,.,.,.,.,.,.,.,.,.,.,.,.,.,.,.,.,.,.,.,.,.,.,.,.,.,.,.,.,.,.,.,.,.,.,.,.,.,.,.,.,.,.>.>.<.:.s.d.y.d.d.s.:.1.<.>.,.,.,.,.,.",
",.,.,.,.,.,.,.,.,.,.,.,.,.,.,.,.,.,.,.,.,.,.,.,.,.,.,.,.,.,.,.,.,.,.,.,.,.,.,.,.,.,.,.,.>.>.:.d.a.p.e.e.e.e.8.i.y.s.<.>.,.,.,.,.",
",.,.,.,.,.,.,.,.,.,.,.,.,.,.,.,.,.,.,.,.,.,.,.,.,.,.,.,.,.,.,.,.,.,.,.,.,.,.,.,.,.,.,.>.>.s.a.p.r.{ ] X.X...[ t.e.i.s.1.<.,.,.,.",
",.,.,.,.,.,.,.,.,.,.,.,.,.,.,.,.,.,.,.,.,.,.,.,.,.,.,.,.,.,.,.,.,.,.,.,.,.,.,.,.,.,.,.>.s.a.e.{ X.4 > > > , 3 < ] r.p.s.<.>.,.,.",
",.,.,.,.,.,.,.,.,.,.,.,.,.,.,.,.,.,.,.,.,.,.,.,.,.,.,.,.,.,.,.,.,.,.,.,.,.,.,.,.,.,.>.<.y.e.[ < * = % $ $ & ; > 3 ..w.i.s.<.,.,.",
",.,.,.,.,.,.,.,.,.2.4.l.4.2.,.,.,.,.,.,.,.,.,.,.,.,.,.,.,.,.,.,.,.,.,.,.,.,.,.,.,.,.>.s.p.{ < * % # n c c b M R ; 3 ] e.y.1.<.,.",
",.,.,.,.,.,.,.,.2.G.T.^.E.P.D.4.2.,.,.,.,.,.,.,.,.,.,.,.,.,.,.,.,.,.,.,.,.,.,.,.,.,.:.a.r.X.> = # c m Z S S A C R ; 1 t.p.s.<.,.",
",.,.,.,.,.,.,.,.4.!.].].].].].!.G.2.,.,.,.,.,.,.,.,.,.,.,.,.,.,.,.,.,.,.,.,.,.,.,.,.s.p.{ 3 : $ c A D H K K G S C R , ..e.d.<.,.",
",.,.,.,.,.2.3.j.G.].].].].].].].T.4.,.,.,.,.,.,.,.,.,.,.,.,.,.,.,.,.,.,.,.,.,.,.,.,.s.e.] , - M m D J / ( ( Y H Z N 5 1 w.u.1.,.",
",.,.,.,.2.k.I.Q._.].].].].].].].^.l.,.,.,.,.,.,.,.,.,.,.,.,.,.,.,.,.,.,.,.,.2.2.,.,.d.e..., - b Z H / M.N.N._ U D B E 1 t.a.1.,.",
",.,.,.,.3.I.].].].].].].].].].]._.S.j.3.2.,.,.,.,.,.,.,.,.,.,.,.,.,.,.,.,.,.2.2.,.2.f.h.0., - b S J _ B.C.B.M.T G V E 1 t.i.1.,.",
",.,.,.,.j.W.].].].].].].].].].].].!.W.I.k.2.,.,.,.,.,.,.,.,.,.,.,.,.,.,.,.,.2.2.2.H.~.].'.{.v.~ ^ U ( N.C.B.` Y G V E 1 w.a.1.,.",
",.,.,.,.j.W.].].].].].].].].].].].].].].I.3.,.,.,.,.,.,.,.,.,.,.,.,.,.,.,.,.2.3.k.~.].].].].].].(.V.( ` M.` ( J F B - 2 r.y.<.,.",
",.,.,.,.3.I.].].].].].].].].].].].].].].!.G.S.5.2.2.,.,.,.,.,.,.,.,.,.,.,.2.k.I.!.].].].].].].].].(.` Y T T J G V M # ; w.s.<.,.",
",.,.,.,.2.k.I.Q.^.^.`.[.].].].].].].].].].].'.Q.H.4.2.,.,.,.,.,.,.,.,.,.,.3.U.].].].].].].].].].].].Z.' ) U F L E $ C W r.:.<.,.",
",.,.,.,.,.2.3.j.l.j.D.^.].].].].].].].].].].].].`.F.2.,.,.,.,.,.,.,.,.,.2.H.'.].].].].].].].].].].]./.R.R.A.W E Q , Q 0.a.<.<.,.",
",.,.,.,.,.,.,.,.,.,.D.].].].].].].].].].].].].].].I.3.,.,.,.,.,.,.,.,.,.4.E.].].].].].].].].].].].].].].]./.x.! ! q.e.y.1.<.,.,.",
",.,.,.,.,.,.,.,.,.,.D.].].].].].].].].].].].].].].I.3.,.,.,.,.,.,.,.,.,.l.^.].].].].].].].].].].].].].].].].v.0.w.8.d.:.<.,.,.,.",
",.,.,.,.,.,.,.,.,.,.4.!.].].].].].].].].].].].].`.F.2.,.,.,.,.,.,.,.,.,.4.T.].].].].].].].].].].].].].].].].L.8.a.s.:.<.,.,.,.,.",
",.,.,.,.,.,.,.,.,.,.2.G.W._.^.'.].].].]._.!.^.W.H.4.2.,.,.,.,.,.,.,.,.,.2.G.~.].].].].].].].].].].].].].].).z.d.:.<.<.,.,.,.,.,.",
",.,.,.,.,.,.,.,.,.,.,.2.4.k.l.U.].].].].U.j.l.5.2.2.,.,.,.,.,.,.,.,.,.,.,.2.k.!.].].].].].].].].].].].].[.Y.j.<.<.<.,.,.,.,.,.,.",
",.,.,.,.,.,.,.,.,.,.,.,.,.,.2.k.I.W.W.I.k.2.,.,.,.,.,.,.,.,.,.,.,.,.,.,.,.,.3.I.].].].].].].].].].].].].].F.2.,.,.,.,.,.,.,.,.,.",
",.,.,.,.,.,.,.,.,.,.,.,.,.,.,.2.3.j.j.3.2.,.,.,.,.,.,.,.,.,.,.,.,.,.,.,.,.,.2.k.U.`.].].].].].].].].].]._.5.,.,.,.,.,.,.,.,.,.,.",
",.,.,.,.,.,.,.,.,.,.,.,.,.,.,.,.,.,.,.,.,.,.,.,.,.,.,.,.,.,.,.,.,.,.,.,.,.,.,.2.3.G.T.~.W.W.'.].'.].].'.I.2.,.,.,.,.,.,.,.,.,.,.",
",.,.,.,.,.,.,.,.,.,.,.,.,.,.,.,.,.,.,.,.,.,.,.,.,.,.,.,.,.,.,.,.,.,.,.,.,.,.,.,.,.2.3.l.5.4.l.D.l.k.F.j.2.,.,.,.,.,.,.,.,.,.,.,.",
",.,.,.,.,.,.,.,.,.,.,.,.,.,.,.,.,.,.,.,.,.,.,.,.,.,.,.,.,.,.,.,.,.,.,.,.,.,.,.,.,.,.,.,.,.,.,.,.,.,.,.,.,.,.,.,.,.,.,.,.,.,.,.,.",
",.,.,.,.,.,.,.,.,.,.,.,.,.,.,.,.,.,.,.,.,.,.,.,.,.,.,.,.,.,.,.,.,.,.,.,.,.,.,.,.,.,.,.,.,.,.,.,.,.,.,.,.,.,.,.,.,.,.,.,.,.,.,.,.",
",.,.,.,.,.,.,.,.,.,.,.,.,.,.,.,.,.,.,.,.,.,.,.,.,.,.,.,.,.,.,.,.,.,.,.,.,.,.,.,.,.,.,.,.,.,.,.,.,.,.,.,.,.,.,.,.,.,.,.,.,.,.,.,.",
",.,.,.,.,.,.,.,.,.,.,.,.,.,.,.,.,.,.,.,.,.,.,.,.,.,.,.,.,.,.,.,.,.,.,.,.,.,.,.,.,.,.,.,.,.,.,.,.,.,.,.,.,.,.,.,.,.,.,.,.,.,.,.,.",
",.,.,.,.,.,.,.,.,.,.,.,.,.,.,.,.,.,.,.,.,.,.,.,.,.,.,.,.,.,.,.,.,.,.,.,.,.,.,.,.,.,.,.,.,.,.,.,.,.,.,.,.,.,.,.,.,.,.,.,.,.,.,.,.",
",.,.,.,.,.,.,.,.,.,.,.,.,.,.,.,.,.,.,.,.,.,.,.,.,.,.,.,.,.,.,.,.,.,.,.,.,.,.,.,.,.,.,.,.,.,.,.,.,.,.,.,.,.,.,.,.,.,.,.,.,.,.,.,.",
",.,.,.,.,.,.,.,.,.,.,.,.,.,.,.,.,.,.,.,.,.,.,.,.,.,.,.,.,.,.,.,.,.,.,.,.,.,.,.,.,.,.,.,.,.,.,.,.,.,.,.,.,.,.,.,.,.,.,.,.,.,.,.,.",
",.,.,.,.,.,.,.,.,.,.,.,.,.,.,.,.,.,.,.,.,.,.,.,.,.,.,.,.,.,.,.,.,.,.,.,.,.,.,.,.,.,.,.,.,.,.,.,.,.,.,.,.,.,.,.,.,.,.,.,.,.,.,.,.",
",.,.,.,.,.,.,.,.,.,.,.,.,.,.,.,.,.,.,.,.,.,.,.,.,.,.,.,.,.,.,.,.,.,.,.,.,.,.,.,.,.,.,.,.,.,.,.,.,.,.,.,.,.,.,.,.,.,.,.,.,.,.,.,.",
",.,.,.,.,.,.,.,.,.,.,.,.,.,.,.,.,.,.,.,.,.,.,.,.,.,.,.,.,.,.,.,.,.,.,.,.,.,.,.,.,.,.,.,.,.,.,.,.,.,.,.,.,.,.,.,.,.,.,.,.,.,.,.,.",
",.,.,.,.,.,.,.,.,.,.,.,.,.,.,.,.,.,.,.,.,.,.,.,.,.,.,.,.,.,.,.,.,.,.,.,.,.,.,.,.,.,.,.,.,.,.,.,.,.,.,.,.,.,.,.,.,.,.,.,.,.,.,.,.",
",.,.,.,.,.,.,.,.,.,.,.,.,.,.,.,.,.,.,.,.,.,.,.,.,.,.,.,.,.,.,.,.,.,.,.,.,.,.,.,.,.,.,.,.,.,.,.,.,.,.,.,.,.,.,.,.,.,.,.,.,.,.,.,.",
",.,.,.,.,.;.;.;.;.;.;.;.;.;.;.;.,.,.,.,.,.,.,.,.,.,.,.,.,.,.,.,.,.,.,.,.,.,.,.,.,.;.;.;.;.,.,.;.,.,.,.,.,.,.;.;.;.;.;.;.;.;.;.,.",
",.;.-.=.=.=.=.=.=.=.-.=.-.-.-.-.;.;.;.-.-.;.;.;.;.,.,.;.;.-.-.-.-.-.-.;.;.-.-.-.-.-.-.-.;.;.;.;.,.;.;.;.;.-.-.-.-.-.-.-.-.-.-.;.",
"-.=.&.%.%.%.%.$.$.$.%.%.%.&.&.&.&.=.&.&.=.=.-.-.-.-.-.-.=.&.&.&.&.&.&.&.=.&.&.&.&.&.=.=.-.-.-.;.-.-.=.=.&.&.&.&.&.%.%.&.&.&.=.-.",
"a k z z z z z z l l z z @.*.@.#.#.*.*.x z x *.@.*.#.#.#.#.*.@.@.@.@.*.*.@.*.x *.*.*.#.#.#.%.%.%.%.#.*.z z l l l l l k l z z z z ",
"p j j j h a a a a a a h j j k k k j j j h h j l l l l l k k k k k k k k k k k k l k l l z z z z z l j j j j j h h h h j j j j j ",
"u p p p p u u u y y u u p p p p p p p p u u p a a a a a a a a a a a a a a p p a a a a a h a a a a a p a a a a p p p p a h j j h ",
"y u u u y t r r q q r r r r r r r r r r r r y u u u u u u u u u u u u y y y y y y y u u u y y u u u u u u y y y y y y p a a a h ",
"q q q q 0 q q q 0 q t u t 0 0 0 0 0 0 q 0 0 r y i t r r t r t r r q q q q q q q q q q q q 0 q q q r r r r q q q q 0 0 y y r r u ",
"0 0 0 0 0 0 0 0 t d 6.9.g s 0 9 9 9 9 9 9 0 s g 9.6.d t q 0 0 0 0 0 0 0 0 0 0 0 0 0 0 0 0 0 0 0 9 0 0 0 0 0 0 0 0 9 9 q 0 0 0 q ",
"9 0 9 9 9 0 0 0 e g.O.O.O.7.t 9 9 9 9 9 9 t 7.O.O.O.g.d 0 0 0 9 9 9 9 9 9 9 9 9 9 9 9 9 9 9 9 9 9 0 0 0 9 9 9 9 9 9 9 9 9 9 9 9 ",
"9 9 9 9 9 9 9 q 6.O.J.n.O.o.s 9 9 9 9 9 9 s o.O.I n.O.6.q 9 9 9 9 9 9 9 9 9 9 9 9 9 9 9 9 9 9 9 9 9 9 9 9 9 9 9 9 9 9 9 9 9 9 9 ",
"9 9 9 9 9 9 9 t 9.O.n.P O.O.f 9 9 9 9 9 9 f O.K.P m.O.9.t 9 9 9 9 9 9 9 9 9 9 9 9 9 9 9 9 9 9 9 9 9 9 9 9 9 9 9 9 9 9 9 9 9 9 9 ",
"9 9 9 9 9 9 9 q g O.+.J.O.| i 9 9 9 9 9 9 i | O.c.c.O.g q 9 9 9 9 9 9 9 9 9 9 9 9 9 9 9 9 9 9 9 9 9 9 9 9 9 9 9 9 9 9 9 9 9 9 9 ",
"9 9 9 9 9 9 9 0 s 7.o.O.| g q 9 9 9 9 9 9 q g | }  .7.s 0 9 9 9 9 9 9 9 9 9 9 9 9 9 9 9 9 9 9 9 9 9 9 9 9 9 9 9 9 9 9 9 9 9 9 9 ",
"9 9 9 9 9 9 9 9 0 t w   i q 9 9 9 9 9 9 9 9 q i @ + t 0 9 9 9 9 9 9 9 9 9 9 9 9 9 9 9 9 9 9 9 9 9 9 9 9 9 9 9 9 9 9 9 9 9 9 9 9 ",
"9 9 9 9 9 9 9 9 9 7 o . O 9 9 9 9 9 9 9 9 9 9 7 o . O 9 9 9 9 9 9 9 9 9 9 9 9 9 9 9 9 9 9 9 9 9 9 9 9 9 9 9 9 9 9 9 9 9 9 9 9 9 ",
"9 9 9 9 9 9 9 9 9 7 o . O 9 9 9 9 9 9 9 9 9 9 7 o . O 9 9 9 9 9 9 9 9 9 9 9 9 9 9 9 9 9 9 9 9 9 9 9 9 9 9 9 9 9 9 9 9 9 9 9 9 9 ",
"9 9 9 9 9 9 9 9 9 9 9   8 9 9 9 9 9 9 9 9 9 9 9 8   9 9 9 9 9 9 9 9 9 9 9 9 9 9 9 9 9 9 9 9 9 9 9 9 9 9 9 9 9 9 9 9 9 9 9 9 9 9 ",
"9 9 9 9 9 9 9 9 9 9 9   X 9 9 9 9 9 9 9 9 9 9 9 9   6 9 9 9 9 9 9 9 9 9 9 9 9 9 9 9 9 9 9 9 9 9 9 9 9 9 9 9 9 9 9 9 9 9 9 9 9 9 ",
"9 9 9 9 9 9 9 9 9 9 9 9 9 9 9 9 9 9 9 9 9 9 9 9 9 9 9 9 9 9 9 9 9 9 9 9 9 9 9 9 9 9 9 9 9 9 9 9 9 9 9 9 9 9 9 9 9 9 9 9 9 9 9 9 ",
"9 9 9 9 9 9 9 9 9 9 9 9 9 9 9 9 9 9 9 9 9 9 9 9 9 9 9 9 9 9 9 9 9 9 9 9 9 9 9 9 9 9 9 9 9 9 9 9 9 9 9 9 9 9 9 9 9 9 9 9 9 9 9 9 ",
"9 9 9 9 9 9 9 9 9 9 9 9 9 9 9 9 9 9 9 9 9 9 9 9 9 9 9 9 9 9 9 9 9 9 9 9 9 9 9 9 9 9 9 9 9 9 9 9 9 9 9 9 9 9 9 9 9 9 9 9 9 9 9 9 ",
"9 9 9 9 9 9 9 9 9 9 9 9 9 9 9 9 9 9 9 9 9 9 9 9 9 9 9 9 9 9 9 9 9 9 9 9 9 9 9 9 9 9 9 9 9 9 9 9 9 9 9 9 9 9 9 9 9 9 9 9 9 9 9 9 ",
"9 9 9 9 9 9 9 9 9 9 9 9 9 9 9 9 9 9 9 9 9 9 9 9 9 9 9 9 9 9 9 9 9 9 9 9 9 9 9 9 9 9 9 9 9 9 9 9 9 9 9 9 9 9 9 9 9 9 9 9 9 9 9 9 "
};
