/* XPM */
static char *b8a7e3160865406ef8945f3906226feezzH2NPMWm7Ws0rqv[] = {
/* columns rows colors chars-per-pixel */
"64 64 107 2 ",
"   c #272624",
".  c #363333",
"X  c #3A3635",
"o  c #3C3837",
"O  c #3E3A39",
"+  c #423D3C",
"@  c #44403F",
"#  c #28415A",
"$  c #394E69",
"%  c #395779",
"&  c #3C5A7C",
"*  c #464141",
"=  c #4A4444",
"-  c #4D4C4A",
";  c #575251",
":  c #5E5A59",
">  c #485F7C",
",  c #47607A",
"<  c #4E647E",
"1  c #55677C",
"2  c #797876",
"3  c #3F5E83",
"4  c #415F81",
"5  c #456386",
"6  c #4A698C",
"7  c #496C92",
"8  c #527094",
"9  c #63768C",
"0  c #6F7F93",
"q  c #6C8098",
"w  c #788698",
"e  c #6A83A5",
"r  c #6C86A8",
"t  c #738BAC",
"y  c #7E8FA9",
"u  c #7790AD",
"i  c #7F90A8",
"p  c #748EB0",
"a  c #7690B1",
"s  c #7993B3",
"d  c #8E8A89",
"f  c #989393",
"g  c #8092A6",
"h  c #8395AB",
"j  c #8C9BAD",
"k  c #8A97B3",
"l  c #8D9CB4",
"z  c #9CA7B3",
"x  c #95A4BA",
"c  c #99A6B9",
"v  c #99AABB",
"b  c #AFAEAC",
"n  c #A2ADBF",
"m  c #A6B4C7",
"M  c #A5B8C9",
"N  c #A8B8CE",
"B  c #B5C5D4",
"V  c #BDC6D1",
"C  c #B4C5D9",
"Z  c #BFCDDA",
"A  c #D3CFCE",
"S  c #C6D4E4",
"D  c #CDD6E2",
"F  c #CBDBE4",
"G  c #CFDCEB",
"H  c #D6E0ED",
"J  c #D8E2EF",
"K  c #D7E2F3",
"L  c #DBE6F3",
"P  c #EAE9E7",
"I  c #EEEDEB",
"U  c #F1EFED",
"Y  c #F2F1EF",
"T  c #F8F3EE",
"R  c #FAF9EF",
"E  c #E0E7F3",
"W  c #E3ECF4",
"Q  c #EFEEF2",
"!  c #E1EFF9",
"~  c #E3F0F4",
"^  c #ECF2F5",
"/  c #E7F1F8",
"(  c #ECF3FA",
")  c #EEF9FB",
"_  c #F5F4F2",
"`  c #F8F7F4",
"'  c #F5F9F7",
"]  c #FAF9F6",
"[  c #F2F6FB",
"{  c #F9F7F9",
"}  c #F0F8FE",
"|  c #F4FAFD",
" . c #F7FBFD",
".. c #F0FDFF",
"X. c #F6FEFF",
"o. c #F8F8F9",
"O. c #FAF9F8",
"+. c #FBFBF9",
"@. c #FDFAF8",
"#. c #FCFBF8",
"$. c #FCFBF9",
"%. c #FDFBFB",
"&. c #FFFDF8",
"*. c #FCFCFA",
"=. c #FBF9FE",
"-. c #FBFCFE",
";. c #FFFFFD",
/* pixels */
"& & & & & & & & & & +.*.+.+ * * = * + *.$.] a a a a a a a a a a a a a a a a a e a p ] ` *.+ + * + + + ] ;.$.& & & & & & & & & & ",
"& & & & & & & & & & *.*.$.$.+ * + $.*.+.] +.a a a a a a a a a a a a a a a t a a a a ;.$.] +.+ + + + *.*.*.*.& & & & & & & & & & ",
"& & & & & & & & & 0 *.*.+.;.;.*.*.$.*.$.] $.a a a a a a a a a a a a a a a a a a t q +.+.*.] +.A *.$.*.*.*.] 9 & & & & & & & & & ",
"& & & & & % & & & $.$.*.*.+.+.*.*.*.+.+.+.*.*.a a a a a a a a a a a a a a a a a a +.] ] ` ] ] *.$.*.] +.+.*.*.& & & & & & & & & ",
"& & & & & & & & & *.;.*.$.*.*.*.+.$.+.] $.;.] a a a a a a a a a a a a a a a a a a +.] +.*.+.*.$.$.] $.*.] ] $.& & & & & & & & & ",
"& & & & & & & & X.*.*.;.$.$.} a n *.+.+.+.$.] a a a a a a a a a a a a a a a t t H ] +.] ] $.D a a $.$.*.+.$.+.& & & & & & & & & ",
"& & & & & & & & *.*.-.-.K a a a a a a  .$.;.$.] a a a a a a a a a a a a a a a a $.] *.] j a a a a a a $.$.+.*.;.& & & & & & & & ",
"& & & & & & h *.*.;.y a a a a a a a a a a a ..+.] =.a a a a a a a a a a a r *.$.*._ t a a a a a a a a a a E +.*.$.& & & & & & & ",
"& & & & -.*.$.$.g a a a a a a a a a a a a a a a ` *._ ;.a a a a a a a ( _ ] _ +.a a a a a a a a a a a a a a a L $.] ] W & & & & ",
"& $ +.$.] *.+.*.a a a a a a a a a a a a a a a a ` $.] _ ` ] =.a } ` ` Y ] *.$.Y a a a a a a a a a a a a a a a a ] +.+.$.] $. .& ",
"+.*.+.+.+.*.-.a a a a a a a a a a a a a a a a a a ' ] ] +.$.` +.` ] $.` $._ *.a a a a a a a a a a a a a a a a a ] +.$.*.] *.+.*.",
"*.+.*.;.+.;.*.a a a a a a a a a a a a a a a a a a *.] +.` +._ +.] $.` *.] ] R a a a a a a a a a a a a a a a a a a $.$._ ` ] $.] ",
"*.+.*.;.+.=.a a a a a a a a a a a a a a a a a a a a _ +._ _ _ ` +._ +.*.] _ t a a a a a a a a a a a a a a a a a a *.+.] $.+.;.` ",
"+ ;.$.+.;.*.a a a a a a a a a a a a a a a a a a a a ] ] ] ] ` + @ $.*._ +.*.a a a a a a a a a a a a a a a a a a a i ] ] +._ $.O ",
"+ * *.*.*.h a a a a a a a a a a a a a a a a a a a a ( _ ] _ @ + + + *._ $.$.a a a a a a a a a a a a a a a a a a a a *.+._ ` + + ",
"+ + *.;.*.a a a a a a a a a a a a a a a a a a a a a a _ ;.$.X + + O ] +.] a a a a a a a a a a a a a a a a a a a a a ~ +.] $.+ * ",
"+ + *.*.$.a a a a a a a a a a a a a a a a a a a a a a ] ` ` X + O o ] ] ] a a a a a a a a a a a a a a a a a a a a a _ _ _ +.@ O ",
"* o ] $.$.] a a a a a a a a a a a a a a a a a a a a _ ] ` ] O O + P ` _ $.' a a a a a a a a a a a a a a a a a a a a U _ ] _ f * ",
": *.+.$.$.$.a a a a a a a a a a a a a a a a a a a a ` _ _ _ Y 2 ` ] ] ] _ ] a a a a a a a a a a a a a a a a a a a ` ` _ _ _ ` ] ",
"+.+.+.*.*.+.L a a a a a a a a a a a a a a a a a a _ ` _ _ _ *._ _ ] ` +.] _ m a a a a a a a a a a a a a a a a a a _ +.Y _ ] ` ] ",
"+.+.$.$.+.*.$.a a a a a a a a a a a a a a a a a a ` _ I _ Y *._ ] ] ] _ _ $._ a a a a a a a a a a a a a a a a a a _ ] ] ` _ +._ ",
"*.$.*.;.$.*.+.u a a a a a a a a a a a a a a a a Y ` $.` +._ I U I ` _ _ _ I I h a a a a a a a a a a a a a a a a U Y _ ` ` _ _ _ ",
"s a  .*.$.$.$.$.a a a a a a a a a a a a a a a a +._ _ Y _ _ & & & & T ] _ _ Y ` a a a a a a a a a a a a a a a a ` U _ _ ` ` a a ",
"a a a a -.*.] $.a a a a a a a a a a a a a a a } ] _ +.z & & & & & & & & ^ ] U _ ( a a a a a a a a a a a a a a +._ $.I J a a a a ",
"s a a a a a =.] T Y a a a a a a a a a a a T _ T _ & & & & & & & & & & & & & & _ Y _ I a a a a a a a a a a _ +._ ] 9 a a a a a a ",
"s a a a a a a a ' +._ _ B a a a a a x ] ` _ Y V & & & & & & & & & & & 8 & & & & [ _ ` Y T a a a a a a +.Y _ _ a a a a a a a a a ",
"a a a a a a a a a *._ ] _ ;.U a ] _ ` _ _ ] ` 6 & & & & & & & & & & & & & & & & & +._ _ +._ _ _ N _ U _ _ ] ] a a a a a a a a a ",
"a a a a a a a a a ;.] ` _ Y ] +._ _ _ _ ] ] _ & & & & & & & & & & & & & & & & & & ( Y _ Y ` _ Y _ Y I _ Y _ _ a a a a a a a a a ",
"a a a a a a a a a a $.` ] _ ` _ _ ` _ ` ] ] & & & & & & & & & & & & & & & & & & 4 & Y Y _ _ _ _ Y U Y _ ` ` a a a a a a a a a a ",
"a a a a a a a a a a +.] ` $.] $._ ` Y _ ] ] & & & & & & & & & & & & & & & & & & & & Q I Y _ _ Y Y _ _ Y ` T a a a a a a a a a a ",
"a a a a a a a a a a a +.` _ ] + O b ` _ _ _ & & & & & & & & & & & & & & & & & & & & 3 _ Y _ _ o . U Y Y Y G a a a a a a a a a a ",
"a a a a a a a a a a a +._ _ + X O . _ $.+.& & & & & & & & & & & & & & & & & & 5 & & & Y Y _ o O + + U Y $.a a a a a a a a a a a ",
"a a a a a a a a a a a T _ _ O . X + ] Y _ & & & & & & & & & & & & 5 & & & & & & & 6 & F _ _ + O o O _ _ [ a a a a a a a a a a a ",
"a a a a a a a a a a a +._ _ O X + O _ _ ` 9 & & & & & & & & & & & & & & & & & & & & & T Y _ O O + = I _ _ a a a a a a a a a a a ",
"a a a a a a a a a a ` _ _ _ U : * _ _ _ _ ] & & & & & & & & & & & & & & & & & & & & & _ I I I X f I _ Y Y Z a a a a a a a a a a ",
"s a a a a a a a a a _ Y *._ Y _ Y _ Y _ ] Y 5 & & & & & & & & & & & & & & & & & & & _ _ _ Y I _ I _ I Y P Y a a a a a a a a a a ",
"a a a a a a a a a W _ _ _ _ _ _ ] _ $.Y _ Y Y & & & & & & & & & & & & & & & & & & & _ I Y P Y Y P I _ I I _ t a a a a a a a a a ",
"s a a a a a a a a _ _ _ ] _ ` Y $.*.Y ] ] U ` & & & & & & & & & & & & & & & & & & _ I Y _ I I _ Y I P I _ _ T a a a a a a a a a ",
"a a a a a a a a W ] +.Y _ U a a a a ` _ ` _ _ _ & & & & & & & & & & & & & & & & 7 T U Y P P a a a S Y _ Y Y U a a a a a a a a a ",
"a a a a a a a ` ] _ _  .a a a a a a a a ` T Y Y & & & & & & & & & & & & & & 3 v ` I _ ( a a a a a a a a R I _ U a a a a a a a a ",
"s a a a c $.*.+.] a a a a a a a a a a a a a  .U _ ` ) & & & & & & & & & & _ U _ T l a a a a a a a a a a a a W _ _ Y _ a a a a a ",
"a a  .+.;.] ` +.a a a a a a a a a a a a a a a a _ Y ] _ T < & & & & ^ _ Y I _ _ a a a a a a a a a a a a a a a a _ _ _ _ T N a a ",
"*.+.` ` ] +.*.*.a a a a a a a a a r a a a a a a W ` _ _ _ Y ` _ T Y Y _ Y _ Y T a a a a a a a a a a a a a a a a _ _ _ _ _ _ Q _ ",
"+.+.+.] ;._ $.a a a a a a a a a a a a a a a a e a _ ` ] _ ] _ U Y Y _ Y _ Y I c a a a a a a a a a a a a a a a a Z Y ` _ _ _ _ _ ",
"+.` ;.*.] ] $.a a a a a a a a a a a a a a a a a a k _ ] _ _ ` _ _ Y _ ` Y _ P a a a a a a a a a a a a a a a a a a _ _ _ Y Y Y _ ",
"d ] $.` ] ` s a a a a a a a a a a a a a a a a a a a ` _ _ _ Y _ - I Y I _ U ^ a a a a a a a a a a a a a a a a a a L _ _ _ _ ` T ",
"+ O *.] ] +.a a a a a a a a a a a a a a a a a a a a x I I I I + O . _ U _ _ a a a a a a a a a a a a a a a a a a a a _ _ _ ` O O ",
"+ + ;.] ` } a a a a a a a a a a a a a a a a a a a a a Y Y ] X + X + . _ Y U a a a a a a a a a a a a a a a a a a a a [ +._ Y + * ",
"+ + _ +.*.C a a a a a a a a a a a a a a a a a a a e a ' _ _ O . X + X _ _ w a a a a a a a a a a a a a a a a a a a a a _ _ _ + = ",
"+ + ] ] $.*.a a a a a a a a a a a a a a a a a a a a a _ _ Y O + O . X I Y _ a a a a a a a a a a a a a a a a a a a a ` _ _ Y = + ",
"* +.;.$.$.*.a a a a a a a a a a a a a a a a a a a a [ _ _ _ Y   O P _ ` Y _ j a a a a a a a a a a a a a a a a a a a ` ` _ +._ + ",
"$.` ` $.] *.` a a a a a a a a a a a a a a a a a a a _ _ ] _ Y ` _ _ _ ] Y I T a a a a a a a a a a a a a a a a a a _ ` ] _ ] *._ ",
"+.] *._ *.+.;.a a a a a a a a a a a a a a a a a a J ` *._ ` _ _ _ _ _ Y _ I Y a a a a a a a a a a a a a a a a a a _ ` _ ` _ _ _ ",
"*.+.+.+.+.*.+.X.a a a a a a a a a a a a a a a a a _ I ` _ $._ _ _ +._ _ Y _ _ Y a a a a a a a a a a a a a a a a _ _ ` ] +.] +.$.",
"& & X.*.] ] $._ a a a a a a a a a a a a a a a a M Y _ ] _ Y _ a a a _ I _ ] Y ` a a a a a a a a a a a a a a a a ` _ +.$.+.+.& & ",
"& & & & # $.=.+._ a a a a a a a a a a a a a a a T _ _ $.a a a a a a a a a *._ _ _ a a a a a a a a a a a a a L _ U { U & & & & & ",
"& & & & & & &  .` +.$.a a a a a a a a a a ! _ _ +.} a a a a a a a a a a a a a / _ _ Y v a a a a a a a a Y _ _ _ > & & & & & & & ",
"& & & & & & & & & $.$.*.$. .a a a a s ] +.Y _ +.[ a a a a a a a a a a a a a a a E _ _ _ _ x s a a X._ _ _ ` _ & & & & & & & & & ",
"& & & & & & & & & ] +._ ] *.*._ +._ _ ] ` ` ] ` a a a a a a a a a a a a a a a a a _ _ U ` _ ` ` ` +.` Y _ $.T & & & & & & & & & ",
"& & & & & & & & & $.*.*.*.$.*.] *.$._ ` _ +.` _ a a a a a a a a a a a a a a a a a ` _ ` ` _ ] ` $.] ` ` _ ]  .& & & & & & & & & ",
"& & & & & & & & & 1 ] +.$.$.] ] $.] _ *.] ] _ a a a a a a a a a a a a a a a a a a ( ] +.] ` _ ] +.` ` *.` ] , & & & & & & & & & ",
"& & & & & & & & & & $.] *.$.` + + +.+.` *._ T a a a a a a a a a a a a a a a a a a a ] ] _ ] +.; $.] _ ] ` $.& & & & & & & & & & ",
"& & & & & & & & & & $.` ] ` O O @ + ] ] $.+.a a a a a a a a s a a a a a a a a a p a $.+._ _ * * + * *.] $.` & & & & & & & & & & ",
"& & & & & & & & & & ' Y ` + + + X O @ ] ] $.a a a a a a a a a a a a a a a a a a p a _ ` +.@ + + @ + + _ *.-.& & & & & & & & & & "
};
