/* XPM */
static char *result[] = {
/* columns rows colors chars-per-pixel */
"64 64 99 2 ",
"   c #66768D",
".  c #7B7D89",
"X  c #657991",
"o  c #6D7D94",
"O  c #6F7F98",
"+  c #79828B",
"@  c #6E8196",
"#  c #6E829B",
"$  c #728296",
"%  c #7D8593",
"&  c #798895",
"*  c #73859B",
"=  c #7A869B",
"-  c #76899E",
";  c #7A8A9D",
":  c #7787A0",
">  c #768AA2",
",  c #7B8CA3",
"<  c #768EA8",
"1  c #7C8EA9",
"2  c #7E91A6",
"3  c #7D91AA",
"4  c #818A91",
"5  c #838E9C",
"6  c #888E9C",
"7  c #899297",
"8  c #87939F",
"9  c #8A959C",
"0  c #90979F",
"q  c #808DA3",
"w  c #818EAA",
"e  c #888FAC",
"r  c #8292A5",
"t  c #8995A2",
"y  c #8D99A4",
"u  c #8394AA",
"i  c #8A95AB",
"p  c #8699AE",
"a  c #8A9AAC",
"s  c #939CA4",
"d  c #989FA5",
"f  c #939DAB",
"g  c #8A93B2",
"h  c #8699B1",
"j  c #8B9CB2",
"k  c #909EB8",
"l  c #96A1A5",
"z  c #95A1AC",
"x  c #9AA4AC",
"c  c #9EA8AE",
"v  c #8EA1B6",
"b  c #93A2B4",
"n  c #9BA6B1",
"m  c #9DAAB3",
"M  c #93A4BA",
"N  c #97A8BC",
"B  c #9BACBC",
"V  c #A3AAAE",
"C  c #A9AFAD",
"Z  c #ACB1AA",
"A  c #A2ACB4",
"S  c #A8ADB0",
"D  c #A3AEB9",
"F  c #ACB1B4",
"G  c #A6B2BB",
"H  c #ABB5BC",
"J  c #ACB9BF",
"K  c #B2B6B5",
"L  c #B2BABD",
"P  c #BCC1BE",
"I  c #AAB7C1",
"U  c #ADBAC3",
"Y  c #A5B8C9",
"T  c #B2BCC5",
"R  c #B8BDC3",
"E  c #B4C1C5",
"W  c #BDC2C4",
"Q  c #B7C2CA",
"!  c #BCC4CA",
"~  c #C6C5C1",
"^  c #C6C8C7",
"/  c #C3C9CD",
"(  c #CDCECD",
")  c #C0C9D0",
"_  c #CDD3D4",
"`  c #CFD4D8",
"'  c #D7DFDD",
"]  c #E4E3D0",
"[  c #EFE8DF",
"{  c #DFE9E5",
"}  c #E5E7E7",
"|  c #E5E8E4",
" . c #EAEFED",
".. c #EAF1EE",
"X. c #F5F2ED",
"o. c #EDF3F1",
"O. c #F6F6F3",
"+. c #F7F9F8",
"@. c #FFFFFF",
/* pixels */
"; E T T / @.@.@.@.@.@.A * @.@.@.@.@.' 3 @.@.@.@.@.@.@.g = i , c n 2 i * g @.@.@.@.@.@.@.1 ' @.@.@.@.@.* A @.@.@.@.@.@./ T T E ; ",
"b t Q G Q W @.@.@.@.@.u 1 3 @.@.@.o.> u @.@.@.@.@.@.u j > w I c n J 2 , j 3 @.@.@.@.@.@.u ,  .@.@.@.1 1 3 @.@.@.@.@.W Q A ! r n ",
"N r @.@.@.@.@.@.@.@.@.> p - M @.) , * , ; @.@.@.@.@.@.@.@.G x m m z G @.@.@.@.@.@.@.@.; , * > / @.M - h > @.@.@.@.@.@.@.@.@.r N ",
"r u @.@.@.@.@.@.@.@.u 2 , * > 2 , > > * u d @.@.@.@.@.@.@.T D T U G T @.@.@.@.@.@.@.d u * , > w 2 , * > 3 u @.@.@.@.@.@.@.@.u r ",
"@.j @.@.@.@.@.@.x * , u , @.@.@.@.@.! * a , t @.@.@.@.@.@.f A @.@.D d @.@.@.@.@.@.t : u * ! @.@.@.@.@., u , * x @.@.@.@.@.@.j @.",
"@.@.@.@.@.a M 1 * h M % @.@.@.@.@.@.@.@.1 j a , 2 i @.@.@.A @.@.@.@.m @.@.@.y 2 1 a b 1 @.@.@.@.@.@.@.@.% M h = 1 M a @.@.@.@.@.",
"@.@.@.@.@.r , j > * * @.@.@.@.@.@.@.@.@.@.1 a v r 2 @.@.@.@.@.@.@.@.@.@.@.@., u v a 2 @.@.@.@.@.@.@.@.@.@.* * > h , u @.@.@.@.@.",
"@.@.@.@.@.h h * u : @.@.@.@.@.@.@.@.@.@.@., , , v a A @.@.@.@.@.@.@.@.@.@.A j v , , , @.@.@.@.@.@.@.@.@.@.@.- u * p p @.@.@.@.@.",
"@.@.@.@.@.M > * , v @.@.@.@.@.@.@.@.@.@.@.8 i a u b r @.@.@.@.@.@.@.@.@.@.r b u a t t @.@.@.@.@.@.@.@.@.@.@.b > * , M +.@.@.@.@.",
"@.@.@.@.u v r u > a @.@.@.@.@.@.@.@.L @.@._ a N r j o y @.@.@.@.@.@.@.@.y o j r N j _ @.@.P @.@.@.@.@.@.@.@.a - u 3 v u @.@.@.@.",
"@.@.@.v u u u @.@.@.@.@.@.> @.@.@.A W @.@.@.@.@.r r i r 4 @.@.@.@.@.@.4 r r r r @.@.@.@.@.W A @.@.@.> @.@.@.@.@.@.u u u v @.@.@.",
"l , p i , q @.@.@.@.@.@.@.1 @ @.J x W @.@.@.@.@.@.@.3 , * * f @.@.x * * , 1 @.@.@.@.@.@.@.W x I @.o 1 @.@.@.@.@.@.@.6 , i p q z ",
", , , v j @.@.@.@.@.@.@.@.* u 2 Q U / @.@.@.@.@.@.@.@.a p u * % % = , h j @.@.@.@.@.@.@.@.^ U Q 2 u * @.@.@.@.@.@.@.@.k j 2 > ; ",
"@.u i 2 @.@.@.@.@.@.H G A r , > n G h # 2 j @.@.@.@.@.& u i s @.@.s i i & @.@.@.@.@.h 2 * h D c > > r D A H @.@.@.@.@.@.2 u u @.",
"@.@.u < @.@.@.@.@.@.} U G J r * I u p a < @.@.@.@.@.@.@.j S @.@.@.@.A j @.@.@.@.@.@.@.< h p u J * t J G T } @.@.@.@.@.@.1 u @.@.",
"@.@.@.b @.@.@.@.@.@.@.| J A D ; > 2 > h @.@.@.@.@.@.@.@.f @.@.@.@.@.@.f @.@.@.@.@.@.@.@.h > 3 > - D A J | @.@.@.@.@.@.@.b @.@.@.",
"@.@.o.; @.@.@.@.@.@.@.> # , 3 U Y T J m @.@.@.@.@.@.@.@.h @.@.@.@.@.@.h @.@.@.@.@.@.@.@.m I U I U 3 2 * * @.@.@.@.@.@.@.r { @.@.",
"@.+.M , @.@.@.@.@.@.* a * i E G > I A G T @.@.@.@.@.@.A u , @.@.@.@.1 u A @.@.@.@.@.@.T G m I , G E r * p = @.@.@.@.@.@., b ..@.",
"_ , 2 1 +.@.@.@.@.7 9 y 8 m m J $ * I L W ! @.@.@.@.@.3 > , w @.@.w 1 * 3 @.@.@.@.@.! Q L Y - $ I m m 9 y 9 7 @.@.@.@.+., 1 1 _ ",
"Y 2 p u > @.@.@.@.@.@.@.@.J T z j > ! @.@.@.@.@.@.@.& r u u > w w > u r r & @.@.@.@.@.@.@.^ - j z T U @.@.@.@.@.@.@.@.> u p 2 Y ",
"@.@., p , < @.@.@.@.@.@.@.n x @.s , L @.@.@.@.@.@.t , > r t @.@.@.@.9 u , , t @.@.@.@.@.@.L , s @.n x @.@.@.@.@.@.@.> , p , @.@.",
"@.@.@.n u j , u z W @.@.@.m @.@.@.x W @.@.@.@.f , N - , @.@.@.@.@.@.@.@.> - N , s @.@.@.@.W x @.@.@.m @.@.@.! z u > j i b @.@.@.",
"@.@.@.@.v , u u * , @.@.@.@.@.@.@.@.@.@.@.5 , B p u i @.@.@.@.@.@.@.@.@.@.i u u B , 5 @.@.@.@.@.@.@.@.@.@.@., * u u 2 j @.@.@.@.",
"@.@.@.@.@.v , > u 2 @.@.@.@.@.@.@.@.@.@.@., u j 2 u 8 @.@.@.@.@.@.@.@.@.@.r u r k u ; @.@.@.@.@.@.@.@.@.@.@., u > 1 j @.@.@.@.@.",
"@.@.@.@.@.u 3 h , ; s @.@.@.@.@.@.@.@.@.@.3 j u , j @.@.@.@.@.@.@.@.@.@.@.@.j , u j 3 @.@.@.@.@.@.@.@.@.@.s > 1 p 2 u @.@.@.@.@.",
"@.@.@.@.@.u 2 p , , > @.@.@.@.@.@.@.@.@.f u j , u a @.@.@.@.@.@.@.@.@.@.@.@.a u , j u f @.@.@.@.@.@.@.@.@.> > , p 2 u @.@.@.@.@.",
"@.H @.@.@.@.@.d j 2 > 3 @.@.@.@.@.@.@.m u , u v l @.@.@.@.> @.@.@.@., @.@.@.@.l M u 2 2 m @.@.@.@.@.@.@.1 , r j l @.@.@.@.@.H @.",
"V G @.@.@.@.@.@.@., j j u ; @.@.@.@.2 a : , @.@.@.@.@.@.@., < @.@.< , @.@.@.@.@.@.@., * p r @.@.@.@.; p j p ; @.@.@.@.@.@.@.A A ",
"Q T @.@.@.@.@.@.@.@.; , j > 1 7 2 > * 2 1 @.@.@.@.@.@.@.@.a - * * > a @.@.@.@.@.@.@.@., , - > 2 7 2 > j , ; @.@.@.@.@.@.@.@.T ! ",
"c D u j , 2 @.@.@.@.@.1 > 1 V @.@.> j , 5 @.@.@.@.Z L ! F p * @ O * a F ! L Z @.@.@.@.5 2 j > @.@.V 1 , < @.@.@.@.@.2 , h u D m ",
"I j , a 3 @.@.@.@.@.@.2 , F @.@.@.@.2 * @.@.@.@.@.@.S H A I , * * > U m H S @.@.@.@.@.@.* 2 @.@.@.@.A , 2 @.@.@.@.@.@.u p , j I ",
"M u , , @.@.@.@.@.@.@.H L @.@.@.@.@.@.< @.@.@.@.@.@.@.V H m z * * f A G V @.@.@.@.@.@.@.< @.@.@.@.@.@.L H @.@.@.@.@.@.@., 1 u b ",
"x I m W @.@.@.@.@.@.@.! @.@.@.@.@.@.@.i @.@.@.@.@.@.@.@.- u < = * 2 u ; @.@.@.@.@.@.@.@.y @.@.@.@.@.@.@.) @.@.@.@.@.@.@.Q A U x ",
"B n m ! C @.@.@.@.@.@.& 3 @.@.@.@.@.i $ @.@.@.@.@.@.@.v , - r z z 2 > > v @.@.@.@.@.@.@.O i @.@.@.@.@.1 & @.@.@.@.@.@.S Q c x B ",
"u , F U ! H @.@.@.@.@.@ 1 < @.@.@.3 , > @.@.@.@.@.@.- 2 j ; J G G J ; j 2 - @.@.@.@.@.@.: , 3 @.@.@.< 3 # @.@.@.@.@.F ! U F , i ",
"j j @.@.@.@.@.@.@.@.% 2 # 2 < @.1 u * @ $ @.@.@.@.@.@.@.@.n T m n E n @.@.@.@.@.@.@.@.$ # * h , @., 2 # , % @.@.@.@.@.@.@.@.j j ",
"j 1 @.@.@.@.@.@.@.D , u * o F @./ u u : 3 r @.@.@.@.@.@.@.A A F F D A @.@.@.@.@.@.@.q 3 > u u / @.H o @ u , A @.@.@.@.@.@.@., h ",
"@.j @.@.@.@.@.@.u j * j @.@.@.@.@.@.@.* = , ; @.@.@.@.@.@.x C @.@.Z x @.@.@.@.@.@.; q = * @.@.@.@.@.@.@.p * p p @.@.@.@.@.@.j @.",
"@.@.@.@.@.- $ < 2 2 i @.@.@.@.@.@.@.@.@., - j , * u @.@.@.0 @.@.@.@.9 @.@.@.u * ; j - , @.@.@.@.@.@.@.@.@.i 2 , 1 # ; @.@.@.@.@.",
"@.@.@.@.@.3 > , 1 - 8 @.@.@.@.@.@.@.@.@.@.- , j j ; @.@.@.@.@.@.@.@.@.@.@.@.- j j , > @.@.@.@.@.@.@.@.@.@.t > 2 , - 3 @.@.@.@.@.",
"@.@.@.@.@.a , u * 3 @.@.@.@.@.@.@.@.@.@.@.> , * j r V @.@.@.@.@.@.@.@.@.@.V r j * 2 > @.@.@.@.@.@.@.@.@.@.@.3 * r 1 h @.@.@.@.@.",
"@.@.@.@.; > , u u * @.@.@.@.@.@.@.@.@.@.@.& j = - 1 , @.@.@.@.@.@.@.@.@.@., 1 - = j & @.@.@.@.@.@.@.@.@.@.@.* u 3 , > 5 @.@.@.@.",
"@.@.@.R > - , ; h - @.@.@.+ @.@.@.@.@.@.@.% > u 2 u , * @.@.@.@.@.@.@.@.* , u 2 r > % @.@.@.@.@.@.@.+ @.@.@.; p ; , - , R @.@.@.",
"@.@.> $ u 1 L @.@.@.@.@.@.* x @.@.T @.@.@.@.@.@.@.> - p * @.@.@.@.@.@.* h * > @.@.@.@.@.@.@.T @.@.x * @.@.@.@.@.@.L , u * > @.@.",
"2 1 u > ; @.@.@.@.@.@.@.@., * l m x @.@.@.@.@.@.@.@.* j > 1 @ t i @ , : j * @.@.@.@.@.@.@.@.z A s * , @.@.@.@.@.@.@.@., - u , 3 ",
"; u * 2 ` @.@.@.@.@.@.@.@., 1 # n H @.@.@.@.@.@.@.@.@.* u u # @.@.# u i * @.@.@.@.@.@.@.@.@.J c * 1 , @.@.@.@.@.@.@.@.` , * u q ",
"@.i 2 u @.@.@.@.@.@.n y m B 3 i y b O , N f @.@.@.@.@.5 w < @.@.@.@.< 2 5 @.@.@.@.@.f N > o b y u 2 m m y n @.@.@.@.@.@.u r i @.",
"@.@.e & @.@.@.@.@.@.@.J n z m 3 n r * u 6 @.@.@.@.@.@.@.p @.@.@.@.@.@.p @.@.@.@.@.@.@.6 i * u b u B z m J @.@.@.@.@.@.@.& w @.@.",
"@.@.@.R @.@.@.@.@.@.@. .z v a a z ; y t @.@.@.@.@.@.@.@.@.@.@.@.@.@.@.@.@.@.@.@.@.@.@.@.9 a ; z a a z n  .@.@.@.@.@.@.@.R @.@.@.",
"@.@.w ; @.@.@.@.@.@.@.j # o & F , J H I P @.@.@.@.@.@.@.@ @.@.@.@.@.@.@ @.@.@.@.@.@.@.L I J I q G & o # j @.@.@.@.@.@.@.; w @.@.",
"@.u u w @.@.@.@.@.@., * u 2 I G ; p T U G ( @.@.@.@.@.; j - @.@.@.@.* j ; @.@.@.@.@.( G U T a - G U 2 3 * > @.@.@.@.@.@.1 p w @.",
"u ; * u  .@.@.@.@.@.@.@.@.H A y > , @.@.@.@.@.@.@.@.@., , , 1 @.@., , w > @.@.@.@.@.@.@.@.@., > y m H @.@.@.@.@.@.@.@. .u * ; p ",
"i , p * 1 @.@.@.@.@.@.@.@.U W m * # @.@.@.@.@.@.@.@.r u w r , # # , r u u r @.@.@.@.@.@.@.@.@ * c Q U @.@.@.@.@.@.@.@.3 * u w t ",
"@.@.8 j M j 9 @.@.@.@.@.@.y K @.@.p @.@.@.@.@.@.@.a , r - @.@.@.@.@.@.- r ; a @.@.@.@.@.@.@.h @.@.K y @.@.@.@.@.@.9 j v j 5 @.@.",
"@.@.@.+.j , j > X , @.@.@.F @.@.@.@.@.@.@.8 & u i , o $ @.@.@.@.@.@.@.@.O o , p p & 9 @.@.@.@.@.@.@.F @.@.@., X > j , v @.@.@.@.",
"@.@.@.@.t > * > = u @.@.@.@.@.@.@.@.@.@.@.2 @ 2 , - * @.@.@.@.@.@.@.@.@.@.; - , , @ 2 @.@.@.@.@.@.@.@.@.@.@.u * > - > r @.@.@.@.",
"@.@.@.@.@.$ 2 = > * @.@.@.@.@.@.@.@.@.@.@.1 t u u $ ( @.@.@.@.@.@.@.@.@.@._ $ r u u 2 @.@.@.@.@.@.@.@.@.@.@.* > = , O @.@.@.@.@.",
"@.@.@.@.@.h u , r - y @.@.@.@.@.@.@.@.@.@.w 2 $ r - @.@.@.@.@.@.@.@.@.@.@.@.- r * r r @.@.@.@.@.@.@.@.@.@.y ; 2 2 u h @.@.@.@.@.",
"@.@.@.@.@.3 o O * i O @.@.@.@.@.@.@.@.@.r > w r = ; @.@.@.@.@.@.@.@.@.@.@.@.; - r , > r @.@.@.@.@.@.@.@.@.O i * $ o 3 @.@.@.O.@.",
"@.x @.@.@.@.@.@.- i > * @.@.@.@.@.@.@.1 , r * 0 @.@.@.@.@.* _ @.@._ * @.@.@.@.@.9 * i > 1 @.@.@.@.@.@.@.* > i - @.@.@.@.@.@.x @.",
"x R @.@.@.@.@.@.@.` , * o * s @.@.q ; * O t @.@.@.@.@.@.@.* : ` ` - * @.@.@.@.@.@.@.t O = , q @.@.s * o - , ` @.@.@.@.@.@.@.T x ",
"x J @.@.@.@.@.@.@.@.+ u > , > ] > i ; *   @.@.@.@.@.@.@.@.- o - = o - @.@.@.@.@.@.@.@.  @ * i , ] > : , r + @.@.@.@.@.@.@.@.J x ",
"V a ; - ; % @.@.@.@.@.@ o ; @.@.@.> , : @.@.@.@.@.( H y x , * , : = , V y H ( @.@.@.@.@.* r : @.@.X.; O @ @.@.@.@.@.+ ; - ; y A ",
"t $ o ; . O.X.+.@.@.@.= X @.@.@.@.@.$ ; @.@.@.@.@.@.~ s s d r o O q s s s ~ @.@.@.@.@.@.; $ @.@.@.@.[ X ; +.@.@.@.@.@.. ; o * t "
};
