/* XPM */
static char *c5039b07825c4846d70502935ef42722chqr0SBAUeIgJvEZ[] = {
/* columns rows colors chars-per-pixel */
"64 64 248 2 ",
"   c #030E00",
".  c #001400",
"X  c #001C00",
"o  c #0A1800",
"O  c #161F00",
"+  c #271905",
"@  c #012400",
"#  c #082500",
"$  c #012B00",
"%  c #0A2C01",
"&  c #112D02",
"*  c #182908",
"=  c #023300",
"-  c #0B3401",
";  c #043C00",
":  c #0C3C01",
">  c #0E360B",
",  c #163907",
"<  c #1B2814",
"1  c #193B16",
"2  c #262809",
"3  c #243B08",
"4  c #383409",
"5  c #2C2917",
"6  c #362718",
"7  c #273918",
"8  c #37381B",
"9  c #363429",
"0  c #442B1F",
"q  c #493A28",
"w  c #433B30",
"e  c #034200",
"r  c #0B4400",
"t  c #074904",
"y  c #0C4C00",
"u  c #134402",
"i  c #134C01",
"p  c #1A4C03",
"a  c #144309",
"s  c #194709",
"d  c #1B4C0C",
"f  c #0C5602",
"g  c #145301",
"h  c #1C5302",
"j  c #165B02",
"k  c #1C5A01",
"l  c #16520D",
"z  c #1C530C",
"x  c #1D5B0B",
"c  c #0F4F1B",
"v  c #1A4714",
"b  c #1D5416",
"n  c #224A09",
"m  c #314D0B",
"M  c #255704",
"N  c #225B03",
"B  c #23540C",
"V  c #235B0C",
"C  c #244B15",
"Z  c #27481A",
"A  c #39471B",
"S  c #235413",
"D  c #275717",
"F  c #245B13",
"G  c #2B5B15",
"H  c #2C521D",
"J  c #2C5B19",
"K  c #335D1A",
"L  c #0C6106",
"P  c #1D6402",
"I  c #226401",
"U  c #2A6502",
"Y  c #256907",
"T  c #2C6C04",
"R  c #24640B",
"E  c #2C640C",
"W  c #2D6B0B",
"Q  c #346B07",
"!  c #2C7405",
"~  c #367607",
"^  c #2A6314",
"/  c #286817",
"(  c #2C621A",
")  c #376819",
"_  c #326C1B",
"`  c #2A7415",
"'  c #347413",
"]  c #3A7D14",
"[  c #38761A",
"{  c #3C7C1C",
"}  c #2C4823",
"|  c #374A27",
" . c #2C5923",
".. c #365628",
"X. c #344B32",
"o. c #2A6A26",
"O. c #386826",
"+. c #397427",
"@. c #3D7C23",
"#. c #37712D",
"$. c #425A1E",
"%. c #437C09",
"&. c #456D1F",
"*. c #437919",
"=. c #49452B",
"-. c #55462C",
";. c #445528",
":. c #4A4636",
">. c #594736",
",. c #48583A",
"<. c #5A5637",
"1. c #67523C",
"2. c #6B563A",
"3. c #45662A",
"4. c #467826",
"5. c #437A2C",
"6. c #476938",
"7. c #497D33",
"8. c #537032",
"9. c #517C33",
"0. c #637037",
"q. c #575747",
"w. c #665745",
"e. c #516D46",
"r. c #686A44",
"t. c #746B56",
"y. c #637757",
"u. c #5C776C",
"i. c #757369",
"p. c #867457",
"a. c #8E7B66",
"s. c #3D8409",
"d. c #3C8518",
"f. c #3C8429",
"g. c #44870A",
"h. c #53910E",
"j. c #44841B",
"k. c #478918",
"l. c #4B951B",
"z. c #569919",
"x. c #5F9F1C",
"c. c #67AB1B",
"v. c #478727",
"b. c #4B8426",
"n. c #558C2D",
"m. c #4B9527",
"M. c #539B24",
"N. c #549628",
"B. c #498832",
"V. c #558B39",
"C. c #4C9D34",
"Z. c #579735",
"A. c #619728",
"S. c #638730",
"D. c #649A37",
"F. c #59A626",
"G. c #53AA2E",
"H. c #44A537",
"J. c #44A53A",
"K. c #5CA738",
"L. c #71AC2E",
"P. c #67B32A",
"I. c #74BD2C",
"U. c #67A739",
"Y. c #6AB437",
"T. c #75B635",
"R. c #76C532",
"E. c #78C637",
"W. c #5C8842",
"Q. c #4E924B",
"!. c #5A9742",
"~. c #658845",
"^. c #679D4A",
"/. c #6A8B52",
"(. c #48A447",
"). c #5CA743",
"_. c #4CA357",
"`. c #69A947",
"'. c #73B847",
"]. c #71AF51",
"[. c #748D68",
"{. c #4FA061",
"}. c #51A269",
"|. c #56A176",
" X c #74AE68",
".X c #7FCD4A",
"XX c #81BD1F",
"oX c #88D13C",
"OX c #87895C",
"+X c #84B452",
"@X c #8D8D76",
"#X c #A38B73",
"$X c #AB947B",
"%X c #8CB073",
"&X c #AFA17E",
"*X c #83C649",
"=X c #95D644",
"-X c #86C655",
";X c #8CCF57",
":X c #9DE358",
">X c #A4E75C",
",X c #92CC6A",
"<X c #5E9E8C",
"1X c #639C98",
"2X c #6A9AA9",
"3X c #6F98B4",
"4X c #868686",
"5X c #8C8D8D",
"6X c #929389",
"7X c #92918E",
"8X c #909E8D",
"9X c #8E9293",
"0X c #929392",
"qX c #999796",
"wX c #9C9C9B",
"eX c #AD9981",
"rX c #97B48B",
"tX c #ADA997",
"yX c #8DAABE",
"uX c #A3A3A3",
"iX c #A6AAA3",
"pX c #ACACAC",
"aX c #B2B3A9",
"sX c #B3B6B3",
"dX c #BBBBBB",
"fX c #C9B29A",
"gX c #C8BFAE",
"hX c #9AC28E",
"jX c #A8CC9E",
"kX c #B0CDAA",
"lX c #B6D9A6",
"zX c #B6CDB4",
"xX c #BAE2AA",
"cX c #C9D4B9",
"vX c #CCEFAD",
"bX c #B4C6CD",
"nX c #C6C6C6",
"mX c #CBD6C9",
"MX c #D7D9D6",
"NX c #D5EECD",
"BX c #DAF9CA",
"VX c #DAE8D6",
"CX c #E9F7DA",
"ZX c #E4E4E4",
"AX c #E6EAE6",
"SX c #E8F8E5",
"DX c #F3FEE4",
"FX c #F5F9F6",
/* pixels */
"3X3X3X3X3X3X3X3X3X3X3X3X3X3X3X3X3X3X3X3X3X3X3X3X3X3X3X3X3XCXBX,X&.NXFXCX3X3X3X3X3X3X3X3X3X3X3X3X3X3X3X3X3X3X3X3X3X3X3X3X3X3X3X3X",
"3X3X3X3X3X3X3X3X3X3X3X3X3X3X3X3X3X3X3X3X3X3X3X3X3X3X3X3XDXvX+X:X=XN. X;X~.zX3X3X3X3X3X3X3X3X3X3X3X3X3X3X3X3X3X3X3X3X3X3X3X3X3X3X",
"3X3X3X3X3X3X3X3X3X3X3X3X3X3X3X3X3X3X3X3X3X3X3X3X3X3XyX/.*.A.T.z.s.j.T.E.x.~ 3.| 3X3X3X3X3X3X3X3X3X3X3X3X3X3X3X3X3X3X3X3X3X3X3X3X",
"3X3X3X3X3X3X3X3X3X3X3X3X3X3X3X3X3X3X3X3X3X3X3X3X3X..vX'.I.oXh 9.j.P.%.R.I.h.N  X3X3X3X3X3X3X3X3X3X3X3X3X3X3X3X3X3X3X3X3X3X3X3X3X",
"3X3X3X3X3X3X3X3X3X3X3X3X3X3X3X3X3X3X3X3X3X3X3XMX_ ] z.R.I.] i A..XY.U.h.g.N.y R y.3X3X3X3X3X3X3X3X3X3X3X3X3X3X3X3X3X3X3X3X3X3X3X",
"3X3X3X3X3X3X3X3X3X3X3X3X3X3X3X3X3X3X3X3X3X3XMX X).= j.U L.h.g.f ! P.i Q h.y U b.% ,.3X3X3X3X3X3X3X3X3X3X3X3X3X3X3X3X3X3X3X3X3X3X",
"3X3X3X3X3X3X3X3X3X3X3X3X3X3X3X3X3XyXDX/.BXDX%XM `.n.n.V.) ~ z.m.M.P B.I.R.j.b.h O.3X3X3X3X3X3X3X3X3X3X3X3X3X3X3X3X3X3X3X3X3X3X3X",
"3X3X3X3X3X3X3X3X3X3X3X3X3X3X3X3X3XlX+X*Xg.D.+XZ.p b.A.k.`.Q j.I Z.U f.oXz.' g N.5.@ 3X3X3X3X3X3X3X3X3X3X3X3X3X3X3X3X3X3X3X3X3X3X",
"3X3X3X3X3X3X3X3X3X3X3X3X3X3X3X3X6.4.g.R.h.z.T.! 4.g z.P.f 5.= / M n.g M.j.M V.f x v  .6.3X3X3X3X3X3X3X3X3X3X3X3X3X3X3X3X3X3X3X3X",
"3X3X3X3X3X3X3X3X3X3X3X3X3X3X3XBX' ~ ~ P.-X%.Z.`.u = `.M.e / e f $ ~.^ N.E O.@ o.e = +.#.rX3X3X3X3X3X3X3X3X3X3X3X3X3X3X3X3X3X3X3X",
"3X3X3X3X3X3X3X3X3X3X3X3X3X3X3X .l.U.V +X*.i V.' Z.E { ; = x j e - 0.p B.& | r +.P _ z r kX3X3X3X3X3X3X3X3X3X3X3X3X3X3X3X3X3X3X3X",
"3X3X3X3X3X3X3X3X3X3X3X3X3X3XvXv.~ ^.U.j.U.M.s.A.U.b.l o.= j U.B.$ r.O.,.A n ).; B.o.D V.!.. 3XAX3X3X3X3X3X3X3X3X3X3X3X3X3X3X3X3X",
"3X3X3X3X3X3X3X3X3X3X3X3XyX3X4.g.` i k.) b.*XE.Y.m.V l e f.G.F.y : r.;.r.3 i ).N.` / ; R Z.; X 1 X.3X3X3X3X3X3X3X3X3X3X3X3X3X3X3X",
"3X3X3X3X3X3X3X3X3X3X3XvXS.DXxXB.y l.g.D.r *XQ , O.o.x e F..XT.~ d =.OX:.3.] m.U v.E B = i $ V.7.a [.mX3X3X3X3X3X3X3X3X3X3X3X3X3X",
"3X3X3X3X3X3X3X3X3XSX+X+X=Xh.Q = k P..XF.{ T Q 0.3 ( t v.n.! U 4.s -.p.$./ o.O.N.Y.k.V.; E `.k.b.@ ].hX3X3X3X3X3X3X3X3X3X3X3X3X3X",
"3X3X3X3X3X3X3X3XDX9.L.x.oXXXL.U @ K.s.h.' C.K.G <.: / #.; l B - b ;.4 D j / d 4.M.~ { ' ! Y.v.W '.P.~ D BXq.3X3X3X3X3X3X3X3X3X3X",
"3X3X3X3X3X3X3X3XDXA.F.oX=X>X%.'.Y.' s.*.Z.W h #.<.q.a o.c X > ) $ C O.y T v.g b.E U ^ T F.C.; ; k.T.E.j.g ..3X3X3X3X3X3X3X3X3X3X",
"3X3X3X3X3X3X3XyX'.F.g ,Xi U j.z.I @.N r ' p @ Z ;.OX0.y @X< rX].k = p b.g.P.`.$ #.D.Z.X I ~ v.~ T.g.I.~ N.V.rX3X3X3X3X3X3X3X3X3X",
"3X3X3X3X3X3X3X,.N l.v.,XU.c.n.i b.J ' j.Z.F v . e.A OXe.iXiXy.B.d.' ^ ) ~ l.' V R F.k.d N U F.F.T Y.e b.y ` lX3X3X3X3X3X3X3X3X3X",
"3X3X3X3X3X3X3X3XW P N.z.:Xc.g r i $ j.`.~ h $ #.p ^.K 4 e./.) i m.d.; : V.Q.y j.K.R.k.Q.i _ { P @.T Y.b.e R s aX3X3X3X3X3X3X3X3X",
"3X3X3X3X3X3X3X| ,X'.g ~ ~ Q $ j ' = V R ] : Z 5.x ].T [ N ~ d.' g Q F B.p K i K.{ y !.h U r $ y i Y.R.v.l v   FX3X3X3X3X3X3X3X3X",
"3X3X3X3X3XyXSXjXu D.; ! e B.; F B.j o.p G : X @ - u F z E Z.M.U ^ i 4.U.l.W p / @.g e +.u W.*.h x `.; p ; ; C mX3X3X3X3X3X3X3X3X",
"3X3X3X3X3X3X@XV ! 4.F ~ ] u 3.# u e x O.u $ l [ % u v > $ ; E ; = V.( j.m.).= _ d O., ..,.,.6.: +.f.@.n 1 ..3X3X3X3X3X3X3X3X3X3X",
"3X3X3X3X3X3XNXe ] T ].@ @ h 0.m p u : r s s x e J i @ . $ +._ 7.Q ) $ ^ ; ^ J +.g x S H rXiX| ..r `.^ W.* 3X3X3X3X3X3X3X3X3X3X3X",
"3X3X3X3X3X3XjXp R l.! W `.g.L.S.B  .u - [./.p ( s i x u G j I k.W @ d .. .X - ) x g ; F #. .@ u n.; , u jX3X3X3X3X3X3X3X3X3X3X3X",
"3X3X3X3X3X3X@XC B.T P B.*X%.'.j.K C g /.i.q.# D ; y _ O.h k 4.d.^ F y * | & d u O.v % % % - , ^.].U.[ h  .zX3X3X3X3X3X3X3X3X3X3X",
"3X3X3X3X3X3X3X1 r k Y.i P ^.Z.e & 6.f e.sXi.%XO.g d.R u s : = v r ; +.|   % l $ @ d B b.j V . X Z.N.Y.!.u 8X3X3X3X3X3X3X3X3X3X3X",
"3X3X3X3X3X3X3X> _ e [ M Z.h ) p = H & sXiXK r n d.m.v.h # - v - v X 1 X - = = d F F k N.k.v.s @ i h W y - cX3X3X3X3X3X3X3X3X3X3X",
"3X3X3X3X3X3XX > u b X W.*X-XZ.; s | 2 iX} C.L 7.@.m.[ : . 7 & Z X - - > - $ e.Z r = #.i P B.( O.p r h $ 1 uX3X3X3X3X3X3X3X3X3X3X",
"3X3X3X3X3Xe.> $ - 1 $ X '.M.;X].: | -.q H d.j ^ n h [ 5., 2 8 * # $ S = $ v rXv F u a K i u d $ = s S = 1 3X3X3X3X3X3X3X3X3X3X3X",
"3X3X3X3X3XhXo.$ u v  .@ ^ R P v.; O., 8 -.4.S OX,.3 ) h : 8 w.O H +.Y h D $ Z 6.Z # H $ n X r l F i = v X.sX3X3X3X3X3X3X3X3X3X3X",
"3X3X3X3X3Xb l $ g +.[ a b $ O.p F ^ g % 5 4 ,.e.i.8.&.4.) 2 #X5 C R m.d.V 8.1.0 5 1 $ ^ l a ; V ' W { : kX3X3X3X3X3X3X3X3X3X3X3X",
"3X3X3X3X3X8X1 $ M Z.: u C O., Z C h o.b +.y.0 2.q.=.S.{ E 8 t.5 & u R = B.& 8 e.1 v X d J b m.G.G.d.).j y.3X3X3X3X3X3X3X3X3X3X3X",
"3X3X3X3XbX. Z - Z.Y.U.' p Z ;.| 7 o * * @ ;.q.A ].B 4.u M =.q 3 E m.Y i v.V.- o./.iX6.9.u { '.M.{ j f m.lX3X3X3X3X3X3X3X3X3X3X3X",
"3X3X3X3X3XSX. } = Y.N.U.V.. Z , , 2 :.A M 9.K E `.U.K.] p <.=.;.y d.' f.m.4.#.G ) 8.= r ^ g T u ( = '.m./.3X3X3X3X3X3X3X3X3X3X3X",
"3X3X3X3X3X3X8X3X% M y U r ; F o.( $ s *.U.Y.g.*.I *XE.R.b.J H X / $  X3.8.u r F Y k.].g T r F ^.7.e m.vXAX3X3X3X3X3X3X3X3X3X3X3X",
"3X3X3X3X3X3X3X3XbX: $ ) u ^ ( O.J g _ v.U s.n.u N.U.~ ! ) g *.G ) $ & 3 e.O.K.].r _ ' U.g +.D.! Y.{ h 8X3X3X3X3X3X3X3X3X3X3X3X3X",
"3X3X3X3X3X3X3X3X3X[.v u J ( K n u ].;Xi z 7.; ;X>X; ( ' p ' ,X) G #.g B O.u ; @ +.u _ h e W U.k.Y.M.- AX3X3X3X3X3X3X3X3X3X3X3X3X",
"3X3X3X3X3X3X3X3X3XX.Z  .s - Z Z = Y '.= 5.I $ I .X; Z.! ] = u @ %  .C @ % , o.z E g W _ E -Xk.~ k.R xX3X3X3X3X3X3X3X3X3X3X3X3X3X",
"3X1X2X3X<X1X<X3X3X1Xu.@XX.X.1XzXBX+.j l W E.).B.g _ b.P.~ _ X C Z 7 } 7 # X a a g j.= B.h W ].$ g ^.K 1X1X2X<X2X1X1X2X2X1X1X2X1X",
"|.|.|._.|.{.{.|.(._.{.(.(.Q.{.(.cX( `.= @.j j [ !.h U.P +.$ #.: @ C C ;.% H : - i r @.u z 5.u S H %XCX X|.{.}.}._.}.|.|.|.}.}.(.",
"H.H.H.H.H._.H.H.H.J.H.H.H.H.H.H.H.DXO.@ y e @ . @.@ y R - @ H , O.G 5.K - : : X a ( O.X v ( +X..VXDXH.H.(.J._._.H.H.H._._.(.(.(.",
"H.H.H.H.H.H.H.H.H.H.H.H.H.H.H.H.H.H.*  .$ M X # p S r ^ W.  8 | J p F J O.$ = . C S p v ..@ H.H.H.H.H.J.H.H.J.(.H.H.H.H.H.H.H.H.",
"H.H.H.H.H.H.H.H.H.H.H.H.H.H.H.H.H.H.H.VXX.1 @ S @ p  X% cXfX6 =.Z d v a : - C 1 - - d Z 7 H.H.H.H.H.H.H.H.H.H.H.H.H.H.H.H.H.H.H.",
"H.H.H.H.H.H.H.H.H.H.H.H.H.H.H.H.H.H.H.H.H.H.[.B 1 | SXH.gXtX+ 8 , ..7 } 7 y.} y.8X7 ,.,.AXH.H.H.H.H.H.H.H.H.H.H.H.H.H.H.H.H.H.H.",
"H.H.H.H.H.H.H.H.H.H.H.H.H.H.H.H.H.H.H.H.H.H.H...SXuXH.H.aXeX6 5 < SXH.H.iXH.H.H. XVXVXVXH.H.H.H.H.H.H.H.H.H.H.H.H.H.H.H.H.H.H.H.",
"H.H.H.H.H.H.H.H.H.H.H.H.H.H.H.H.H.H.H.H.H.H.H.H.H.H.H.H.aXeX6 9 H.H.H.H.H.H.H.H.H.H.H.H.H.H.H.H.H.H.H.H.H.H.H.H.H.H.H.H.H.H.H.H.",
"H.H.H.H.H.H.H.H.H.H.H.H.H.H.H.H.H.H.H.H.H.H.H.H.H.H.H.H.tX&X=.>.H.H.H.H.H.H.H.H.H.H.H.H.H.H.H.H.H.H.H.H.H.H.H.H.H.H.H.H.H.H.H.H.",
"H.H.H.H.H.H.H.H.H.H.H.H.H.H.H.H.H.H.H.H.H.H.H.H.H.H.H.H.tXeX-.:.H.H.H.H.H.H.H.H.H.H.H.H.H.H.H.H.H.H.H.H.H.H.H.H.H.H.H.H.H.H.H.H.",
"H.H.H.H.H.H.H.H.H.H.H.H.H.H.H.H.H.H.H.H.H.H.H.H.H.H.H.H.eXeX2.q H.H.H.H.H.H.H.H.H.H.H.H.H.H.H.H.H.H.H.H.H.H.H.H.H.H.H.H.H.H.H.H.",
"H.H.H.H.H.H.H.H.H.H.H.H.H.H.H.H.H.H.H.H.H.H.H.H.H.H.H.H.#XfX2.6 H.H.H.zXnXAXzXMXH.H.H.H.H.H.H.H.H.H.H.H.H.H.H.H.H.H.H.H.H.H.H.H.",
"H.H.H.H.H.H.H.H.H.H.H.H.H.H.H.H.H.H.H.H.H.H.H.dXMXnX5XdXa.fX1.+ uX4X5XqXiX0X0X5XqX0XZXH.H.H.H.H.H.H.H.H.H.H.H.H.H.H.H.H.H.H.H.H.",
"H.H.H.H.H.H.H.H.H.H.H.H.H.H.H.H.H.H.H.H.nX4X0XqXqXqX5X0Xp.fXa.:.a.wXqX5XqX0X0X5X4XqXdXH.H.H.H.H.H.H.H.H.H.H.H.H.H.H.H.H.H.H.H.H.",
"H.H.H.H.H.H.H.H.H.H.H.H.H.H.H.H.H.H.H.H.nXwX4XqX0X5X5XqXp.$X#Xw.i.9X0X0X0XqXwXMXzXH.H.H.AXH.H.H.H.H.H.H.H.H.H.H.H.H.H.H.H.H.H.H.",
"H.H.H.H.H.H.H.H.H.H.H.H.H.H.H.H.H.H.H.pX4XdXwXqX0X0XqX4Xt.#X#X1.i.5X7X0X0X0X0X0X5XwX4X4XqX0X0X5XdXmXH.H.H.H.H.H.H.H.H.H.H.H.H.H.",
"H.H.H.H.H.H.H.H.H.H.H.H.H.H.H.H.ZX4X0XqX5X4X5X0X0X7X0XqXw.#X#Xq i.9X7X0X0X0X0X0X0X0X0XqX0XqX0X0X5XqXqXH.H.H.H.H.H.H.H.H.H.H.H.H.",
"H.H.H.H.H.H.H.H.H.H.H.H.H.H.H.MXwX0X0X0XqX0X7XqX0X7X0X7Xw.#Xp.>.q.9X5X0X0X0X0X0X4X5XpXsXwXqX5XqX0X5XsXH.H.H.H.H.H.H.H.H.H.H.H.H.",
"H.H.H.H.H.H.H.H.H.H.H.H.H.H.H.wX4X0XqX0X5XqXdXqX9X7X0X4X1.$Xt.-.q.9X7X0X0X0X0X0XqXqXqXuX0X5X0X5XwXH.H.H.H.H.H.H.H.H.H.H.H.H.H.H.",
"H.H.H.H.H.H.H.H.H.H.H.H.H.H.H.H.AXwX0XqX5X5X5XqX9X7X0X0X>.eX2.>.w 9X7X0X0X0X0X0XqX0XqX5X5X0X0X5XpXH.H.H.H.H.H.H.H.H.H.H.H.H.H.H.",
"H.H.H.H.H.H.H.H.H.H.H.H.H.H.H.nX5X5X5X4XuXqX0X0X0X9X0X6Xq #X1.q 5 7X9X5X0X0X0X0X4XnXnXqX0XqXpXdXH.H.H.H.H.H.H.H.H.H.H.H.H.H.H.H.",
"H.H.H.H.H.H.H.H.H.H.H.H.H.H.H.pX0X5XwX0XFXnXiX5X7X0X0X6X5 :.6 w t.7X5XpXuXqX0X0XqXqX5X0XqX4XH.H.H.H.H.H.H.H.H.H.H.H.H.H.H.H.H.H.",
"H.H.H.H.H.H.H.H.H.H.H.H.H.H.H.H.H.H.AXH.sX5X0XqX7X7X0X0XqXqX7X7X7X5XwX0X0X0X0X0X0X0X0X0X4XH.H.H.H.H.H.H.H.H.H.H.H.H.H.H.H.H.H.H.",
"H.H.H.H.H.H.H.H.H.H.H.H.H.H.H.H.H.H.H.H.H.AXnX5XnXuX0X0X0XqX9X5XqX0X5X5XwX0XpXZXMXAXH.H.H.H.H.H.H.H.H.H.H.H.H.H.H.H.H.H.H.H.H.H.",
"H.H.H.H.H.H.H.H.H.H.H.H.H.H.H.H.H.H.H.H.H.H.H.H.H.H.H.H.H.H.H.MXdXuXiXnXH.H.H.H.H.H.H.H.H.H.H.H.H.H.H.H.H.H.H.H.H.H.H.H.H.H.H.H."
};
