/* XPM */
static char *fd149949606642c1a26343dd8dce7bf1EsjmzGgjtJXRfqYT[] = {
/* columns rows colors chars-per-pixel */
"64 64 247 2 ",
"   c #090A04",
".  c #001402",
"X  c #001B01",
"o  c #001C0B",
"O  c #0E1F0F",
"+  c #13110A",
"@  c #19140A",
"#  c #061E11",
"$  c #27180D",
"%  c #261D14",
"&  c #002403",
"*  c #002C04",
"=  c #01240C",
"-  c #002B0C",
";  c #00340C",
":  c #013909",
">  c #022413",
",  c #0B2715",
"<  c #012C14",
"1  c #022D1B",
"2  c #0A2B1B",
"3  c #172B18",
"4  c #003314",
"5  c #003C14",
"6  c #02341B",
"7  c #0B311C",
"8  c #013B1C",
"9  c #0C3A1C",
"0  c #1C311E",
"q  c #2D251B",
"w  c #362618",
"e  c #2A311F",
"r  c #073724",
"t  c #033C23",
"y  c #0B3B23",
"u  c #0C3C29",
"i  c #173525",
"p  c #123B24",
"a  c #262E21",
"s  c #342B24",
"d  c #243928",
"f  c #3E352A",
"g  c #473729",
"h  c #483D33",
"j  c #004809",
"k  c #004A0D",
"l  c #005208",
"z  c #004314",
"x  c #004B15",
"c  c #01431C",
"v  c #0C431A",
"b  c #034B1B",
"n  c #14401F",
"m  c #00521C",
"M  c #025A18",
"N  c #005B1C",
"B  c #006107",
"V  c #006915",
"C  c #00631B",
"Z  c #007618",
"A  c #024423",
"S  c #0A4323",
"D  c #034C23",
"F  c #0C4A24",
"G  c #034229",
"H  c #0B452B",
"J  c #034C2B",
"K  c #0C4C2C",
"L  c #11442C",
"P  c #124B2C",
"I  c #1B4A2B",
"U  c #015324",
"Y  c #0D5122",
"T  c #015B24",
"R  c #02542B",
"E  c #0D522B",
"W  c #015B2B",
"Q  c #095C2C",
"!  c #15572C",
"~  c #0C4931",
"^  c #174632",
"/  c #144D32",
"(  c #045C33",
")  c #085836",
"_  c #0C5B34",
"`  c #145432",
"'  c #1C5636",
"]  c #115B35",
"[  c #14563A",
"{  c #145C3B",
"}  c #1C5C3B",
"|  c #26432A",
" . c #264D34",
".. c #25573C",
"X. c #305532",
"o. c #046628",
"O. c #01632D",
"+. c #14612D",
"@. c #03782B",
"#. c #056634",
"$. c #0C6334",
"%. c #046C34",
"&. c #0B633A",
"*. c #036C3A",
"=. c #0B6B38",
"-. c #14633B",
";. c #1B643B",
":. c #186839",
">. c #027C34",
",. c #077739",
"<. c #17763C",
"1. c #24653C",
"2. c #286C3C",
"3. c #47463A",
"4. c #554636",
"5. c #614C37",
"6. c #285942",
"7. c #186743",
"8. c #1B6C43",
"9. c #087A44",
"0. c #147443",
"q. c #1D7543",
"w. c #177C46",
"e. c #1A7549",
"r. c #1F7A52",
"t. c #246A44",
"y. c #276947",
"u. c #3A694E",
"i. c #277849",
"p. c #32774B",
"a. c #2A7C54",
"s. c #387854",
"d. c #545246",
"f. c #695646",
"g. c #49715B",
"h. c #766455",
"j. c #527F60",
"k. c #717169",
"l. c #008518",
"z. c #068837",
"x. c #15863B",
"c. c #44A537",
"v. c #45A53B",
"b. c #198548",
"n. c #0D904A",
"m. c #189647",
"M. c #188953",
"N. c #1B9754",
"B. c #26864A",
"V. c #238553",
"C. c #268657",
"Z. c #2B8A5B",
"A. c #358958",
"S. c #299759",
"D. c #319052",
"F. c #1CA34A",
"G. c #1AA655",
"H. c #27A756",
"J. c #36A357",
"K. c #33AE57",
"L. c #25B559",
"P. c #398D63",
"I. c #2D9563",
"U. c #3A9765",
"Y. c #1FA862",
"T. c #2AAB69",
"R. c #35A966",
"E. c #38B470",
"W. c #44885E",
"Q. c #429D58",
"!. c #47A544",
"~. c #48A545",
"^. c #48A44B",
"/. c #4AA453",
"(. c #4DA35B",
"). c #53A55F",
"_. c #4B8565",
"`. c #47966A",
"'. c #579272",
"]. c #6A8D76",
"[. c #41A666",
"{. c #4FA363",
"}. c #52A26A",
"|. c #56A277",
" X c #47B875",
".X c #4FB871",
"XX c #6CAF69",
"oX c #37C568",
"OX c #41CF69",
"+X c #49C677",
"@X c #85827E",
"#X c #5D9F89",
"$X c #699D88",
"%X c #629D94",
"&X c #659C9D",
"*X c #5BA083",
"=X c #68AF88",
"-X c #74A588",
";X c #689BA3",
":X c #6B99AB",
">X c #6F98B4",
",X c #729AB4",
"<X c #888684",
"1X c #8D8D8D",
"2X c #938D89",
"3X c #96918C",
"4X c #899090",
"5X c #939393",
"6X c #989897",
"7X c #A0958F",
"8X c #A29D98",
"9X c #8AB394",
"0X c #9EA8A2",
"qX c #99B9A7",
"wX c #8AAABE",
"eX c #9FB9B0",
"rX c #A6A5A4",
"tX c #ADADAD",
"yX c #B4B5B0",
"uX c #B9B9B9",
"iX c #C4BAB8",
"pX c #8DC59E",
"aX c #9ACEAC",
"sX c #A6CAB3",
"dX c #AED2B5",
"fX c #9CBBC8",
"gX c #B6D3CD",
"hX c #B6E8C7",
"jX c #C4C5C5",
"kX c #CCDBCB",
"lX c #C3DED3",
"zX c #D4D4D4",
"xX c #D4DBD3",
"cX c #CCE7D8",
"vX c #D4E7DB",
"bX c #C6F5D7",
"nX c #D7F7DC",
"mX c #D9DDE0",
"MX c #CCE2E5",
"NX c #DAEBE7",
"BX c #D8F7E7",
"VX c #E3E4E3",
"CX c #E1E8E0",
"ZX c #F1ECE8",
"AX c #E4F8EA",
"SX c #E6FEF2",
"DX c #F9FFFB",
/* pixels */
">X>X>X>X>X>X>X>X>X>X>X>X>X>X>X>X>X>X>X>X>X>X>X>X>X>X>X>X>X>X>X>X>X>X>X>X>X>X>X>X>X>X>X>X>X>X>X>X>X>X>X>X>X>X>X>X>X>X>X>X>X>X>X>X",
">X>X>X>X>X>X>X>X>X>X>X>X>X>X>X>X>X>X>X>X>X>X>X>X>X>X>X>X>X>X>X>X>X>X>X>X>X>X>X>X>X>X>X>X>X>X>X>X>X>X>X>X>X>X>X>X>X>X>X>X>X>X>X>X",
">X>X>X>X>X>X>X>X>X>X>X>X>X>X>X>X>X>X>X>X>X>X>X>X>X>XNXDXSXbX|.hXDXDXMX>X>X>X>X>X>X>X>X>X>X>X>X>X>X>X>X>X>X>X>X>X>X>X>X>X>X>X>X>X",
">X>X>X>X>X>X>X>X>X>X>X>X>X>X>X>X>X>X>X>X>X>X>X>X>X>XaXp. XN.z.R.q.`.aX>X>X>X>X>X>X>X>X>X>X>X>X>X>X>X>X>X>X>X>X>X>X>X>X>X>X>X>X>X",
">X>X>X>X>X>X>X>X>X>X>X>X>X>X>X>X>X>X>X>X>X>X>X>X>X-XoXm.R.O.N.W q.%.=XwX>X>X>X>X>X>X>X>X>X>X>X>X>X>X>X>X>X>X>X>X>X>X>X>X>X>X>X>X",
">X>X>X>X>X>X>X>X>X>X>X>X>X>X>X>X>X>X>X>X>X>X>X>X>Xy.n.L.: N.>.I.D 0.i.SX>X>X>X>X>X>X>X>X>X>X>X>X>X>X>X>X>X>X>X>X>X>X>X>X>X>X>X>X",
">X>X>X>X>X>X>X>X>X>X>X>X>X>X>X>X>X>X>X>X>X>X>X>XNXI.S.n.O.9.E.W 6 e.<.=X>X>X>X>X>X>X>X>X>X>X>X>X>X>X>X>X>X>X>X>X>X>X>X>X>X>X>X>X",
">X>X>X>X>X>X>X>X>X>X>X>X>X>X>X>X>X>X>X>X>X>X>X>XgXO.G.E.& %.Y.5 t 5 *.V.k.>X>X>X>X>X>X>X>X>X>X>X>X>X>X>X>X>X>X>X>X>X>X>X>X>X>X>X",
">X>X>X>X>X>X>X>X>X>X>X>X>X>X>X>X>X>X>X>X>X>X>X>X>XAXT.W 8 U.T.e...; D ..yX>X>X>X>X>X>X>X>X>X>X>X>X>X>X>X>X>X>X>X>X>X>X>X>X>X>X>X",
">X>X>X>X>X>X>X>X>X>X>X>X>X>X>X>X>X>X>X>X>X>X>X>X0X6 4 5 =.c w.W K A ) ..>X>X>X>X>X>X>X>X>X>X>X>X>X>X>X>X>X>X>X>X>X>X>X>X>X>X>X>X",
">X>X>X>X>X>X>X>X>X>X>X>X>X>X>X>X>X>X>X>X>X>XcXE R c D D $.R &.$.-.R R D 6 d.>X>X>X>X>X>X>X>X>X>X>X>X>X>X>X>X>X>X>X>X>X>X>X>X>X>X",
">X>X>X>X>X>X>X>X>X>X>X>X>X>X>X>X>X>X>X>X>X>XA.z.N.w.,.o.$.%.#.D #.*.$.b.9.U sX>X>X>X>X>X>X>X>X>X>X>X>X>X>X>X>X>X>X>X>X>X>X>X>X>X",
">X>X>X>X>X>X>X>X>X>X>X>X>X>X>X>X>X>X>X>X>XCXJ.L.@.k >.b.O.>.I.8 C.9.#.9.S.S.1.>X>X>X>X>X>X>X>X>X>X>X>X>X>X>X>X>X>X>X>X>X>X>X>X>X",
">X>X>X>X>X>X>X>X>X>X>X>X>X>X>X>X>X>X>X>X>X9X+XL.z.b.F.@.M.z.T.m %.,.b.T k M `.lX>X>X>X>X>X>X>X>X>X>X>X>X>X>X>X>X>X>X>X>X>X>X>X>X",
">X>X>X>X>X>X>X>X>X>X>X>X>X>X>X>X>X>X>X>X>X>XnX+.x G.Z +Xk K.L.z.l C N.o.* x nX>X>X>X>X>X>X>X>X>X>X>X>X>X>X>X>X>X>X>X>X>X>X>X>X>X",
">X>X>X>X>X>X>X>X>X>X>X>X>X>X>X>X>X>X>X>X>XcX .X - z.H.v i.l.l m.S.Q [.* 8 = AX>X>X>X>X>X>X>X>X>X>X>X>X>X>X>X>X>X>X>X>X>X>X>X>X>X",
">X>X>X>X>X>X>X>X>X>X>X>X>X>X>X>X>X>XgXpXK -.y.s.< 6 & & 7 z * Z.v A X i ` } t r qX>X>X>X>X>X>X>X>X>X>X>X>X>X>X>X>X>X>X>X>X>X>X>X",
">X>X>X>X>X>X>X>X>X>X>X>X>X>X>X>X>X>X .p.c y.` K D - ` { ) _ ) ( c 8 ` L 6 4 D -.6.4X>X>X>X>X>X>X>X>X>X>X>X>X>X>X>X>X>X>X>X>X>X>X",
">X>X>X>X>X>X>X>X>X>X>X>X>X>X>X>X>X>XwX5 W R :.m <.* i.5 *.#.: A #.] A G ) D D c y >X>X>X>X>X>X>X>X>X>X>X>X>X>X>X>X>X>X>X>X>X>X>X",
">X>X>X>X>X>X>X>X>X>X>X>X>X>X>X>X>X>XaX@.H.R.N >.B.T T i.S.S.c y.C.:.K [ 6 c e.b.R NX>X>X>X>X>X>X>X>X>X>X>X>X>X>X>X>X>X>X>X>X>X>X",
">X>X>X>X>X>X>X>X>X>X>X>X>X>X>X>X>XcXO.oXOX@.S.S.$.V.n.x S.N.W r.*.M.) R J D <.b.U.qX>X>X>X>X>X>X>X>X>X>X>X>X>X>X>X>X>X>X>X>X>X>X",
">X>X>X>X>X>X>X>X>X>X>X>X>X>X>X>X>XwXC M N o.F.@.x n.J.m m F.N U.S.w.e.R x <.U U 5 i.i.g.>X>X>X>X>X>X>X>X>X>X>X>X>X>X>X>X>X>X>X>X",
">X>X>X>X>X>X>X>X>X>X>X>X>X>X>X>Xy.;.B.Q 1.+.[.x 8 E.j j  XL. X,.;.U ] y s.U.: Q -.:.: y.>X>X>X>X>X>X>X>X>X>X>X>X>X>X>X>X>X>X>X>X",
">X>X>X>X>X>X>X>X>X>X>X>X>X>X>Xd `.w.q.z ; y.: 8 7 1.b ; ; A.z F 5 , , 0 9 ` 5 ' ' ! u.dX>X>X>X>X>X>X>X>X>X>X>X>X>X>X>X>X>X>X>X>X",
">X>X>X>X>X>X>X>X>X>X>X>X>X>X>X>X. k ! R 5 A D S 7 8 A - - 3.X.  < O . - p S - & F - qX>X>X>X>X>X>X>X>X>X>X>X>X>X>X>X>X>X>X>X>X>X",
">X>X>X>X>X>X>X>X>X>X>X>X>X>X>XhXy.T ,.O.e.( _ ` - -.R D c d 0 i > u t t L G H H A D ' sX>X>X>X>X>X>X>X>X>X>X>X>X>X>X>X>X>X>X>X>X",
">X>X>X>X>X>X>X>X>X>X>X>X>X>XlXp.H.L.n.o.0.U ;.D c #.8.- A -.R J [ 4 y ] t 7.u A H $.O.=.- >X>X>X>X>X>X>X>X>X>X>X>X>X>X>X>X>X>X>X",
">X>X>X>X>X>X>X>X>X>X>X>X>X>XxX[.B l M b.b.U c 0.w.V.#.$.R &.#.7.A R H _ t 4 6 ( ; z P.8.6.>X>X>X>X>X>X>X>X>X>X>X>X>X>X>X>X>X>X>X",
">X>X>X>X>X>X>X>X>X>X>X>X>X>XgXW.o.x.H.<.#.*.P.x b.W 5 0.#.O.M.-.U.V.b 7.R 5 < -.e.8.8.E BX>X>X>X>X>X>X>X>X>X>X>X>X>X>X>X>X>X>X>X",
">X>X>X>X>X>X>X>X>X>X>X>XBXu.;.y.;.%..Xx M H.V.<.m.U.R x <.,.C a.W ,.O.J 0.Z.9 6 { F c F ! ..hX>X>X>X>X>X>X>X>X>X>X>X>X>X>X>X>X>X",
">X>X>X>X>X>X>X>X>X>X>XsXp.o.z c & 8 X <.V Z 0.x x.F D E.x x.N.8 P.R.U.P 4 * . , < 2 = X * m A.vX>XwX>X>X>X>X>X>X>X>X>X>X>X>X>X>X",
">X>X>X>X>X>X>X>X>X>X>X$X1.B.z & ` / ] c J.C < & N - c x Q k j I X U.x o < p i # 6 r u H E ;.! eX>X>X>X>X>X>X>X>X>X>X>X>X>X>X>X>X",
">X>X>X>X>X>X>X>X>X>X>X>X>Xs.-.( &.R 8 ` c 8 .  .- X & v 1.P , , & 6 X E 6 . , > u 1 / ) _ { dX>X>X>X>X>X>X>X>X>X>X>X>X>X>X>X>X>X",
">X>X>X>X>X>X>X>X>X>XAX=XB.H.S.S.Z.{ K K H X ' / K H K S p 7 p i H y 7 ' . u 6 o u t J ~ } { Z.y.SX>X>X>X>X>X>X>X>X>X>X>X>X>X>X>X",
">X>X>X>X>X>X>X>X>X>X].+XZ Z o.T -.-.6 ) y.< * e.H y ' H [ 4 t = 6 t P < , L ~ H = 8 [ [ A c e.a.d >X>X>X>X>X>X>X>X>X>X>X>X>X>X>X",
">X>X>X>X>X>X>X>X>X>XbXm B.@.H.S.U c :.=.( ( V.) G 7.4 J y.7.6 ] ~ J ( / { 6 8 &.A 7 r _ 8.7.- b wX>X>X>X>X>X>X>X>X>X>X>X>X>X>X>X",
">X>X>X>X>X>X>X>X>X>XCXhXF R..X=.U B.,.Q Z.M.0.~ t 8.7.c I.C.) a.- R 9.8 &.D ] { :.[ r 4 P * * o. .].>X>X>X>X>X>X>X>X>X>X>X>X>X>X",
">X>X>X>X>X>X>X>X>XlXt._.|.D N U D b.>.Q O.N.q.4 { ,.W Z.x ( i.z A `.W ;.( M.W c A.4 < y < - c k } y >X>X>X>X>X>X>X>X>X>X>X>X>X>X",
">X>X>X>X>X>X>X>XCX..i.U $.R y.{ ' c ; i.m @.z = P.b.W.8 U.b.: A.& & =.5 A.w.O.y./ o 2 1 / 6 P c X 8.g.NX>X>X>X>X>X>X>X>X>X>X>X>X",
">X>X>X>X>X>X>X>XcX1.:.U $.] 6 4 u ' P y U D I p y x & F 5 :.m ; 3 = . = = - P - > 2 2 2 o t G R K } ( u.>X>X>X>X>X>X>X>X>X>X>X>X",
">X>X>X>X>X>X>X>X>XkXb m z ] / ) 8 [ L 7 < / I i o | 0 O | | - a @ @ a a O i . , # 1 y 7 1 > 1 J ' F i.p >X>X>X>X>X>X>X>X>X>X>X>X",
";X:X:X>X>X>X>X>X>X>XbXq.0.Q :.#.8.-.- > 6 y 1 > .   i 0 2 3 7 , , > 2 6 p 7 X 2 1 1 = 6 8 L r { * 8.y BX>X>X>X>X>X>X>X>X:X:X:X>X",
"&X#X&X;X#X*X#X%X&X>XdXU W x o.N 5 -.5 P 6 8 L < > t 6 t 2 y < L 6 o y r 8 K 4 = 8 < > - D :.J ` V.Z.>X>X#X|.#X%X;X%X%X#X%X;X%X&X",
"}.(.|.{.}.{.{./.{.:X,X>XbXb.q._ C.r.8 ^ t 7.S y < R D n = 9 v D H - ` ^ < R K y G y S = = O.<.$.y.' vX:X{.{.|.|.}.|.{.(.(.|.|.}.",
"(./.{.^.(.(.(.!.~.%X$XCXu.P.=.,.,.W 5 5 ] { 4 8 A K 5 P < ..: =.) 8 J A 7 _ :.4 c _ _ A '.` E -XMXfX;X%X/./.{.~.v./.^.^.{.(.^.^.",
"c.~.~.~.v.c.~.c.v.{.{.XXvXBXV.>.b.E J O.B.y.c W T Q O.1.R q.z w.;.< _ B.< ;.q.B.k U.b._.vXsXcXc.c.c.).(.^.v.c.c.c.c.c.v.c.c.c.c.",
"c.c.c.c.c.c.c.c.v.(.^.^.!.c.BX|.-Xc.gXZ.[.N B.,.o.B.C N Y N l x.N ! W.x.1.0Xp.F.:.pXs.cXc.c.c.c.c.c././.~.c.c.c.c.c.c.c.c.c.c.c.",
"c.c.c.c.c.c.c.c.c.^.c.c.c.c.c.c.c.c.c._.2.J.K.b.m <.<.X.2.@.x.H.Q.bX'.J.9Xc.AXA.j.c.dXc.c.c.c.c.c.c.!.^.c.c.c.c.c.c.c.c.c.c.c.c.",
"c.c.c.c.c.c.c.c.c.c.c.c.c.c.c.kXc.c.c.AXSXl K.B.SXsX].nX3 +.b D.X.9XSXaXc.c.c.dXc.c.c.c.c.c.c.c.c.c.c.c.c.c.c.c.c.c.c.c.c.c.c.c.",
"c.c.c.c.c.c.c.c.c.c.c.c.c.c.c.c.c.c.c.c.c.X.9Xc.c.c.c.VXq + e e O c.c.c.c.c.c.c.c.c.c.c.c.c.c.c.c.c.c.c.c.c.c.c.c.c.c.c.c.c.c.c.",
"c.c.c.c.c.c.c.c.c.c.c.c.c.c.c.c.c.c.c.c.c.c.c.c.c.c.c.iXw f f q + c.c.c.c.c.c.c.c.c.c.c.c.c.c.c.c.c.c.c.c.c.c.c.c.c.c.c.c.c.c.c.",
"c.c.c.c.c.c.c.c.c.c.c.c.c.c.c.c.c.c.c.c.c.XXc.c.c.c.c.7Xw h w @ + c.c.c.c.c.c.c.c.c.c.c.c.c.c.c.c.c.c.c.c.c.c.c.c.c.c.c.c.c.c.c.",
"c.c.c.c.c.c.c.c.c.c.c.c.c.c.c.c.c.c.c.c.c.c.c.c.c.c.c.d.4.4.% @   c.c.c.c.c.c.c.c.c.c.c.c.c.c.c.c.c.c.c.c.c.c.c.c.c.c.c.c.c.c.c.",
"c.c.c.c.c.c.c.c.c.c.c.c.c.c.c.c.c.c.c.c.c.c.c.c.c.c.c.w 5.g % +   5X1X5XuXc.c.c.c.c.c.c.c.c.c.c.c.c.c.c.c.c.c.c.c.c.c.c.c.c.c.c.",
"c.c.c.c.c.c.c.c.c.c.c.c.c.c.c.c.c.c.c.c.c.c.c.c.c.c.ZXf 4.4.s % % 8X5X6XuXVXc.c.c.c.c.c.c.c.c.c.c.c.c.c.c.c.c.c.c.c.c.c.c.c.c.c.",
"c.c.c.c.c.c.c.c.c.c.c.c.c.c.c.c.c.c.c.c.c.c.c.c.VXjX2X% w w 4.w $ <X1X<XtX6XrXjXc.c.c.c.c.c.c.c.c.c.c.c.c.c.c.c.c.c.c.c.c.c.c.c.",
"c.c.c.c.c.c.c.c.c.c.c.c.c.c.c.c.c.c.c.c.c.c.VXjXtX@X3Xg w w h.w $ s 8X6X6X5X5XtXzXc.c.c.c.c.c.c.c.c.c.c.c.c.c.c.c.c.c.c.c.c.c.c.",
"c.c.c.c.c.c.c.c.c.c.c.c.c.c.c.c.c.c.c.c.c.c.c.jX5X8X3.k.g f.f.w h f q 3XzXzXtXuXzXVXc.c.c.c.c.c.c.c.c.c.c.c.c.c.c.c.c.c.c.c.c.c.",
"c.c.c.c.c.c.c.c.c.c.c.c.c.c.c.c.c.c.c.zXuX6X1XuX5Xh s s h h.4.$ q q d.@X<X6XuXc.c.c.c.c.c.c.c.c.c.c.c.c.c.c.c.c.c.c.c.c.c.c.c.c.",
"c.c.c.c.c.c.c.c.c.c.c.c.c.c.c.c.c.c.VXtX1X1X1X5X5X2X2X3Xf f.g $ d.s q 2XrX<X1X1X5X1X5X6Xc.c.c.c.c.c.c.c.c.c.c.c.c.c.c.c.c.c.c.c.",
"c.c.c.c.c.c.c.c.c.c.c.c.c.c.c.c.c.c.c.c.c.c.5XuXtX6X4X6X3Xd.3.2X5X6X6X4X6XrXc.c.c.c.c.c.c.c.c.c.c.c.c.c.c.c.c.c.c.c.c.c.c.c.c.c.",
"c.c.c.c.c.c.c.c.c.c.c.c.c.c.c.c.c.c.c.c.c.c.c.c.c.c.c.mXc.yXrX6XVXjX0XjXc.c.c.c.c.c.c.c.c.c.c.c.c.c.c.c.c.c.c.c.c.c.c.c.c.c.c.c.",
"c.c.c.c.c.c.c.c.c.c.c.c.c.c.c.c.c.c.c.c.c.c.c.c.c.c.c.c.c.c.c.c.c.c.c.c.c.c.c.c.c.c.c.c.c.c.c.c.c.c.c.c.c.c.c.c.c.c.c.c.c.c.c.c.",
"c.c.c.c.c.c.c.c.c.c.c.c.c.c.c.c.c.c.c.c.c.c.c.c.c.c.c.c.c.c.c.c.c.c.c.c.c.c.c.c.c.c.c.c.c.c.c.c.c.c.c.c.c.c.c.c.c.c.c.c.c.c.c.c."
};
