/* XPM */
static char *_bd795c25a0347eea30aedd003006e2fMcWuxRxeVBN3VNkL[] = {
/* columns rows colors chars-per-pixel */
"64 64 233 2 ",
"   c #1C1712",
".  c #2C1501",
"X  c #271807",
"o  c #28160B",
"O  c #2D1C0C",
"+  c #341C02",
"@  c #3A1D07",
"#  c #331E0D",
"$  c #361F12",
"%  c #2F200C",
"&  c #3D2202",
"*  c #35220D",
"=  c #3C230B",
"-  c #3E290A",
";  c #262014",
":  c #342213",
">  c #3B2511",
",  c #392618",
"<  c #3C2B1C",
"1  c #3A2D22",
"2  c #332F28",
"3  c #431C00",
"4  c #442304",
"5  c #4B2401",
"6  c #4B2A05",
"7  c #42250B",
"8  c #462708",
"9  c #442A0C",
"0  c #4B2B0B",
"q  c #522A02",
"w  c #562E07",
"e  c #57320A",
"r  c #422711",
"t  c #452C14",
"y  c #4C2E13",
"u  c #462E1B",
"i  c #542E13",
"p  c #443017",
"a  c #4C3214",
"s  c #44321C",
"d  c #4B331B",
"f  c #543313",
"g  c #593617",
"h  c #5C3C15",
"j  c #52321A",
"k  c #553A1E",
"l  c #5D3D1C",
"z  c #62300D",
"x  c #623C13",
"c  c #663A16",
"v  c #613E1A",
"b  c #492F23",
"n  c #493625",
"m  c #43352A",
"M  c #543B27",
"N  c #533C25",
"B  c #5B3D23",
"V  c #483B33",
"C  c #643B24",
"Z  c #3A4F3E",
"A  c #395130",
"S  c #3A513B",
"D  c #5C451B",
"F  c #68441A",
"G  c #724718",
"H  c #7D5719",
"J  c #4F442E",
"K  c #5D4224",
"L  c #5B442A",
"P  c #494239",
"I  c #544334",
"U  c #584739",
"Y  c #41553B",
"T  c #634323",
"R  c #674928",
"E  c #744D27",
"W  c #6A5429",
"Q  c #765428",
"!  c #7A552B",
"~  c #634B34",
"^  c #6B4D32",
"/  c #624D3B",
"(  c #764F32",
")  c #65513C",
"_  c #6B543A",
"`  c #765635",
"'  c #7D5A34",
"]  c #7C5A3C",
"[  c #7A6232",
"{  c #3B4E44",
"}  c #3C4D4C",
"|  c #3C5142",
" . c #3F514A",
".. c #3C4B55",
"X. c #554B43",
"o. c #425643",
"O. c #465946",
"+. c #43544D",
"@. c #4B5B4C",
"#. c #595549",
"$. c #404E55",
"%. c #414F58",
"&. c #425252",
"*. c #4C5957",
"=. c #695847",
"-. c #765B46",
";. c #755C45",
":. c #625855",
">. c #50604F",
",. c #566455",
"<. c #79624A",
"1. c #7B644D",
"2. c #6B6154",
"3. c #776757",
"4. c #7E6D5C",
"5. c #656967",
"6. c #786C62",
"7. c #777567",
"8. c #6E767D",
"9. c #72767A",
"0. c #73797A",
"q. c #7B7A78",
"w. c #845A2B",
"e. c #835C35",
"r. c #8B632B",
"t. c #876439",
"y. c #936838",
"u. c #99723D",
"i. c #846444",
"p. c #896946",
"a. c #8E6F4D",
"s. c #956B47",
"d. c #987547",
"f. c #94744A",
"g. c #846B55",
"h. c #8C7558",
"j. c #977A58",
"k. c #A2774C",
"l. c #A37B4C",
"z. c #A37C56",
"x. c #877866",
"c. c #957C65",
"v. c #857D77",
"b. c #927D74",
"n. c #7E847F",
"m. c #9B885D",
"M. c #A9834C",
"N. c #AB8552",
"B. c #AA865B",
"V. c #B68F59",
"C. c #9A8369",
"Z. c #86827A",
"A. c #928273",
"S. c #998879",
"D. c #AA8A66",
"F. c #AF8F6C",
"G. c #B89564",
"H. c #AA9377",
"J. c #B39A79",
"K. c #C39D67",
"L. c #CAA064",
"P. c #C8A677",
"I. c #8B8984",
"U. c #8A898A",
"Y. c #958E86",
"T. c #8D928B",
"R. c #99948B",
"E. c #8C8D91",
"W. c #928F91",
"Q. c #8E9294",
"!. c #939394",
"~. c #989895",
"^. c #95959A",
"/. c #9B9A9B",
"(. c #A59685",
"). c #AA9B8D",
"_. c #B69D86",
"`. c #AC9D94",
"'. c #9DA098",
"]. c #B7A28A",
"[. c #BCB08A",
"{. c #A8A196",
"}. c #B8A899",
"|. c #979AA2",
" X c #99A3AA",
".X c #A4A4A4",
"XX c #A6A8A7",
"oX c #AEADAA",
"OX c #B9ACA3",
"+X c #AFB1A8",
"@X c #BDB1A3",
"#X c #BAB2AA",
"$X c #B6B6B6",
"%X c #BBBBBB",
"&X c #C5AF9A",
"*X c #C8B890",
"=X c #C8B8A8",
"-X c #D1BCA8",
";X c #C5BCBA",
":X c #BFC1BE",
">X c #D3C2AD",
",X c #C6C3B9",
"<X c #D8C8B7",
"1X c #E4CEBA",
"2X c #F2CDB4",
"3X c #F4D9BC",
"4X c #BEBBC1",
"5X c #C6C8C8",
"6X c #CBCACA",
"7X c #D6CBC5",
"8X c #D6D4CA",
"9X c #DDD4CA",
"0X c #CDCED9",
"qX c #D9D6D4",
"wX c #DDDBDB",
"eX c #E9D6C9",
"rX c #E9D8C8",
"tX c #F5DDCA",
"yX c #E5DCD5",
"uX c #DFE4DE",
"iX c #E6E0C0",
"pX c #FBE4CC",
"aX c #E9E3D9",
"sX c #FCEBD5",
"dX c #F6E8DA",
"fX c #FFF4DD",
"gX c #FFFADE",
"hX c #E4E5E5",
"jX c #EDE5E2",
"kX c #F4EAE3",
"lX c #F8EBE3",
"zX c #FEF3E5",
"xX c #FFFAE5",
/* pixels */
"........................................................................wX......................................................",
"..........{.wX............hX..........................................q.wX......................................................",
"..........v.v.............6X..............aXyX......................%XyX........................................................",
"..........).2.............8X..............yXx.!...................qXP ..........................................................",
"..........@Xx.,X..........qX..............oXsXx.9X..............7X:.;X..........................................................",
"..........<X1.rXoX......aXaX................aX}.6...!...9.....X.V ..............................................................",
"..........rX;.-X,X....9.,XjX................0.dXv.dX0.0.oXyXOX1 #XwX............................................................",
"..........pX1.] tX......v.......................~.=.fXgX<X-.n ..................................................................",
"..........fXD.i.=.....9XX.........................h.F.a.H.N <X..................................................................",
"..........xXC.J.d ....@XV ........................h.` B.h.S.,X..................................................................",
"..........aXgX*Xa.D.2X_ x.........................j.t.d.k ......................................................................",
"............+X].J.& T L (.........................j.Q R N ..........................8X>X........................................",
"..............tXH.h 6 ~ 4.........................c.F l <...........................aX@X......................XXyX..............",
"................xXm.W ( R xX......................<.K r ).........................,X).kX................qX#.2 jX................",
"..................[.[ w.B.a 1X................oXxXL ~ O @X........................rX3.............aX}.m U ......................",
"..............4X..iXp.G e.] ^ 8X............8.fXtXk 1.1 7X........................-X=.....Q...8XzXS.=.).dX......................",
"..................0.8X' t.G.s.a.zX............3X' j.~ <X..!.....wX6X..............c.4.....+XsXc.1.I }...zX......................",
"......................>XK e.G x g ).aX..9.....! y.a.= 2.I I U Z.aX..!.............-.1X..0.].h.- p lX............................",
"......................0.S.j.w.c 6 1.3.8X....aXk.w.( + U =.A.<X..................0._ 3X..rX` D 9 _...............................",
"..........................A./ i.t.h t.T 7 ^ ] T l > 4.............................B 2XH.g.. I ............................;X`.yX",
"#XlX........................b.' Q l.N.B.l a 0 <.n U lX..........................}.T R ~ # ).....................jX#X..lXOXm 7X..",
"`.S.=XxXdX............0.zXxXtXz.e.d.N.f.l y = L $ `.............................C.F e * , lX....................yX-XzX(.n 7X....",
"..H.h.}.].]._.g.<.1.;.N d R T 3 G B.B.f 0 b $ b , ............................c.<.9 . Y.aX....................zX4.c.R ) tX....8.",
"......dX=XS.S.(.(.}.>X).A.=.L T k v 6 6 l j @ $ : }.......................fXpXt.K O S.....................aXxX<.) n 3.aX........",
"............................rXx.L k R g l 4 j ~ # V lX..................aX3XB.t.t 6.....................0.sX&X_ s }.............",
"..................................eX3.] p.t.G g ^ < , jX..Q...4X....;XsX*Xf.W a s ....................1XJ.f.f g.9X..............",
"......................................-.d N.M.F F 9 p $ U dX....kX>XC.F.' g R 2...................dXg.j.z.. ~ 0.................",
"......................................7X/ y.u.w ! K = # , X.A.}.}._ j.e.F 7 M 6X..................S.M j.e.< @X..................",
"..........................................v G V.F E f * s n * d W D f.x C b.......%X............7Xj ` 5 e 3.....................",
"............................................c.G.y.5 ! u , < * 9 9 s n X.9X....................dX<.R i.j y r N 8X................",
"............................................tXD.M.r.x B b , u k t n V lXkX....................aX=.] ] t M h.1.S.oX..............",
"..............................................a.d.y.G.R = # > . , ;X..........................<XU ;.t `...<Xh.x.-.8XzX..........",
"..............................................<Xj.e E z.] d u < o :...9.......................].~ > : ........A.X / 4.<XdX......",
"..............................................U.=Xi.q w.l.8 y # m   v.....................,XfX_ L n I ............=X).3.m 2 2 :X",
"..................................................j.s.w.N.e 8 > O ; P ................kX0.sX_.B M b <X..................kX8X5X..",
"..................................................eX^ d.u.d.E B u * , =XoX..zX9.......(.-.c.-.7 # jX............................",
"................................................0X..>XF G w.G.T l 0 j & B p.<.f T j.h._ y ^ y 3.................................",
"..} ................................................rXQ r.w y.t.i 3 i E ( j.p.6 F l.t.M @ j B ..................................",
"..} ..................................................j.B.H 3 ( s.x q y.B.s.h k i.^ 7   ; 7X....................................",
"} } ..................................................D.' K.Q i T E q l.B.0 B * p M b.qX........................................",
"..} ..................................................P.T G.w.0 T ` h d.z.8 + , 3.fX....%.......................................",
"} } } ........} ................................$...zX! 6 q P.` 0 i.6 ' e.r O ....$.............$.......&.......} } ............",
"} } } } ..} } } } } } } } } } ..................*...pX4 f q x Q d -.i C g n : ................$.......&.&.} } } } } ............",
"} } } } } } } } } } { } { } } } } } ............*...<X- f 5 w ' N -.j g i ) 6...............$.&.+.*.&.&.&.} } &.} } } } ........",
"} { { { { { { { { { { { { { } } } } } } } } } ..*...eXh e 5 ! ' . ^ j R ( > A.............*.&.&.+.*.+.&.+.+.+.+. .} } } } } ....",
"S Z Z S | { { { { { Z Z Z Z { { } } { } } } } } @.S A a.e d.K.y + K l v p.K d A A S S | O.@.o.@.5.,.@.@.@.+.+.+.| { |  .{ { { { ",
"A S S S S S Z Z S S Z S S S Z S S { { | { { { o.S S A J.! P.G.7 + l l x ' ^ = A A S A S ,.@.@.>.n.@.>.@.@.O.O.o.| | | | S | S S ",
"A A A A S S S S S S S S S S S S S S S S Z | S S o.S A R l.K.w.@ T W f v v i.0 &XA A A @.,.O.,.!.'.@.@.O.o.o.o.S S S S S S S S S ",
"A A A A A S S S A A A A A A S S S S A S S S S S S wXA C z u.4 K w.6 t < M i.E 8 3.XX X.X.X/.!.$XY S S Y Y A A A A A A S S S A A ",
"A A A A A A A A A A A A A A A A A A A A A A A A A A =X] e ! & ` d.0 t : n a.s.4 > Q.|././.^.^.$XA A A A A A A A A A A A A A A A ",
"A A A A A A A A A A A A A A A A A A A A A A A A A F.D R R r + f.f.d % o O ^ z.f d #.I.T././.$XA A A A hXwXA A A A A A A A A A A ",
"A A A A A A A A A A A A A A A A A A A A A A A 7.pXN.V.R J * 9 M.t.d % X : & e.d.Q . J ~.I.!.!.4X5X5X%XI.oXA A oXoXA A A A A A A ",
"A A A A A A A A A A A A A A A A A A A A A A A sXB.L.V.R s > a d.s.d O X < 4 R B.z.0 * R.T.~.!.!.^.!.!.{.%XoXXXT.$XA A A A A A A ",
"A A A A A A A A A A A A A A A A A A A A A A 7Xy.V.M.E > X & g s.z.8 . . # . 6 Q l.w T V (.I.~.!.U.E.E.!.!.U./.wXA A A A A A A A ",
"A A A A A A A A A A A A A A A A A A A A %XR.x.d.! 4 . V #.9 h s.s.y = , X b . k l t.' j.p {.Y.W.!.E.Q.!.!.%XA A A A A A A A A A ",
"A A A A A A A A A A A A A A A A A A A A yX6.3.a & O 1 v.R.t F l.d.t + 7.X.X.: n L K j.j.h.=.Y.Y./.%X4XXX/..XhXA A A A A A A A A ",
"A A A A A A A A A A A A A A A A A A A R.:.I =.v.I.U./.Q.U.h.f.M.p.N # Y.^./.^.~.6.=.* x 6 c., I.I.A A A A $XA A A A A A A A A A ",
"A A A A A A A A A A A A A A A A A A A A XX6X5X6X8XuXhX5X$XA.j.G.u.9 s W.^.Q.T.T.T.!.W.Z.7.:.X.  q.A A A A A A A A A A A A A A A ",
"A A A A A A A A A A A A A A A A A A A A A A A A T.A A A T.{.c.D.N.0 ) !.|.Q.!.'.~.^.|..X.X!.U.5.5.A A A A A A A A A A A A A A A ",
"A A A A A A A A A A A A A A A A A A A A A A A A A A A A A dX}.p.G.t x.U.E.5XA A A A A A A A A hXwXA A A A A A A A A A A A A A A ",
"A A A A A A A A A A A A A A A A A A A A A A A A A A A A A A dX<.h.) (./.hXA A A A A A A A A A A A A A A A A A A A A A A A A A A ",
"A A A A A A A A A A A A A A A A A A A A A A A A A A A A A A 7.3._ 4.Y.6XA A A A A A A A A A A A A A A A A A A A A A A A A A A A ",
"A A A A A A A A A A A A A A A A A A A A A A A A A A A A A A A 3., Y.#XA A A A A A A A A A A A A A A A A A A A A A A A A A A A A ",
"A A A A A A A A A A A A A A A A A A A A A A A A A A A A A A A 6XjXA A A A A A A A A A A A A A A A A A A A A A A A A A A A A A A "
};
