/* XPM */
static char *e5eb25f57fe64fb1fec8e3d52ec3e0eaDGqW0q7yCyw1h69B[] = {
/* columns rows colors chars-per-pixel */
"64 64 49 1 ",
"  c #759AB4",
". c #769AB4",
"X c #7C9DB4",
"o c #7D9DB4",
"O c #7E9DB4",
"+ c #7F9EB4",
"@ c #809EB4",
"# c #819EB4",
"$ c #819FB4",
"% c #829FB4",
"& c #839FB4",
"* c #83A0B4",
"= c #84A0B4",
"- c #85A0B4",
"; c #86A0B4",
": c #86A1B4",
"> c #87A1B4",
", c #88A1B4",
"< c #88A2B4",
"1 c #89A2B4",
"2 c #8AA2B4",
"3 c #8BA2B4",
"4 c #8BA3B4",
"5 c #8CA3B4",
"6 c #8DA3B4",
"7 c #8DA4B4",
"8 c #8EA4B4",
"9 c #8FA4B4",
"0 c #8FA5B4",
"q c #90A5B4",
"w c #91A5B4",
"e c #92A5B4",
"r c #92A6B4",
"t c #93A6B4",
"y c #94A6B4",
"u c #94A7B4",
"i c #95A7B4",
"p c #96A7B4",
"a c #96A8B4",
"s c #97A8B4",
"d c #98A8B4",
"f c #99A9B4",
"g c #9AA9B4",
"h c #9BA9B4",
"j c #9BAAB4",
"k c #9CAAB4",
"l c #9DAAB4",
"z c #9DABB4",
"x c #9EABB4",
/* pixels */
"jzzzjizzzzzs&49jissjti99jzjit99tst994t4tj9t5tjtijj44zzjjjiiszzzz",
"zzzzzsjzzzjs4ttsjzjj5s9&4jzsijjjjsit>944i9stijt4sst>jzzjjji5sjzz",
"zzzzzszzzzjjijjtszzj5t5&+izjtsjzzzjt4tst54>9zzjttij4izzzzzt>tizz",
"izzzzijzzzzjjjji9tij599&4iij54jzzzjittij9>+4zzzzsjs99jzzzj4ttjzz",
"9zzjziijjijsjjzzit9t994&is4tt4ijzjjsjstiit94jzzzzzitttjzjt9jszzz",
"tjzjjjit9tjjjsjzzji5t449ijttjjtsjjjjzjttjjjtjzzzzztjjiizjtjzzzzz",
"iszjjzt44tjzzjijzzztttsjtitjjjttsjjzzjt4ii9tjjjzzjtzzjijsijzzzzz",
"jjjjis9ttizzzzjijzzj4tzjjs49iitiiiijzjt>944tstijzzjzzzzjj99jzzzz",
"jjsss94ijjjjjstttjzj&9jjsjitjjsjttijzst9t>9iiijzjzzjzzzjj599izjz",
"zjjis449jsits9tt4tji*4ijtsjzjssst4sjji5ti44ijzzzzzzzjjzji9ji9jjz",
"zjjti>t4tttijijj99i945iziiijij9ii4jjjs9tit54jzzzzzjjjijzitjj5jjz",
"zjjsj4i4iiszjijji949tijjtstisz9sjtjjjsssiji4szzzzjjijiizjtit&ijj",
"zzjis5t4jjjjjsjjjt>ttst4>99izzjjjizjttjjiizjjzzjjtt9tttzjtit+isj",
"zjtii9j>zitijjjjji4t95*>9tt9szzjjjji9tjjjtszzzzzzttiiitzjjjj*zzz",
"ji5jttz>jttjjijij49>>>9izzs45jjjsjiijtjsjj5zzzzzzjjzjjszzzzz5zzz",
"jt9jijz4stjjsjjt9&t999tjzzzi4ijjstijitjiji4zjjjzzzjjjzzzzjzzizji",
"z9tjjjj499jjjjst>5jzzjttjjsi44jzjiis5jzjj99jjjjjjjjsiszzjijjttt9",
"j4tjjji444jjjss99izjjjj9it4544szzjjitsiii4ijjiijjjjsitzzzjiit>45",
"t49ijtt>44iijji4sjzsjjjss9+>ti9jjjjjtit9tttjittstjsjjtjzzzjji94t",
"949tsis4ttstiji5szjtzjzzzt+>sz9siijitjtisjtisjsitjsjjttsjjjjistj",
"stt9sjzijjsi9sjisj59jzzjzj95jzjisi99jsijjjsjjzzjjjijjt4tijjt5sij",
"zjt5iiijjjtttjssjt+tszzizzzjjzzjjt4ijjjijzjjtjjjjjsjjt4isjt94ttj",
"zs9tt99szjtt4ttjz9 tijj4tjzjjzzzj99zzjjiijji9tjzjjjjsttjjs9s95sj",
"ziijit9tjitt4itjjj>9tjj4>tjzzzzzj5tszjzjiitt49jjssssjzjjjiijt9sz",
"ztjzjjsiit9jjjjiijsttzz495tjzzzzs4tizizzjt4iitsj9tjjszjjsjjttssj",
"zjzzzzjit55jzzjt4tzjtsj>ijijzszzt4>ijsjzzi&zzstt5izjiijjjis9jzzz",
"zzjjjzjit4t9ijis9ijzitt&izzzzszzst4>5tijzj+jzji9iiijs>szjii9jzzz",
"zjt9tjijitj5945ttjjzzii+izzzzzzzjjs55ttts9+ijjjijt4jj49jjzj9jjsj",
"jt449itjijzi4&59jjjzzzj&tjzzzzzzijjsijjti4+99sjist4ijt5stzjijstj",
"jt>4tt9jizzi>99izzjzzzz>9tzzjjzjijijiisis4+9tjjsjt9ijsts4jjjtsjj",
"ji&4ss9tjjzjit9jzztzzzz>9ttjitzitisjjiitj54sjsjjzjisjjsj5szj9jjz",
"jj95sj99jjzzzsijzztzzzztts5t49ztttjzzjjiiijzjsjzzzjjjjjjtsst5jjz",
"tjj9is9tijzjizjtiztzzjjsiiii49tt95tjjijjijzjsjjzzjjzj9jjisi95tzz",
"iji9sjsiisjiijt9tiizjisjjijji95t4>tjitiitttjsjjzzsizj5tijjjt99zz",
"jjttzjjjiiiizj59iijzittjzjjjitt9>>9t9ttt9tisisiijitssttizzzjiszz",
"ijtijjzjttttzt9ijjjjt959zjisjstt94444tiijjzitiiiji5isttijzzzzzzz",
"tj9jjtzzit9tj>9jjzjii99>tzisjjjjstt4>ijsjzzitjjjzjtjst99tjzzzzzz",
"jt9jjtijjttij>4tsjjjjsj9&jjtijjjssjt95jijzzjsjzzzzjijzs94tjzzjjz",
"j4ttti9t5tijs5tt9tijjzzi4izitssjtjzjj>jjzzzzjjzzzzzijzzjitiizijz",
"j>it9jt999ts5tjt9tijjjjjsizjt9tttjzzz4jjzzzzzzzzzsjjzzzjzjttjjzz",
"j5js9jj9jt495tjiiijjjiittjzjt4sitsjjj>tjzzzzzzzzztzzzzzjjziijzji",
"zizjtjz9jit>stjsssjzt449izzj95zzjttit45ijzzzzzzzj5zzzzzjzzjjzzsi",
"jjjtijztijj4jitsstizi9tjjzzstizzzjt>t95tijzzzzjzj>jzzzzzzzzzzzjj",
"jzs49ij9tzjitttst9>ttijz9iiijzzzzji49jitjjjzzitzj>jjzzzzzzzzzzzz",
"zzzt4ij4izjjt9ti4& &4tjz5tsjzzzzzzjstjs9jzzjzisjj5jjzzzzzzzzjjjz",
"jjzziittzjzjsiii9>&+&4szjzzjjzzzjjjjjjjisjzzjjjsstjzzzzzjjjjtttj",
"tizzj99jzzjjssjjss9>>>tszjzjsjzzjtjsjjjzijzzjsisjisjjjjstijstiti",
"44jjttizjzjjssisij9>>>5ijizjijzzj9sjiisztzjzzjjjzjssijst9jjjistt",
"4tst5sjjzzjj9jiiii>>>>9jjizjijzzzisj49tztzjzzjzzzjjjjzjjizjjjttj",
"t5959stjzzz9tzjsjit>>tszijjsjszzzzjtt>4jtjzzjjjsi99isjjtjiizzttz",
"t>>>599jzzt5zzjsjjjt>jzzjziijsjzjzz4j>4siiijjijit949ttt5j59zztiz",
"sjitt4sjjj4szzsjjzji5ijzzjsjjzjzjzz9j99stt>zjtjjsitijsjjs4tzzijz",
"zzjij>jzji5jzjjjjjztitjzztjzzzzjizzsstjjjt9zjissiiijzzzji9izzjjz",
"zz9ti>jzjtizzjjsiij9ttizstjjzjjjszzitizzz5jzjsjjijzzzzsijitzzzjz",
"it4t99zzzjjzzjzsttjtttsztijjjjttsjzttjzzjtjjjjjiizzjjjtsjt9jzzzj",
"t>9s5izzzzjzjjzjt5jtijzztjzjsstistit5tsjttjjzji4tttttisjzjsjzist",
"j9tttjzzzzzztjzjtti4ijzz5zzjijjzjiii49sjiszzzi9ti45ttjzzzzzzs5i9",
"zzs4izzzjzzzsjzjtji4tszz>zzjjzzzzjjzijzjjzjzzttjjitiizzzzzzjt9zi",
"zzj9szzzsjjzzzzjijztitjj4jzjzzzzzjjzjjzjjsijjjzjzzjjjzzzzzzjitzi",
"zzj9jzzzjjizzzzzijzsjijitizzzzzzzjjzjzzjjiitizzzzzzzjzjjzzzjzjji",
"zzt9zzzszi9jzzjjsjjjjjjsj4zzzzzzzzzzsjzjti9tjzzzzzzzijjjzzzjzjii",
"jj4izzztjt>jzjssjjjjsjjis4jzzjjzjjzzjjjjt99tisiizzzztsjjjjjszijj",
"tt4zzzzs9t>tjsissijzsjt4ttszzjjzzjjjzjszj4tsssitstzzsjjjjjjzzjzz",
"t59jjtij5t>9szjjjjjjt94tsjjzjjjjjzjjjzzzit9jzzjt4>jzzjzzzzzzzzzz"
};
